<?xml version="1.0" encoding="UTF-8" standalone="no"?>
<!-- Created with Inkscape (http://www.inkscape.org/) -->

<svg
   xmlns:dc="http://purl.org/dc/elements/1.1/"
   xmlns:cc="http://creativecommons.org/ns#"
   xmlns:rdf="http://www.w3.org/1999/02/22-rdf-syntax-ns#"
   xmlns:svg="http://www.w3.org/2000/svg"
   xmlns="http://www.w3.org/2000/svg"
   xmlns:sodipodi="http://sodipodi.sourceforge.net/DTD/sodipodi-0.dtd"
   xmlns:inkscape="http://www.inkscape.org/namespaces/inkscape"
   id="svg3336"
   height="1258.5511"
   viewBox="0 0 1258.551 1258.5511"
   width="1258.551"
   version="1.1"
   sodipodi:docname="Stop_(Saudi_Aarbia_Road_Sign).svg"
   inkscape:version="0.92.2 (5c3e80d, 2017-08-06)">
  <defs
     id="defs67054" />
  <sodipodi:namedview
     pagecolor="#ffffff"
     bordercolor="#666666"
     borderopacity="1"
     objecttolerance="10"
     gridtolerance="10"
     guidetolerance="10"
     inkscape:pageopacity="0"
     inkscape:pageshadow="2"
     inkscape:window-width="1280"
     inkscape:window-height="658"
     id="namedview67052"
     showgrid="false"
     inkscape:zoom="0.37386138"
     inkscape:cx="629.75666"
     inkscape:cy="616.3137"
     inkscape:window-x="-8"
     inkscape:window-y="-8"
     inkscape:window-maximized="1"
     inkscape:current-layer="svg3336" />
  <metadata
     id="metadata3342">
    <rdf:RDF>
      <cc:Work
         rdf:about="">
        <dc:format>image/svg+xml</dc:format>
        <dc:type
           rdf:resource="http://purl.org/dc/dcmitype/StillImage" />
        <dc:title />
      </cc:Work>
    </rdf:RDF>
  </metadata>
  <path
     id="use11"
     d="M 1254.1768,370.43295 V 888.11802 L 888.11804,1254.1768 H 370.43296 L 4.3743076,888.11802 V 370.43295 L 370.43296,4.3743076 h 517.68508 z"
     inkscape:connector-curvature="0"
     style="fill:#ffffff;fill-opacity:0.99497485;stroke:#000000;stroke-width:8.749;stroke-miterlimit:4;stroke-dasharray:none;stroke-opacity:1" />
  <path
     id="use13"
     d="M 1197.8338,391.87962 V 862.88865 L 864.78002,1195.9424 H 393.77098 L 60.717286,862.88865 V 391.87962 L 393.77098,58.825913 h 471.00904 z"
     inkscape:connector-curvature="0"
     style="fill:#b40a00;fill-opacity:1;stroke:none;stroke-width:1.13711655" />
  <g
     id="g66919"
     transform="matrix(0.89636353,0,0,0.89636353,77.317427,14.269946)"
     style="fill:#ffffff;fill-opacity:1">
    <g
       style="fill:#ffffff;fill-opacity:1"
       transform="matrix(6.0537297,0,0,6.0537297,110.1658,451.8416)"
       id="layer1">
      <path
         sodipodi:nodetypes="ccsccccccccsccccccccccccccc"
         inkscape:connector-curvature="0"
         d="m 163.33255,31.979694 c -2e-5,6.91492 0.0794,22.699946 0.0794,22.699946 -12.48808,0.299039 -37.38399,0.200009 -51.71193,0.199999 h -11.51941 l -0.468644,-11.61474 12.319434,0.16759 c 9.32299,1.8e-5 45.43934,-0.05717 45.43934,-0.05717 0,0 0.17552,-1.506809 0.17562,-4.227455 -10e-5,-2.323821 -0.53895,-3.368684 -1.45087,-6.393178 -2.20654,0.814965 -3.31417,2.299416 -10.28187,2.299387 -4.80869,2.9e-5 -6.22426,-0.945 -8.77557,-3.553089 -2.06735,-2.497563 -2.44763,-4.27459 -2.44627,-6.711842 0.001,-2.493855 0.27552,-6.540635 1.82056,-12.250809 1.96591,-6.1801971 5.2478,-11.2702922 11.92118,-11.2703548 5.98628,6.26e-5 8.82461,6.8730802 10.77942,10.6776328 3.22504,9.438133 4.11959,13.686028 4.11961,20.034083 z M 152.61026,20.574087 c -7e-5,-0.510069 -2.65041,-5.444392 -5.30008,-6.407989 -3.03426,-0.948254 0.16658,-0.680126 -3.03426,-0.948254 -3.23858,4.7e-5 -3.47705,3.256374 -3.47705,5.240104 -0.32321,4.647622 5.78917,4.51713 7.13668,4.377842 1.42268,-0.327633 4.67464,-1.468144 4.67471,-2.261703 z m -8.22971,-30.5618201 -7.06457,7.7380322 -9.34449,-8.0587821 7.58009,-7.975702 z"
         style="font-style:normal;font-weight:normal;font-size:72px;font-family:'Traditional Arabic';fill:#ffffff;fill-opacity:1;stroke:none;stroke-width:3.18212724px;stroke-linecap:butt;stroke-linejoin:miter;stroke-opacity:1"
         id="text1872" />
      <path
         sodipodi:nodetypes="ccscccccccscccccccccccccccccccccc"
         inkscape:connector-curvature="0"
         d="M 101.39567,54.879639 C 71.745345,54.44513 45.839875,55.326713 45.839875,55.326713 37.099968,54.743899 31.548945,55.219381 23.173015,53.593311 13.919367,51.796844 9.9882797,49.430795 5.4435848,45.479764 1.2893937,40.513347 0.34486127,37.051444 0.34486967,31.266787 0.34486127,25.674987 3.0791568,16.658952 7.6104716,11.404535 l 2.5021514,1.269834 c -2.4584882,4.724156 -4.5469049,10.538157 -4.5468929,12.755579 -1.2e-5,4.338504 0.5838877,8.848784 5.5008479,11.500065 4.916928,2.651305 11.394746,4.679918 19.745905,6.007733 7.056244,0.702974 9.654023,0.798716 16.33238,0.865342 5.909005,0.05895 14.074537,-0.354068 25.043144,-0.461888 -2.904466,-1.261626 -6.355121,-1.1231 -13.169129,-7.139236 -1.712212,-3.182498 -2.07787,-9.008587 -1.220991,-11.16309 3.711729,-7.953844 7.402056,-15.0913539 13.955687,-15.036171 3.626209,0.220968 7.162346,3.014408 9.187066,6.581562 1.879913,3.374414 2.351273,10.424725 2.35137,13.027778 -9.7e-5,4.627745 0.249979,8.234737 0.09722,13.740056 2.100831,0.218034 4.651723,0.02327 8.315433,0.02326 l 9.222367,-0.11046 z M 76.155984,34.561071 c 0,0 0.293163,-3.717269 -0.386704,-6.397664 -0.776467,-1.547625 -1.542786,-3.564132 -2.575115,-4.503085 -1.34984,-0.607492 -2.182473,-1.033163 -4.983264,-0.227634 -2.193428,2.241581 -1.909343,2.738837 -1.909263,4.474201 0.710973,4.975339 5.387955,5.929006 5.43728,5.942344 3.955899,1.32627 4.417066,0.711838 4.417066,0.711838 z m -5.734809,-46.238392 -5.226659,9.9239663 -10.716639,-5.4203867 4.963342,-9.6722486 z"
         style="font-style:normal;font-weight:normal;font-size:72px;font-family:'Traditional Arabic';fill:#ffffff;fill-opacity:1;stroke:none;stroke-width:2.05676293px;stroke-linecap:butt;stroke-linejoin:miter;stroke-opacity:1"
         id="text1880" />
    </g>
    <path
       sodipodi:nodetypes="ccccc"
       inkscape:connector-curvature="0"
       d="m 1080.9801,380.39492 -42.767,46.84395 -56.56892,-48.78569 45.88782,-48.28274 z"
       style="font-style:normal;font-weight:normal;font-size:72px;font-family:'Traditional Arabic';fill:#ffffff;fill-opacity:1;stroke:none;stroke-width:19.26373863px;stroke-linecap:butt;stroke-linejoin:miter;stroke-opacity:1"
       id="text1872-9" />
  </g>
  <g
     transform="matrix(0.14103083,0,0,0.18427742,-231.04745,3681.0314)"
     id="layer1-9"
     inkscape:label="Layer 1"
     style="stroke-width:2.34446883">
    <path
       inkscape:connector-curvature="0"
       id="path296042"
       style="fill:#ffffff;stroke:none;stroke-width:3.47372055;stroke-linecap:round;stroke-linejoin:round;stroke-miterlimit:10;stroke-dasharray:none;stroke-opacity:1"
       d="m 4698.1605,-15474.206 22.7561,0.794 22.4915,1.588 22.2269,2.911 21.6977,4.233 21.1685,5.028 20.6392,6.086 20.1101,7.409 19.5808,8.203 18.7871,8.996 18.2578,10.056 17.464,10.848 16.9347,11.643 15.8764,12.701 15.0826,13.231 14.5533,14.024 13.2303,14.817 12.4366,15.348 11.3779,15.876 10.5843,16.67 9.2612,17.199 8.2028,17.729 7.1444,17.993 6.0859,18.788 1.323,4.763 v 0.264 l -0.5292,0.265 -2.3814,0.528 -4.4983,1.324 -5.8214,1.852 -7.409,2.117 -8.4673,2.382 -9.7904,2.91 -10.5843,2.91 -11.3781,3.441 -24.0791,6.879 -24.6083,7.144 -23.8146,6.881 -11.3781,3.439 -10.3196,2.911 -9.5258,2.911 -8.4674,2.381 -7.1443,2.117 -5.5568,1.587 -3.9691,1.059 -2.1169,0.529 -0.2645,0.265 -0.2647,-0.529 -0.2646,-1.324 -1.0584,-2.645 -1.8522,-5.293 -4.2338,-10.32 -4.7629,-9.789 -5.2921,-9.262 -5.8213,-8.996 -6.3506,-8.203 -6.8797,-7.938 -7.1444,-7.41 -7.6735,-6.879 -7.9382,-6.351 -8.2028,-6.085 -8.732,-5.557 -8.9965,-4.763 -18.5225,-8.732 -19.0516,-6.615 -19.8455,-4.498 -20.1101,-2.912 -20.3746,-0.794 -19.8455,1.059 -19.8454,2.91 -18.787,5.028 -9.2613,3.176 -8.9966,3.44 -8.4674,4.233 -8.4674,4.499 -7.9382,5.027 -7.6735,5.556 -7.1444,6.087 -6.8798,6.351 -6.3506,7.144 -6.0859,7.408 -5.292,7.938 -4.7629,8.204 -4.2338,8.997 -3.7044,9.26 -3.1753,9.791 -2.3815,10.32 -1.5876,10.848 -0.7938,5.557 -0.2647,3.175 v 3.704 l -0.5291,13.76 0.5291,13.23 1.5877,12.437 2.3814,11.908 3.1753,11.377 3.9691,10.585 4.7629,9.791 5.2921,9.525 6.3505,8.996 6.8799,8.203 7.4089,7.938 8.2028,7.674 8.732,7.144 9.2612,6.616 9.7904,6.35 10.3197,5.822 21.9622,11.377 23.5501,10.056 24.8728,9.526 26.196,8.732 26.9899,8.732 27.7836,8.467 56.6258,17.993 28.3128,9.79 28.0482,10.585 27.519,11.642 26.7252,12.966 25.6668,14.818 12.4365,7.938 11.9073,8.203 11.9072,8.996 11.1135,9.526 2.6461,2.118 2.1168,2.116 4.4984,3.969 8.2027,8.203 15.6117,17.464 14.0242,18.258 12.7011,19.052 11.1135,19.845 9.7903,20.64 8.2028,21.168 6.8798,21.433 5.2922,21.962 3.9691,22.226 2.6459,22.492 1.0585,22.492 -0.5292,22.491 -1.5876,22.227 -3.4399,21.963 -4.4983,21.697 -6.086,21.433 -7.4089,20.639 -8.9967,20.111 -10.3196,19.58 -11.6426,18.523 -13.2304,17.464 -14.5533,16.67 -3.7044,3.969 -2.1169,2.117 -3.4398,3.175 -14.2888,12.966 -14.818,12.436 -15.3471,11.644 -16.141,10.848 -16.4055,10.32 -16.9348,9.526 -17.464,8.997 -17.9932,8.202 -18.2578,7.409 -18.5225,6.616 -18.787,6.085 -19.3163,5.292 -19.3161,4.499 -19.581,3.704 -19.8454,2.91 -19.8455,2.382 -20.11,1.324 -19.8454,0.793 h -20.1101 l -20.1101,-0.793 -19.8455,-1.588 -19.8454,-2.382 -19.8455,-3.44 -19.5808,-3.969 -19.3163,-4.763 -19.0516,-5.557 -19.0517,-6.615 -18.5223,-7.144 -18.2578,-8.202 -17.7287,-8.997 -17.464,-9.791 -16.9348,-10.584 -16.4055,-11.378 -15.8764,-12.436 -15.3472,-13.231 -14.5533,-14.289 -14.2887,-14.818 -13.2304,-15.876 -12.7011,-16.935 -11.9072,-17.464 -11.378,-18.522 -10.3197,-19.581 -9.5258,-20.375 -8.4675,-21.433 -7.6735,-22.227 -6.6152,-23.02 -1.5876,-6.086 v -0.53 l 1.8523,-0.529 3.4399,-1.059 5.2921,-1.851 6.8797,-2.118 8.2028,-2.645 8.9967,-2.911 10.3196,-3.44 10.8488,-3.44 23.5499,-7.673 24.6084,-7.674 23.8145,-7.939 11.3781,-3.439 10.5843,-3.44 9.7904,-3.175 8.732,-2.91 7.6736,-2.382 6.0859,-2.118 4.4983,-1.322 2.6461,-1.059 h 0.7938 l 0.2646,-0.264 v 1.058 l 0.2646,2.117 2.9107,16.141 3.7045,15.612 4.7629,14.818 5.5567,14.023 6.6152,13.232 7.1444,12.701 7.9381,11.907 8.732,11.113 9.2612,10.584 10.055,9.791 10.3196,8.997 11.1135,8.467 11.3781,7.673 11.9073,6.88 12.1719,6.351 12.4364,5.557 12.9658,4.763 13.2302,4.232 13.2303,3.441 13.4949,2.646 13.4949,2.117 13.4949,1.587 13.7596,0.529 h 13.4949 l 13.4949,-0.529 13.4949,-1.322 13.2303,-2.118 12.9657,-2.645 12.7011,-3.441 12.4365,-3.969 12.1719,-4.763 11.6426,-5.291 11.3781,-6.087 10.5842,-6.879 10.3196,-7.41 9.7905,-7.938 8.9966,-8.732 8.2027,-9.526 7.6737,-10.054 7.1444,-10.585 6.0859,-11.377 5.0275,-11.908 4.4983,-12.701 3.4399,-13.495 2.3814,-13.759 1.323,-14.818 0.2647,-3.705 0.2645,-4.233 v -9.262 l -1.323,-17.728 -2.9106,-16.141 -3.9691,-15.083 -5.5567,-13.76 -6.8799,-12.701 -8.2027,-11.642 -9.2613,-10.585 -10.5841,-9.789 -11.3781,-8.997 -12.4365,-8.204 -13.2304,-7.408 -14.024,-7.144 -14.8179,-6.351 -15.6118,-6.087 -16.141,-5.556 -16.6702,-5.292 -17.1993,-5.028 -35.7218,-9.789 -36.5157,-9.791 -37.3094,-10.32 -37.3095,-11.378 -18.2578,-6.351 -18.2578,-6.879 -17.9933,-7.41 -17.7286,-8.202 -17.1994,-8.732 -16.6702,-9.791 -16.1409,-10.584 -15.3472,-11.377 -14.8179,-12.438 -14.2887,-13.495 -13.2304,-14.817 -12.1718,-16.142 -11.3781,-17.199 -10.3197,-18.786 -9.2611,-20.111 -8.2029,-21.698 -6.8797,-23.284 -2.9107,-12.438 -2.3815,-12.701 -2.3814,-13.23 -1.8522,-13.494 -1.5876,-14.024 -1.0585,-14.554 -0.7938,-15.082 -0.2647,-7.674 v -17.729 l 1.5877,-23.285 3.4399,-22.756 5.2921,-21.962 6.8798,-21.698 8.4674,-20.904 10.055,-20.375 11.6427,-19.58 13.2303,-18.788 14.2887,-17.993 15.8764,-16.935 16.9348,-16.14 18.2578,-15.083 19.3162,-14.025 20.3747,-12.964 21.1685,-11.644 22.2269,-10.583 23.0207,-9.262 23.8146,-7.939 24.6083,-6.35 25.1376,-5.027 25.6668,-3.705 26.196,-1.852 13.2303,-0.53 h 6.086" />
    <path
       inkscape:connector-curvature="0"
       id="path298458"
       style="fill:#ffffff;stroke:none;stroke-width:3.47372055;stroke-linecap:round;stroke-linejoin:round;stroke-miterlimit:10;stroke-dasharray:none;stroke-opacity:1"
       d="m 5701.5563,-14224.206 h -187.6059 v -1075.096 h -287.3625 v -174.904 h 762.3309 v 174.904 h -287.3625 z" />
    <path
       inkscape:connector-curvature="0"
       id="path304042"
       style="fill:#ffffff;stroke:none;stroke-width:3.47372055;stroke-linecap:round;stroke-linejoin:round;stroke-miterlimit:10;stroke-dasharray:none;stroke-opacity:1"
       d="m 7243.1754,-15474.206 h 438.4528 l 25.9314,0.794 24.873,2.117 24.0792,3.175 23.2853,4.234 22.2269,5.292 21.4331,6.615 20.6393,7.408 19.5809,8.204 18.7871,9.525 17.7285,10.055 17.1995,11.113 15.8764,11.644 15.3471,12.436 14.2887,13.23 13.2304,13.76 12.4365,14.554 11.6426,15.082 10.5843,15.347 9.7904,15.876 8.732,16.406 7.9382,16.671 6.8798,17.199 6.0859,17.464 5.0276,17.464 4.2336,17.729 3.1753,17.992 2.3814,17.993 1.3232,18.258 0.2645,17.994 -0.5292,17.993 -1.323,17.993 -2.6461,17.994 -3.1753,17.728 -4.4982,17.464 -5.2922,17.2 -6.0859,16.934 -7.4091,16.67 -8.2027,16.407 -8.9966,15.611 -10.055,15.347 -11.1135,14.818 -12.1719,14.289 -12.9657,13.495 -14.0242,12.966 -15.0825,12.436 -15.8764,11.378 -17.1994,10.849 -17.9932,9.791 -18.7871,8.995 -20.11,8.204 -20.904,7.144 -21.9622,6.086 -23.0208,5.028 -23.8146,3.704 -24.873,2.911 -26.196,1.588 -13.2303,0.263 h -269.8985 v 563.083 h -187.6059 v -1249.736 l 0.2646,-0.264 z" />
    <path
       inkscape:connector-curvature="0"
       id="path304046"
       style="fill:#b40a00;fill-opacity:1;stroke:none;stroke-width:3.47372055;stroke-linecap:round;stroke-linejoin:round;stroke-miterlimit:10;stroke-dasharray:none;stroke-opacity:1"
       d="m 7428.9291,-15286.601 h 295.5653 l 16.6702,1.588 10.5843,1.853 10.3196,2.381 9.7904,3.175 9.2613,3.441 8.9965,3.969 8.4674,4.763 7.9382,5.026 7.409,5.293 7.1444,6.086 6.6152,6.085 6.0859,6.616 5.8214,7.144 5.2921,7.145 9.2611,15.611 7.4091,16.141 5.5567,17.199 3.4399,17.464 2.1168,17.73 v 17.992 l -1.8523,17.729 -3.9691,17.729 -5.5567,16.671 -7.4089,16.405 -4.4984,7.673 -4.7629,7.409 -5.5567,7.145 -5.8213,6.879 -6.3505,6.616 -6.6152,6.085 -7.4091,5.822 -7.6735,5.292 -8.4674,4.763 -8.4674,4.499 -9.2612,3.704 -9.7904,3.44 -10.0551,2.91 -10.8488,2.117 -11.1135,1.587 -11.6426,1.059 h -2.9108 l -1.5876,0.265 h -291.8608 l -0.2646,-0.265 z" />
    <path
       inkscape:connector-curvature="0"
       id="path312169"
       style="fill:#ffffff;stroke:none;stroke-width:3.47372055;stroke-linecap:round;stroke-linejoin:round;stroke-miterlimit:10;stroke-dasharray:none;stroke-opacity:1"
       d="m 6533.9821,-15474.206 28.0483,0.794 27.519,2.117 27.2545,3.704 26.4606,5.028 26.196,6.879 25.1377,8.468 24.6084,10.32 23.8145,12.171 23.0208,14.025 11.1135,7.673 11.1134,8.203 10.5842,8.732 10.3196,8.996 10.3197,9.791 9.7905,10.32 9.7904,10.584 9.2612,11.377 9.2612,11.908 8.732,12.437 8.4674,12.965 8.2028,13.495 7.9382,14.025 7.409,14.817 7.4089,15.348 6.8799,15.876 6.615,16.405 6.0861,17.199 5.8212,17.73 5.5568,18.257 5.0275,19.052 4.7629,19.58 4.4983,20.376 3.9691,20.903 3.4399,21.698 3.1753,22.492 2.6461,23.021 2.3815,23.549 1.8521,24.344 1.5877,25.138 0.7938,25.931 0.5293,26.461 -0.2647,54.774 -0.7938,26.99 -1.0585,26.196 -1.8521,25.402 -1.8523,24.608 -2.6461,24.079 -2.646,23.285 -3.1753,22.492 -3.7045,21.962 -3.9691,21.168 -4.4983,20.64 -4.4983,19.845 -5.2922,19.317 -5.2921,18.523 -5.8213,17.992 -6.0859,17.465 -6.3506,16.67 -6.8797,16.141 -7.1444,15.611 -7.1444,14.818 -7.9382,14.554 -7.9381,13.76 -8.2029,13.23 -8.732,12.436 -8.732,12.172 -9.2612,11.379 -9.2612,11.113 -9.7904,10.32 -9.7905,10.054 -10.3197,9.261 -10.3196,8.997 -10.8488,8.467 -10.8488,7.938 -22.4916,14.289 -23.2854,12.437 -24.0791,10.584 -24.8731,8.997 -25.6668,7.144 -26.1959,5.292 -26.9899,3.969 -27.2545,2.646 -28.0483,0.794 -28.0482,-0.265 -27.5191,-1.322 -27.2544,-2.382 -26.4606,-3.704 -26.1961,-5.293 -25.1375,-6.614 -24.6084,-8.203 -23.8146,-10.055 -23.0208,-11.644 -11.1134,-6.614 -11.1135,-7.144 -10.5843,-7.675 -10.5843,-8.202 -10.055,-8.468 -10.055,-9.261 -9.5258,-9.791 -9.5258,-10.583 -9.2613,-10.85 -8.732,-11.642 -8.7321,-12.172 -8.2027,-12.965 -7.9382,-13.495 -7.6736,-14.025 -7.4089,-14.818 -6.8799,-15.611 -6.8797,-16.406 -6.3505,-16.934 -5.8214,-17.729 -5.8213,-18.258 -5.2922,-19.317 -5.0274,-20.109 -4.4984,-20.639 -4.2336,-21.699 -3.7046,-22.491 -3.4398,-23.021 -2.9108,-24.344 -2.6459,-24.873 -2.3815,-25.666 -1.5876,-26.726 -1.5877,-27.784 -0.7938,-28.577 -0.5293,-29.372 v -30.428 l 0.2647,-29.637 1.0584,-28.577 1.0584,-27.784 1.8523,-26.99 2.1168,-25.931 2.3814,-25.138 3.1753,-24.344 3.1753,-23.285 3.7045,-22.756 4.2337,-21.698 4.4984,-20.903 4.7629,-20.111 5.2921,-19.58 5.5567,-18.523 6.0859,-17.729 6.086,-17.199 6.8797,-16.405 6.8798,-15.613 7.1443,-15.082 7.6737,-14.289 7.9382,-13.759 8.2027,-12.966 8.4675,-12.172 8.9965,-11.908 8.9967,-11.113 9.2612,-10.32 9.7904,-10.054 9.7905,-9.261 10.3197,-8.732 10.3196,-8.468 10.5842,-7.674 10.8489,-7.144 11.1135,-6.615 11.378,-6.351 23.2854,-10.848 24.3437,-9.261 24.8731,-7.675 25.4022,-6.085 26.196,-4.498 26.9898,-3.175 27.2545,-2.118 28.0482,-0.794 6.8799,-0.264 z" />
    <path
       inkscape:connector-curvature="0"
       id="path312173"
       style="fill:#b40a00;fill-opacity:1;stroke:none;stroke-width:3.47372055;stroke-linecap:round;stroke-linejoin:round;stroke-miterlimit:10;stroke-dasharray:none;stroke-opacity:1"
       d="m 6533.9821,-15286.599 14.818,0.528 14.5533,1.323 14.2887,2.647 14.2888,3.704 13.4949,4.763 13.4949,5.821 12.9658,7.41 12.7011,8.467 12.1718,9.525 11.6428,11.114 11.1134,12.701 10.5842,14.024 10.0551,15.347 9.5258,16.936 8.7321,18.521 8.2027,20.111 7.409,21.962 6.8797,23.55 6.086,25.138 5.0275,27.254 4.4984,28.842 3.4398,30.695 1.5876,16.14 1.0585,16.67 1.0584,16.935 0.7939,17.729 0.5291,17.993 0.2647,18.523 -0.2647,38.632 -0.2646,18.787 -0.7938,18.258 -0.7939,17.729 -1.0583,17.199 -1.3231,16.935 -1.5877,16.141 -3.4397,31.223 -4.4984,29.371 -5.0275,27.255 -6.086,25.666 -6.6151,23.815 -7.1444,22.227 -8.2028,20.639 -8.4674,18.788 -9.2613,17.199 -9.7903,15.876 -10.3197,14.289 -10.8489,12.701 -11.6426,11.379 -11.6427,10.054 -12.4364,8.732 -12.7011,7.41 -13.2304,6.35 -13.495,5.027 -14.0241,3.705 -14.024,2.911 -14.5534,1.587 -14.818,0.794 -14.818,-0.265 -14.5533,-1.058 -14.2887,-1.587 -14.0242,-2.647 -13.7595,-3.704 -13.4949,-4.499 -12.9657,-5.82 -12.7011,-6.881 -11.9073,-8.467 -11.9073,-9.526 -11.1135,-10.848 -10.5843,-12.701 -10.055,-14.025 -9.5258,-15.877 -8.9967,-17.464 -8.2027,-19.58 -7.6736,-21.168 -3.4398,-11.379 -3.44,-11.907 -3.1752,-12.436 -2.9107,-12.966 -2.9107,-13.23 -2.646,-14.024 -2.3815,-14.554 -2.1169,-15.347 -2.1168,-15.612 -1.8523,-16.141 -1.5876,-16.934 -1.323,-17.464 -1.323,-17.994 -0.7938,-18.787 -0.7938,-19.316 -0.5293,-20.11 -0.2646,-20.639 v -21.169 l 0.2646,-20.64 0.5293,-20.109 0.5291,-19.582 1.0585,-18.786 1.0583,-18.258 1.3231,-17.464 1.5877,-16.935 1.8521,-16.405 1.8523,-15.877 2.1168,-15.347 2.3815,-14.553 2.6461,-14.025 2.6461,-13.759 3.1753,-12.966 2.9106,-12.436 3.4399,-12.172 7.1444,-22.227 7.9382,-20.639 8.4674,-18.523 9.2611,-16.934 9.7905,-15.083 10.3197,-13.495 10.8488,-11.907 11.3781,-10.585 11.9073,-8.997 12.1719,-7.673 12.7011,-6.615 13.2303,-5.292 13.4949,-3.969 14.0241,-3.441 14.0242,-2.116 14.5533,-1.588 14.818,-0.528 z" />
  </g>
</svg>
