<svg xmlns="http://www.w3.org/2000/svg" width="1280" height="1280"><ellipse cx="659.692" cy="632.615" rx="615.385" ry="598.154" style="opacity:1;fill:#fff;fill-opacity:1;stroke-width:3.77953;stroke-dasharray:15.1181,30.2362"/><path d="M763.353 293.64c-23.492-.632-9.436 23.433 5.596 107.923h-401.18v3.48h-3.48v630.086h167.095V575.62h237.96c-15.305 82.145-36.55 131.388 3.876 112.32 58.255-35.771 214.965-130.596 320.405-195.118l-1.774-.252 3.477-.496c-105.44-64.523-262.148-159.348-320.403-195.12-4.592-2.166-8.42-3.227-11.572-3.312z" style="opacity:1;fill:#000;stroke-width:3.77953;stroke-dasharray:15.1181,30.2362"/><path d="M641.214 14.768c-168.102 0-329.32 66.629-448.185 185.228C74.163 318.594 7.384 479.449 7.384 647.173c0 167.724 66.779 328.578 185.645 447.177 118.866 118.6 280.083 185.227 448.185 185.227 168.102 0 334.242-66.628 453.108-185.227 118.866-118.599 185.644-279.453 185.644-447.177 0-167.724-66.778-328.579-185.644-447.177C975.456 81.396 809.316 14.769 641.214 14.768Zm10.048 132.915c137.986 0 270.32 53.215 367.891 147.938 97.57 94.722 147.462 223.193 147.463 357.15 0 110.443-37.288 217.84-106.153 305.749L348.16 242.535c88.338-61.597 194.339-94.768 303.101-94.852zM236.048 349.41l716.302 715.062c-87.958 60.69-193.177 93.326-301.088 93.39-137.986 0-270.321-53.215-367.892-147.938-97.572-94.722-152.386-223.194-152.386-357.152.222-109.504 37.095-215.972 105.064-303.362Z" style="opacity:1;fill:#c90816;fill-opacity:1;stroke-width:4.6346;stroke-dasharray:18.5384,37.0769"/></svg>