<?xml version="1.0" encoding="UTF-8" standalone="no"?>
<!-- Created with Inkscape (http://www.inkscape.org/) -->

<svg
   width="50.5mm"
   height="50.5mm"
   viewBox="0 0 50.5 50.5"
   version="1.1"
   id="svg17025"
   inkscape:version="1.2.2 (732a01da63, 2022-12-09)"
   sodipodi:docname="drawing.svg"
   xmlns:inkscape="http://www.inkscape.org/namespaces/inkscape"
   xmlns:sodipodi="http://sodipodi.sourceforge.net/DTD/sodipodi-0.dtd"
   xmlns="http://www.w3.org/2000/svg"
   xmlns:svg="http://www.w3.org/2000/svg">
  <sodipodi:namedview
     id="namedview17027"
     pagecolor="#ffffff"
     bordercolor="#000000"
     borderopacity="0.25"
     inkscape:showpageshadow="2"
     inkscape:pageopacity="0.0"
     inkscape:pagecheckerboard="0"
     inkscape:deskcolor="#d1d1d1"
     inkscape:document-units="mm"
     showgrid="false"
     inkscape:zoom="1.0129245"
     inkscape:cx="343.55966"
     inkscape:cy="9.3787838"
     inkscape:window-width="1920"
     inkscape:window-height="991"
     inkscape:window-x="-9"
     inkscape:window-y="-9"
     inkscape:window-maximized="1"
     inkscape:current-layer="layer1" />
  <defs
     id="defs17022" />
  <g
     inkscape:label="Layer 1"
     inkscape:groupmode="layer"
     id="layer1"
     transform="translate(-32.868854,-37.671093)">
    <g
       id="g48867"
       transform="matrix(1.8972524,0,0,1.8972524,-464.42483,-391.37755)">
      <path
         inkscape:connector-curvature="0"
         id="path1779-0"
         d="m 269.9632,226.27387 -7.71887,7.71887 1e-5,10.91615 7.71886,7.71888 10.91614,-1e-5 7.71889,-7.71887 -10e-6,-10.91615 -7.71887,-7.71887 z"
         style="fill:#c50000;fill-opacity:1;stroke:none;stroke-width:0.263539;stroke-dasharray:none;stroke-opacity:1;paint-order:stroke fill markers" />
      <path
         id="path1777-3"
         style="fill:#ffffff;fill-opacity:1;stroke:none;stroke-width:0.02784"
         d="m 270.03605,226.44959 -7.61587,7.61586 v 10.77061 l 7.61587,7.61587 h 10.77061 l 7.61586,-7.61587 v -10.77061 l -7.61586,-7.61586 z m 0.29082,0.7026 h 10.18846 l 7.2046,7.2046 v 10.18845 l -7.2046,7.20409 h -10.18846 l -7.20409,-7.20409 v -10.18845 z" />
      <path
         sodipodi:nodetypes="sccscccsccsccsccscccscccccsscccccsccccccsccacscsccccccccscccccsccscscssssccccccccccsaacccccccssscssccsccascssccscc"
         d="m 283.45163,233.8955 c -0.0695,0 -0.12893,0.0198 -0.17857,0.0594 l -0.5759,0.55603 c -0.0794,0.0695 -0.13397,0.0991 -0.15879,0.0991 -0.0149,0 -0.0597,-0.0247 -0.13911,-0.0794 l -0.47646,-0.51625 c -0.0397,-0.0397 -0.0793,-0.0645 -0.11901,-0.0794 -0.0397,-0.01 -0.0794,-0.0198 -0.11912,-0.0198 -0.0546,0 -0.10936,0.0149 -0.159,0.0397 l -0.81392,0.77437 c -0.0397,0.0546 -0.0596,0.10914 -0.0596,0.15878 0,0.0695 0.0495,0.13903 0.1389,0.21846 l 0.7148,0.675 c 0.0397,0.0546 0.0994,0.0795 0.17878,0.0795 0.0794,0 0.13886,-0.0248 0.17857,-0.0795 l 0.57579,-0.55601 c 0.0794,-0.0496 0.12412,-0.0794 0.13901,-0.0794 0.0248,0 0.0795,0.0348 0.15889,0.0994 l 0.53613,0.53599 c 0.0248,0.0298 0.0496,0.0496 0.0793,0.0596 0.0397,0.0149 0.0694,0.02 0.0992,0.02 0.0794,0 0.13896,-0.0249 0.17867,-0.0795 l 0.71481,-0.69501 c 0.0893,-0.0496 0.14389,-0.10907 0.15878,-0.17854 0,-0.0645 -0.0297,-0.12409 -0.0793,-0.17868 l -0.73469,-0.71483 c -0.0695,-0.0794 -0.14889,-0.11902 -0.23823,-0.11902 z m -6.64414,2.08896 c -0.098,0 -0.18364,0.0368 -0.24489,0.0981 l -0.73512,0.71046 c -0.049,0.0367 -0.0734,0.0735 -0.0734,0.12248 -0.0183,0.0858 0.0307,0.15922 0.14706,0.22046 l 0.71046,0.68614 c 0.0344,0.0332 0.0858,0.049 0.17158,0.049 0.0796,0 0.13471,-0.0123 0.17148,-0.049 l 0.68593,-0.68614 c 0.0613,-0.0306 0.10424,-0.055 0.12261,-0.0734 0.0122,-0.0306 0.0244,-0.0613 0.0244,-0.0981 0.0122,-0.049 0,-0.10412 -0.0491,-0.17147 l -0.80853,-0.78388 c -0.0362,-0.0351 -0.0919,-0.0247 -0.12251,-0.0247 z m 7.02603,0.26194 c -0.12368,0 -0.23606,0.0221 -0.33725,0.0673 -0.10681,0.045 -0.25411,0.13107 -0.35989,0.22499 -0.39591,0.35167 -0.60734,0.58049 -0.99524,1.23825 -0.37666,0.62966 -0.59473,1.16244 -0.59473,1.66838 0,0.40477 0.22659,0.84031 0.54142,1.13827 0.32606,0.2867 0.72627,0.45975 1.22098,0.45975 0.65775,0 0.98613,-0.29375 1.221,-0.37133 l 0.20448,-0.005 c 0.008,0.14466 0.0139,0.45478 0.0139,0.45478 0.009,0.18658 -0.0202,0.35005 -0.20237,0.33717 h -6.29271 c 0.0893,-0.21704 0.20688,-0.32469 0.28383,-0.60502 0.044,-0.18718 0.15654,-0.47735 0.16736,-0.77446 0.014,-0.38611 0.0235,-0.45726 -0.12854,-0.80376 -0.25392,-0.52025 -0.519,-0.71272 -1.00349,-0.71272 -0.52854,0 -0.96469,0.43634 -1.27039,0.72065 -0.2633,0.26289 -0.4705,0.48876 -0.70804,0.75117 -0.61286,0.67706 -0.5322,0.70708 -1.01101,1.42519 l -7.02342,0.0439 c -0.3964,0 -0.74882,-0.16512 -1.05713,-0.5065 -0.2973,-0.35234 -0.2504,-0.73369 -0.2504,-1.16313 0,-0.17618 0.0417,-0.33245 0.0747,-0.50859 0.0275,-0.17619 0.055,-0.31941 0.088,-0.4405 0.0275,-0.11565 0.11669,-0.31541 0.11669,-0.3595 0,-0.025 -0.0298,-0.0928 -0.0699,-0.11053 -0.0152,-0.006 -0.0379,-0.008 -0.058,-0.006 -0.02,0.002 -0.0376,0.005 -0.0424,0.008 -0.0486,0.0338 -0.24479,0.21386 -0.35344,0.3342 -0.0931,0.10314 -0.17645,0.21511 -0.25388,0.33048 -0.1597,0.23795 -0.3183,0.48022 -0.43246,0.74303 -0.17486,0.40265 -0.37967,0.90864 -0.37967,1.26103 0,0.73773 0.2092,1.34326 0.63864,1.82777 0.42392,0.47344 1.48381,0.70474 2.17751,0.70474 h 7.04681 c 0.26427,0 1.11341,0.002 1.11341,0.002 0.37191,-0.073 0.41206,-0.22345 0.53761,-0.22248 0.1657,0.002 0.21422,0.20723 0.43129,0.22153 h 1.07956 0.85899 v 0 h 5.80587 c 0.51283,0 0.60861,0.0306 0.70665,-0.42071 0.0356,-0.16389 0.0844,-0.46708 0.12769,-0.70041 0.1222,-0.65857 0.31347,-1.30737 0.3728,-1.97453 0.0491,-0.55266 0.11958,-1.06291 -0.0153,-1.66442 -0.13492,-0.61278 -0.11002,-0.56658 -0.34614,-1.13998 -0.22692,-0.47989 -0.48778,-0.72738 -0.8026,-1.04222 -0.15179,-0.16303 -0.30092,-0.25539 -0.43585,-0.31727 -0.13491,-0.0731 -0.26992,-0.11221 -0.40484,-0.11221 z m -0.61716,2.01175 c 0.0943,0.002 0.18557,0.01 0.26278,0.0209 0.38615,0.0543 0.70384,0.37046 0.99111,0.6217 0.0367,0.0321 0.0828,0.0865 0.0642,0.13158 -0.0445,0.10802 -0.11683,0.11676 -0.33101,0.1149 -0.21417,-0.002 -0.60978,0.0457 -0.88797,-0.0571 -0.28742,-0.10623 -0.79045,-0.25049 -0.73511,-0.55188 0.0422,-0.23004 0.35295,-0.2851 0.63599,-0.28004 z m -6.5265,1.83137 c 0.0548,0.002 0.10891,0.0107 0.15963,0.0277 0.16751,0.0566 0.32258,0.18421 0.40823,0.33894 0.10093,0.18233 0.12307,0.37726 0.0831,0.61969 -0.0161,0.0977 -0.0397,0.17677 -0.0791,0.25747 -0.0426,0.0874 -0.0803,0.18566 -0.16712,0.23918 -0.0529,0.0326 -0.12707,0.0623 -0.33047,0.007 -0.23536,-0.064 -0.48321,-0.22014 -0.60352,-0.37266 -0.16071,-0.20377 -0.23605,-0.54289 -0.1114,-0.77047 0.0753,-0.13752 0.22296,-0.24512 0.37237,-0.30148 0.0835,-0.0315 0.17689,-0.0483 0.26828,-0.0453 z"
         style="fill:#ffffff;stroke-width:0.054163"
         id="path24553-4-1" />
    </g>
  </g>
</svg>
