<?xml version="1.0" encoding="UTF-8" standalone="no"?>
<!-- Created with Inkscape (http://www.inkscape.org/) -->

<svg
   width="158.74998mm"
   height="140.19814mm"
   viewBox="0 0 158.74999 140.19814"
   version="1.1"
   id="svg1"
   xml:space="preserve"
   inkscape:version="1.4.2 (f4327f4, 2025-05-13)"
   sodipodi:docname="SA_road_sign_-_Camels_crossing.svg"
   xmlns:inkscape="http://www.inkscape.org/namespaces/inkscape"
   xmlns:sodipodi="http://sodipodi.sourceforge.net/DTD/sodipodi-0.dtd"
   xmlns="http://www.w3.org/2000/svg"
   xmlns:svg="http://www.w3.org/2000/svg"><sodipodi:namedview
     id="namedview1"
     pagecolor="#ffffff"
     bordercolor="#000000"
     borderopacity="0.25"
     inkscape:showpageshadow="2"
     inkscape:pageopacity="0.0"
     inkscape:pagecheckerboard="0"
     inkscape:deskcolor="#d1d1d1"
     inkscape:document-units="mm"
     inkscape:zoom="1.4164562"
     inkscape:cx="319.45922"
     inkscape:cy="270.7461"
     inkscape:window-width="1920"
     inkscape:window-height="991"
     inkscape:window-x="-9"
     inkscape:window-y="-9"
     inkscape:window-maximized="1"
     inkscape:current-layer="g1"
     showgrid="false"
     showguides="true" /><defs
     id="defs1" /><g
     inkscape:label="Layer 1"
     inkscape:groupmode="layer"
     id="layer1"
     transform="translate(-79.113908,-52.596291)"><g
       id="g9057"
       transform="matrix(2.1125124,0,0,2.1125124,-33.660916,25.665494)"><g
         id="g1"
         transform="translate(23.327131,2.0353439)"><path
           style="fill:#c50000;fill-opacity:1;stroke:none;stroke-width:0.104956;stroke-dasharray:none;stroke-opacity:1"
           id="path7446-3"
           fill="#ec1d24"
           d="m 35.040279,77.078477 c -1.791787,0 -3.434435,-0.94371 -4.317433,-2.48471 -0.887678,-1.53895 -0.887678,-3.43914 0,-4.98265 l 32.58922,-56.41993 c 0.892414,-1.538806 2.524852,-2.478286 4.297898,-2.478286 0.006,0 0.01173,-3e-5 0.02078,0 0.006,-3e-5 0.01173,0 0.02078,0 1.773106,0 3.405483,0.93948 4.297898,2.478286 l 32.589468,56.41993 c 0.88757,1.54351 0.88757,3.4437 0,4.98265 -0.88301,1.541 -2.52565,2.48471 -4.3175,2.48471 z"
           clip-rule="evenodd"
           fill-rule="evenodd" /><path
           id="path7448-9"
           fill="#ffffff"
           d="M 37.915557,70.438377 H 97.343618 L 67.62959,18.999527 Z"
           clip-rule="evenodd"
           fill-rule="evenodd"
           style="fill:#ffffff;fill-opacity:1;stroke-width:0.208697" /><path
           id="path1"
           style="baseline-shift:baseline;display:inline;overflow:visible;opacity:1;vector-effect:none;fill:#000000;fill-rule:evenodd;stroke-width:0.0437594;stroke-linejoin:round;enable-background:accumulate;stop-color:#000000"
           d="m 62.851487,36.724876 c -0.37015,-0.01959 -0.694541,0.06853 -1.13575,0.162389 -0.893891,0.190166 -2.734813,0.775549 -2.734813,0.775549 l 0.0064,-0.0021 c -0.240364,0.07233 -0.412309,0.112851 -0.603967,0.195344 -0.191651,0.0825 -0.384113,0.221714 -0.546906,0.397493 -0.198155,0.213963 -0.239253,0.386992 -0.292849,0.538503 -0.05359,0.15151 -0.08591,0.280428 -0.08591,0.280428 -0.0064,0.02573 -0.01139,0.05192 -0.01452,0.07837 l -0.02861,0.243938 c -0.04014,0.34294 0.210026,0.645902 0.533448,0.645937 h 1.608578 c 0.0014,4e-6 0.0021,4e-6 0.0036,0 0,0 0.3411,0.0091 0.555674,0.07625 0.339214,0.106118 0.710545,0.364672 0.847697,0.544244 0.137863,0.180506 0.2965,0.447062 0.362535,0.737292 0.167718,0.737039 0.155698,1.851766 0.23613,2.681201 0.0269,0.27716 0.07438,0.905938 0.184712,1.495172 l 3.38318,-1.647489 -0.0363,-3.453834 c 0,-0.01777 -0.0014,-0.03552 -0.0028,-0.05319 0,0 -0.04384,-0.45136 -0.14345,-0.994128 -0.09957,-0.542771 -0.22643,-1.167894 -0.528887,-1.667458 -0.243694,-0.402523 -0.608898,-0.835409 -1.175595,-0.974515 -0.139579,-0.03426 -0.268091,-0.05276 -0.391464,-0.05928 z m 10.95041,5.538395 c -0.246427,0.0065 -0.425944,0.07339 -0.589584,0.128905 -0.163618,0.05552 -0.293909,0.110528 -0.293909,0.110528 -0.02235,0.0094 -0.04405,0.02043 -0.06498,0.03296 l -4.106934,2.453872 c -0.0085,0.0051 -0.0168,0.01036 -0.02498,0.01591 0,0 -1.167881,0.775347 -1.696554,1.016484 -0.312,0.142312 -0.733318,0.15781 -0.916401,0.04921 -0.102529,-0.06083 -0.433957,-0.427755 -0.600985,-0.747188 -0.12933,-0.247368 -0.217057,-0.47424 -0.274894,-0.65115 l -3.317109,1.615328 c 0.288942,1.064315 0.647677,1.928271 0.647677,1.928271 0.0014,0.0033 0.0028,0.0065 0.0043,0.0097 l 1.887272,4.344152 c 0.03459,0.101937 0.06832,0.202822 0.09087,0.286964 0.179068,0.66883 0.332346,1.299233 0.255472,1.811116 -0.03181,0.211719 -0.24336,0.72486 -0.454318,1.122947 -0.206638,0.389901 -0.39503,0.685649 -0.402887,0.697976 -0.02107,0.02729 -0.263478,0.340991 -0.568163,0.780762 -0.317593,0.458385 -0.678328,1.004137 -0.886888,1.500648 -0.12511,0.297853 -0.25533,0.664067 -0.241752,1.097589 0.0085,0.273663 0.06604,0.512635 0.138988,0.711584 0.07292,0.198948 0.153249,0.376898 0.266041,0.713967 0.228906,0.683944 0.443885,1.123776 0.67598,1.854408 0.146695,0.461752 0.326119,1.359911 0.402054,1.759428 0.0659,0.346486 0.190142,0.762965 0.2459,1.06207 7.12e-4,0.01224 0.0021,0.02431 0.0036,0.03622 0.0043,0.04082 0.01402,0.09164 0.02064,0.13738 0.0014,0.0137 0.0028,0.02817 0.0071,0.04622 0.02327,0.148968 0.05273,0.307832 0.09276,0.457574 0.0284,0.106397 0.05964,0.20412 0.09756,0.287231 0.03786,0.0831 0.0654,0.173576 0.195856,0.21107 0.114962,0.03303 0.237959,-0.0046 0.313687,-0.06184 0.07573,-0.05724 0.125246,-0.119653 0.18768,-0.177324 0.229547,-0.21209 0.486329,-0.547753 0.668529,-0.855068 0.0075,-0.01287 0.01516,-0.02566 0.02249,-0.03843 v 0 c 0.04021,-0.07137 0.0654,-0.151234 0.07384,-0.234044 0,0 0.08133,-0.528958 -0.136184,-1.075853 -0.19686,-0.49493 -0.405903,-1.189542 -0.642161,-1.930299 -0.475177,-1.489823 -0.889422,-2.753378 -0.989802,-3.060052 l 2.93563,-2.969757 c 0.02064,-0.0152 0.33061,-0.243417 0.337243,-0.246588 0.06583,-0.03152 0.151683,-0.05547 0.244392,-0.06635 7.11e-4,-2.4e-5 7.11e-4,-3e-6 7.11e-4,0 v 0 0 0 c 0,2e-6 0,2.2e-5 7.12e-4,0 0.06149,0.02556 0.10865,0.05878 0.111695,0.06264 0.03366,0.04259 0.101341,0.239551 0.152446,0.480543 0.07102,0.334951 0.07994,0.754562 0.08418,1.547652 0.0064,1.191323 -0.0093,2.185117 -0.01018,2.892537 -0.0014,1.32856 0.0338,3.62196 -0.31153,5.009434 -0.02441,0.09805 -0.04846,0.191758 -0.07201,0.281225 -0.159,0.379921 -0.326504,0.776169 -0.450425,1.059153 -0.06811,0.155581 -0.268924,0.480577 -0.380562,0.723072 -0.04299,0.09335 -0.07182,0.134724 -0.09739,0.204613 -0.01281,0.03495 -0.0232,0.08526 -0.01758,0.134306 0.0057,0.04902 0.02263,0.0868 0.03921,0.118563 0.06668,0.128004 0.191502,0.172312 0.28589,0.188463 0.09442,0.01613 0.181317,0.01398 0.235396,0.01996 0.308613,0.03417 0.736785,0.0028 1.115894,-0.03641 0.163092,-0.0059 0.315893,-0.09079 0.413968,-0.232368 0,0 0.08556,-0.132238 0.150054,-0.298524 0.06455,-0.166321 0.132141,-0.401614 0.171653,-0.710798 0.270752,-2.118642 0.508511,-6.036283 0.974679,-8.95238 0.135657,-0.848596 0.433239,-2.18505 0.538984,-2.550175 0.09032,-0.311887 0.147386,-0.642298 0.1842,-0.907369 0.527997,-0.03027 1.418109,-0.107549 2.277783,-0.33176 0.645578,-0.168376 1.28964,-0.388449 1.862059,-0.496623 0.301424,-0.05696 0.424926,-0.05903 0.50037,-0.02182 0.110528,0.05452 0.09505,0.04503 0.133458,0.09304 0.03836,0.04801 0.123858,0.189056 0.272745,0.447057 0.321102,0.556491 0.738848,1.416228 1.137806,2.326558 0.504839,1.15194 0.90147,2.352873 0.794116,3.229686 0.0036,-0.0275 -0.116279,0.384423 -0.385202,0.85586 -0.268909,0.471437 -0.680848,1.072391 -1.252405,1.717822 -1.229042,1.387923 -3.117104,2.704168 -3.117104,2.704168 -0.375303,0.259525 -0.307545,0.866672 0.114336,1.024608 l 0.492015,0.184036 c 0.08809,0.03296 0.182691,0.04084 0.274502,0.02288 0,0 0.256967,-0.06343 0.589236,-0.25719 0.332261,-0.193753 0.805716,-0.530608 1.439245,-1.122416 1.34416,-1.255622 3.234115,-3.332238 4.013528,-4.249083 0.296757,-0.349115 0.393308,-0.816098 0.360379,-1.204584 -0.03295,-0.388488 -0.154808,-0.728633 -0.27167,-1.053325 -0.233746,-0.649384 -0.42583,-1.206362 -0.314839,-1.627521 0.08479,-0.321772 0.157213,-0.616243 0.277292,-1.091495 0.279256,0.4638 0.596152,0.982089 0.866456,1.394099 0.687266,1.047524 1.394446,2.13444 1.491104,2.892801 0.172962,1.357177 -0.08691,3.977133 -0.606785,5.533716 -0.302912,0.90701 -0.892823,1.419012 -0.892823,1.419012 -0.411035,0.353002 -0.150339,1.061554 0.375608,1.020892 0,0 0.184541,-0.01419 0.410992,-0.04912 0.22643,-0.03492 0.486699,-0.07496 0.752605,-0.202323 0.254156,-0.121737 0.363837,-0.302347 0.467626,-0.48293 0.103789,-0.180565 0.18874,-0.382852 0.270603,-0.611216 0.163746,-0.456724 0.309893,-1.017248 0.442988,-1.617801 0.266176,-1.201106 0.47374,-2.550275 0.568747,-3.403295 0.116755,-1.048469 0.153434,-1.682841 0.15394,-2.102763 7.11e-4,-0.419919 -0.04726,-0.66804 -0.06533,-0.75991 -0.100131,-0.509399 -0.345996,-0.89343 -0.549888,-1.221016 -0.203891,-0.327586 -0.367225,-0.602177 -0.427695,-0.844021 -0.115033,-0.460175 -0.16835,-1.345325 -0.174535,-2.07564 -0.0064,-0.730316 0.02256,-1.319353 0.02256,-1.319353 7.12e-4,-0.01741 7.12e-4,-0.03487 7.12e-4,-0.0523 0,0 -0.08585,-2.723647 -0.377666,-4.192981 -0.162216,-0.81675 -0.294585,-1.794175 -0.845633,-2.637908 -0.249993,-0.382787 -0.606215,-0.659438 -0.918556,-0.897297 -0.2772,-0.211114 -0.517329,-0.367627 -0.568569,-0.400674 l -0.01324,-0.0087 c 0,0 0.0028,0.0019 0.0088,0.0056 -1.806925,-1.2284 -3.671987,-2.655291 -5.496825,-3.551727 -0.01694,-0.0083 -0.0343,-0.01569 -0.05202,-0.02209 0,0 -0.111738,-0.04061 -0.251437,-0.08005 -0.139678,-0.03943 -0.290423,-0.08949 -0.51523,-0.08358 z" /></g></g></g></svg>
