<?xml version="1.0" encoding="UTF-8" standalone="no"?>
<!-- Created with Inkscape (http://www.inkscape.org/) -->

<svg
   width="47.426121mm"
   height="41.891621mm"
   viewBox="0 0 47.426121 41.891621"
   version="1.1"
   id="svg1"
   xml:space="preserve"
   inkscape:version="1.3.2 (091e20e, 2023-11-25, custom)"
   sodipodi:docname="SA road sign - Danger.svg"
   xmlns:inkscape="http://www.inkscape.org/namespaces/inkscape"
   xmlns:sodipodi="http://sodipodi.sourceforge.net/DTD/sodipodi-0.dtd"
   xmlns="http://www.w3.org/2000/svg"
   xmlns:svg="http://www.w3.org/2000/svg"><sodipodi:namedview
     id="namedview1"
     pagecolor="#ffffff"
     bordercolor="#000000"
     borderopacity="0.25"
     inkscape:showpageshadow="2"
     inkscape:pageopacity="0.0"
     inkscape:pagecheckerboard="0"
     inkscape:deskcolor="#d1d1d1"
     inkscape:document-units="mm"
     inkscape:zoom="4.0063432"
     inkscape:cx="111.44827"
     inkscape:cy="75.754868"
     inkscape:window-width="1920"
     inkscape:window-height="1051"
     inkscape:window-x="-9"
     inkscape:window-y="-9"
     inkscape:window-maximized="1"
     inkscape:current-layer="g1"
     showgrid="false"
     showguides="true" /><defs
     id="defs1" /><g
     inkscape:label="Layer 1"
     inkscape:groupmode="layer"
     id="layer1"
     transform="translate(-127.2733,-115.32548)"><g
       id="g9057"
       transform="matrix(2.1125124,0,0,2.1125124,-33.660916,25.665494)"><g
         id="g1"
         transform="translate(23.327131,2.0353439)"><path
           style="fill:#c50000;fill-opacity:1;stroke:none;stroke-width:0.0313115;stroke-dasharray:none;stroke-opacity:1"
           id="path7446-3"
           fill="#ec1d24"
           d="m 54.356591,60.221586 c -0.534546,0 -1.024599,-0.281539 -1.288025,-0.741266 -0.264822,-0.459118 -0.264822,-1.026003 0,-1.48648 l 9.722381,-16.831825 c 0.266235,-0.459074 0.753242,-0.73935 1.282197,-0.73935 0.0018,0 0.0035,-9e-6 0.0062,0 0.0018,-9e-6 0.0035,0 0.0062,0 0.528973,0 1.015962,0.280276 1.282197,0.73935 l 9.722452,16.831825 c 0.264795,0.460477 0.264795,1.027362 0,1.48648 -0.263427,0.459727 -0.75348,0.741266 -1.288043,0.741266 z"
           clip-rule="evenodd"
           fill-rule="evenodd" /><path
           id="path7448-9"
           fill="#ffffff"
           d="M 55.214728,57.995029 H 72.943973 L 64.079351,42.649216 Z"
           clip-rule="evenodd"
           fill-rule="evenodd"
           style="fill:#ffffff;fill-opacity:1;stroke-width:0.0622609" /><path
           id="path3685"
           style="fill:#000000;stroke:none;stroke-width:0.110108;stroke-linecap:round;stroke-linejoin:round;stroke-miterlimit:10;stroke-dasharray:none;stroke-opacity:1"
           d="m 63.895671,45.960602 -0.195762,0.01215 -0.195501,0.07342 -0.171268,0.09791 -0.134624,0.146773 -0.110063,0.171268 -0.0614,0.183548 -0.0245,0.207977 0.893115,8.025685 0.89331,-8.025685 -0.02449,-0.207977 -0.06134,-0.183548 -0.110127,-0.171268 -0.146774,-0.146773 -0.158857,-0.09791 -0.195959,-0.07342 z m 0,9.811914 -0.134557,0.02449 -0.134624,0.06094 -0.09765,0.09811 -0.06133,0.134559 -0.02449,0.134558 0.02449,0.134362 0.06133,0.122344 0.09765,0.09811 0.134624,0.07316 0.134557,0.01241 0.134561,-0.01241 0.122343,-0.07316 0.09791,-0.09811 0.07335,-0.122344 0.01235,-0.134362 -0.01235,-0.134558 -0.07335,-0.134559 -0.09791,-0.09811 -0.122343,-0.06094 z" /></g></g></g></svg>
