<?xml version="1.0" encoding="UTF-8" standalone="no"?>
<!-- Created with Inkscape (http://www.inkscape.org/) -->

<svg
   width="47.426121mm"
   height="41.891621mm"
   viewBox="0 0 47.426121 41.891621"
   version="1.1"
   id="svg1"
   xml:space="preserve"
   inkscape:version="1.4.2 (f4327f4, 2025-05-13)"
   sodipodi:docname="SA_road_sign_-_Crosswind.svg"
   xmlns:inkscape="http://www.inkscape.org/namespaces/inkscape"
   xmlns:sodipodi="http://sodipodi.sourceforge.net/DTD/sodipodi-0.dtd"
   xmlns="http://www.w3.org/2000/svg"
   xmlns:svg="http://www.w3.org/2000/svg"><sodipodi:namedview
     id="namedview1"
     pagecolor="#ffffff"
     bordercolor="#000000"
     borderopacity="0.25"
     inkscape:showpageshadow="2"
     inkscape:pageopacity="0.0"
     inkscape:pagecheckerboard="0"
     inkscape:deskcolor="#d1d1d1"
     inkscape:document-units="mm"
     inkscape:zoom="2.0031716"
     inkscape:cx="34.694981"
     inkscape:cy="98.59365"
     inkscape:window-width="1920"
     inkscape:window-height="991"
     inkscape:window-x="-9"
     inkscape:window-y="-9"
     inkscape:window-maximized="1"
     inkscape:current-layer="g2"
     showgrid="false"
     showguides="true" /><defs
     id="defs1" /><g
     inkscape:label="Layer 1"
     inkscape:groupmode="layer"
     id="layer1"
     transform="translate(-127.2733,-115.32548)"><g
       id="g9057"
       transform="matrix(2.1125124,0,0,2.1125124,-33.660916,25.665494)"><g
         id="g1"
         transform="translate(23.327131,2.0353439)"><path
           style="fill:#c50000;fill-opacity:1;stroke:none;stroke-width:0.0313115;stroke-dasharray:none;stroke-opacity:1"
           id="path7446-3"
           fill="#ec1d24"
           d="m 54.356591,60.221586 c -0.534546,0 -1.024599,-0.281539 -1.288025,-0.741266 -0.264822,-0.459118 -0.264822,-1.026003 0,-1.48648 l 9.722381,-16.831825 c 0.266235,-0.459074 0.753242,-0.73935 1.282197,-0.73935 0.0018,0 0.0035,-9e-6 0.0062,0 0.0018,-9e-6 0.0035,0 0.0062,0 0.528973,0 1.015962,0.280276 1.282197,0.73935 l 9.722452,16.831825 c 0.264795,0.460477 0.264795,1.027362 0,1.48648 -0.263427,0.459727 -0.75348,0.741266 -1.288043,0.741266 z"
           clip-rule="evenodd"
           fill-rule="evenodd" /><path
           id="path7448-9"
           fill="#ffffff"
           d="M 55.214376,58.240637 H 72.943621 L 64.078999,42.894824 Z"
           clip-rule="evenodd"
           fill-rule="evenodd"
           style="fill:#ffffff;fill-opacity:1;stroke-width:0.0622609" /><g
           id="g2"
           transform="matrix(0.10330273,0,0,0.10330273,11.316291,24.071054)"><path
             id="path25"
             style="opacity:1;fill:#000000;fill-rule:evenodd;stroke:none;stroke-width:33.8522;stroke-linecap:round;stroke-linejoin:round;stroke-dasharray:none;stroke-opacity:1;paint-order:stroke fill markers"
             d="m 480.81243,251.28634 v 7.5e-4 c -1.00049,0.0481 -1.88183,0.4326 -2.42903,0.80761 -0.72961,0.50002 -1.09665,0.97434 -1.38997,1.37925 -0.36047,0.49743 -0.60428,0.93441 -0.80579,1.35877 l -14.95805,20.82049 v 0.007 h -2.51628 c -0.41386,0 -0.74708,0.33322 -0.74708,0.74705 v 48.10363 c 0,0.41384 0.33322,0.74705 0.74708,0.74705 h 4.39241 c 0.41381,0 0.74703,-0.33321 0.74703,-0.74705 V 283.2837 l 12.95459,13.94206 v 7.5e-4 c 0.39507,0.55374 0.86605,1.11428 1.54041,1.67665 0.88994,0.74209 2.44339,1.66042 4.4396,1.3098 l 70.60701,-12.4015 c 4.2459,-0.74577 6.12335,-4.98834 6.12335,-8.92104 v -4.01843 c 0,-3.94129 -1.93316,-8.06911 -6.01207,-8.90055 l -71.66212,-14.60721 c -0.3514,-0.0717 -0.69793,-0.0934 -1.03109,-0.0774 z m 4.90261,3.27583 8.64145,1.755 c 0.8429,1.52097 1.97064,3.70658 2.39074,5.20179 1.29532,4.60994 1.45297,9.55568 1.37839,14.37035 -0.0721,4.64552 -0.62252,9.32637 -1.7586,13.8094 -0.45713,1.80368 -1.64531,4.65121 -2.38805,6.35221 l -8.26393,1.41842 c 0,0 1.79424,-5.11517 2.36224,-7.77063 0.96849,-4.52819 1.68657,-9.16388 1.7586,-13.8094 0.0747,-4.81467 -0.2621,-9.70668 -1.37839,-14.37035 -0.58381,-2.43908 -2.74245,-6.95679 -2.74245,-6.95679 z m 22.41702,4.55268 8.31021,1.68821 c 0.0962,0.25163 0.18062,0.49155 0.24932,0.7159 1.40966,4.60115 2.06483,9.52683 2.01144,14.37035 -0.0515,4.6727 -0.85338,9.38211 -2.24563,13.8094 -0.24277,0.77209 -0.64308,1.7189 -1.09341,2.68281 l -8.17668,1.40329 c 0.64851,-1.40526 1.10481,-2.63554 1.44691,-4.02644 1.11132,-4.51919 1.85402,-9.22354 1.926,-13.86906 0.0745,-4.81467 -0.38523,-8.72128 -1.24038,-12.96885 -0.26323,-1.3076 -0.74078,-2.95147 -1.18778,-3.80561 z m 19.06193,3.93472 7.17673,1.41575 c 1.7008,2.87094 2.17009,7.54058 2.13075,11.42399 -0.0462,4.5549 -1.09396,10.01409 -2.77008,13.33748 l -7.35749,1.26616 c 0.0872,-0.28054 0.16266,-0.54722 0.2253,-0.79424 1.13612,-4.48303 2.11734,-9.06859 2.22958,-13.70432 0.1055,-4.35518 -0.6885,-8.77183 -1.63479,-12.94482 z m -53.5013,0.10154 c -0.5741,2.64872 -1.0252,5.36771 -1.23145,7.62816 -0.52966,5.80497 -0.73936,12.27558 0.91,18.55797 l -9.51849,-10.24331 v -2.24561 z m 72.02274,3.59727 4.98544,1.01151 c 1.23008,0 2.22069,4.13905 2.22069,9.27987 0,5.14081 -1.00602,9.07146 -2.22069,9.27987 l -5.93638,1.01864 c 0.86569,-3.76244 1.5741,-7.58979 1.63569,-11.44893 0.0487,-3.04909 -0.18842,-6.1218 -0.68475,-9.14096 z" /></g></g></g></g></svg>
