<?xml version="1.0" encoding="UTF-8" standalone="no"?>
<!-- Created with Inkscape (http://www.inkscape.org/) -->

<svg
   width="47.426121mm"
   height="41.891621mm"
   viewBox="0 0 47.426121 41.891621"
   version="1.1"
   id="svg1"
   xml:space="preserve"
   inkscape:version="1.4.2 (f4327f4, 2025-05-13)"
   sodipodi:docname="SA_road_sign_-_Crosswind.svg"
   xmlns:inkscape="http://www.inkscape.org/namespaces/inkscape"
   xmlns:sodipodi="http://sodipodi.sourceforge.net/DTD/sodipodi-0.dtd"
   xmlns="http://www.w3.org/2000/svg"
   xmlns:svg="http://www.w3.org/2000/svg"><sodipodi:namedview
     id="namedview1"
     pagecolor="#ffffff"
     bordercolor="#000000"
     borderopacity="0.25"
     inkscape:showpageshadow="2"
     inkscape:pageopacity="0.0"
     inkscape:pagecheckerboard="0"
     inkscape:deskcolor="#d1d1d1"
     inkscape:document-units="mm"
     inkscape:zoom="11.33165"
     inkscape:cx="110.61937"
     inkscape:cy="114.06106"
     inkscape:window-width="1920"
     inkscape:window-height="991"
     inkscape:window-x="-9"
     inkscape:window-y="-9"
     inkscape:window-maximized="1"
     inkscape:current-layer="g2"
     showgrid="false"
     showguides="true" /><defs
     id="defs1" /><g
     inkscape:label="Layer 1"
     inkscape:groupmode="layer"
     id="layer1"
     transform="translate(-127.2733,-115.32548)"><g
       id="g9057"
       transform="matrix(2.1125124,0,0,2.1125124,-33.660916,25.665494)"><g
         id="g1"
         transform="translate(23.327131,2.0353439)"><path
           style="fill:#c50000;fill-opacity:1;stroke:none;stroke-width:0.0313115;stroke-dasharray:none;stroke-opacity:1"
           id="path7446-3"
           fill="#ec1d24"
           d="m 54.356591,60.221586 c -0.534546,0 -1.024599,-0.281539 -1.288025,-0.741266 -0.264822,-0.459118 -0.264822,-1.026003 0,-1.48648 l 9.722381,-16.831825 c 0.266235,-0.459074 0.753242,-0.73935 1.282197,-0.73935 0.0018,0 0.0035,-9e-6 0.0062,0 0.0018,-9e-6 0.0035,0 0.0062,0 0.528973,0 1.015962,0.280276 1.282197,0.73935 l 9.722452,16.831825 c 0.264795,0.460477 0.264795,1.027362 0,1.48648 -0.263427,0.459727 -0.75348,0.741266 -1.288043,0.741266 z"
           clip-rule="evenodd"
           fill-rule="evenodd" /><path
           id="path7448-9"
           fill="#ffffff"
           d="M 55.214376,58.240637 H 72.943621 L 64.078999,42.894824 Z"
           clip-rule="evenodd"
           fill-rule="evenodd"
           style="fill:#ffffff;fill-opacity:1;stroke-width:0.0622609" /><g
           id="g2"
           transform="matrix(0.10330273,0,0,0.10330273,11.316291,24.071054)"><path
             id="path22"
             style="opacity:1;fill:#000000;fill-rule:evenodd;stroke-width:0.176698;stroke-linecap:round;stroke-linejoin:round;stroke-dasharray:1.06019, 0.353396, 0.353396, 0.353396, 0.353396, 0.176698;paint-order:stroke fill markers"
             d="m 503.94028,248.37813 c -3.18102,-0.31957 -6.60557,1.98106 -7.48812,5.06912 l -3.56858,12.48682 v 0 c -2.58351,0.51114 -4.63111,2.65235 -4.90866,5.41517 l -1.09322,10.88226 -1.06133,-0.10661 c -0.49595,-0.0498 -0.93534,0.30934 -0.98516,0.80528 l -0.44667,4.44643 c -0.0498,0.49597 0.30933,0.93531 0.80529,0.98516 l 1.80585,0.18139 0.3796,0.0381 -0.83034,8.26549 c -0.12455,1.23988 0.77335,2.33834 2.01325,2.46289 l 4.83089,0.48532 c 1.23989,0.12456 2.33835,-0.77335 2.4629,-2.01326 l 0.83034,-8.26546 36.25048,3.64165 -0.83035,8.26546 c -0.12453,1.23992 0.77336,2.33837 2.01327,2.46293 l 4.8309,0.48528 c 1.23988,0.12459 2.33834,-0.77333 2.4629,-2.01323 l 0.83032,-8.26547 0.37961,0.0382 1.80584,0.18138 c 0.49597,0.0498 0.93535,-0.30931 0.98517,-0.80528 l 0.44669,-4.44642 c 0.0498,-0.49595 -0.30935,-0.93535 -0.80529,-0.98514 l -1.06135,-0.10666 1.09321,-10.88223 c 0.27756,-2.76285 -1.30319,-5.26855 -3.73345,-6.28334 v 0 l -1.01346,-12.94712 c -0.25072,-3.20193 -3.14919,-6.13772 -6.33022,-6.4573 l -14.42264,-1.44886 -0.3294,-0.0331 z m -0.95752,3.35008 15.93263,1.60057 0.32942,0.0331 15.03741,1.51065 c 1.3317,0.13377 2.48744,1.3092 2.59125,2.63541 l 0.99247,12.67708 -20.17309,-2.02656 -0.19968,-0.02 -3.6026,-0.36192 c 0.25873,-2.57545 -1.60641,-4.85719 -4.18188,-5.1159 l -2.09731,-0.21071 a 3.8859441,3.8859441 0 0 0 4.25469,-3.47804 3.8859441,3.8859441 0 0 0 -3.4782,-4.25488 3.8859441,3.8859441 0 0 0 -4.25487,3.47803 3.8859441,3.8859441 0 0 0 3.47803,4.25489 l -2.09748,-0.21072 c -2.57547,-0.25874 -4.85721,1.6064 -5.11594,4.18185 l -3.97274,-0.39909 3.4942,-12.22637 c 0.36555,-1.27903 1.73199,-2.20108 3.06369,-2.06731 z" /><path
             id="rect22"
             style="opacity:1;fill:#000000;fill-opacity:1;fill-rule:evenodd;stroke:none;stroke-width:3.27482;stroke-linecap:round;stroke-linejoin:round;stroke-dasharray:none;stroke-opacity:1;paint-order:stroke fill markers"
             d="m 464.33923,299.42658 v 11.21645 h 43.67931 10.82134 48.2319 l -14.54898,-6.41254 h -33.68292 v -4.80391 z"
             sodipodi:nodetypes="ccccccccc" /></g></g></g></g></svg>
