<?xml version="1.0" encoding="UTF-8" standalone="no"?>
<!-- Created with Inkscape (http://www.inkscape.org/) -->

<svg
   width="47.426121mm"
   height="41.891621mm"
   viewBox="0 0 47.426121 41.891621"
   version="1.1"
   id="svg1"
   xml:space="preserve"
   inkscape:version="1.4.2 (f4327f4, 2025-05-13)"
   sodipodi:docname="SA_road_sign_-_Minimum_speed_limit_(35).svg"
   xmlns:inkscape="http://www.inkscape.org/namespaces/inkscape"
   xmlns:sodipodi="http://sodipodi.sourceforge.net/DTD/sodipodi-0.dtd"
   xmlns="http://www.w3.org/2000/svg"
   xmlns:svg="http://www.w3.org/2000/svg"><sodipodi:namedview
     id="namedview1"
     pagecolor="#ffffff"
     bordercolor="#000000"
     borderopacity="0.25"
     inkscape:showpageshadow="2"
     inkscape:pageopacity="0.0"
     inkscape:pagecheckerboard="0"
     inkscape:deskcolor="#d1d1d1"
     inkscape:document-units="mm"
     inkscape:zoom="2.0031716"
     inkscape:cx="125.3013"
     inkscape:cy="222.39733"
     inkscape:window-width="1920"
     inkscape:window-height="991"
     inkscape:window-x="-9"
     inkscape:window-y="-9"
     inkscape:window-maximized="1"
     inkscape:current-layer="g1"
     showgrid="false"
     showguides="true" /><defs
     id="defs1" /><g
     inkscape:label="Layer 1"
     inkscape:groupmode="layer"
     id="layer1"
     transform="translate(-127.2733,-115.32548)"><g
       id="g9057"
       transform="matrix(2.1125124,0,0,2.1125124,-33.660916,25.665494)"><g
         id="g1"
         transform="translate(23.327131,2.0353439)"><g
           id="g48862"
           transform="matrix(0.88312229,0,0,0.88312229,-152.19546,-140.88205)"><path
             style="opacity:1;stroke:none;stroke-width:0.0354554;stroke-dasharray:none;stroke-opacity:1;fill:#c50000;fill-opacity:1"
             id="path7446-3"
             fill="#ec1d24"
             d="m 233.88839,227.7189 c -0.60529,0 -1.1602,-0.3188 -1.45849,-0.83937 -0.29987,-0.51988 -0.29987,-1.16179 0,-1.68321 l 11.0091,-19.05945 c 0.30147,-0.51983 0.85293,-0.8372 1.45189,-0.8372 0.002,0 0.004,-1e-5 0.007,0 0.002,-1e-5 0.004,0 0.007,0 0.59898,0 1.15042,0.31737 1.45189,0.8372 l 11.00918,19.05945 c 0.29984,0.52142 0.29984,1.16333 0,1.68321 -0.29829,0.52057 -0.8532,0.83937 -1.45851,0.83937 z"
             clip-rule="evenodd"
             fill-rule="evenodd" /><path
             id="path7448-9"
             fill="#ffffff"
             d="m 234.8597,225.47578 h 20.07564 l -10.03782,-17.37677 z"
             clip-rule="evenodd"
             fill-rule="evenodd"
             style="opacity:1;fill:#ffffff;fill-opacity:1;stroke-width:0.0705009" /><path
             id="rect31015"
             style="opacity:1;fill:#000000;stroke:none;stroke-width:0.601567;stroke-linecap:round;stroke-linejoin:round;stroke-opacity:1;paint-order:stroke fill markers"
             d="m 245.64357,212.50977 -1.58388,1.90531 v 3.61425 a 3.1115833,4.3182645 82.060323 0 1 2.34146,2.3182 3.1115833,4.3182645 82.060323 0 1 -2.34146,3.25872 v 1.11052 h 3.16725 v -10.30169 z" /><path
             id="rect31879"
             style="opacity:1;fill:#000000;stroke:none;stroke-width:0.119434;stroke-linecap:round;stroke-linejoin:round;stroke-opacity:1;paint-order:stroke fill markers"
             d="m 239.96337,217.94553 v 0.48637 l 0.45873,0.11607 0.2432,-0.30397 -0.39242,-0.51956 z"
             sodipodi:nodetypes="cccccc" /><path
             id="path31891"
             style="opacity:1;fill:#000000;stroke:none;stroke-width:0.0977258;stroke-linecap:round;stroke-linejoin:round;stroke-opacity:1;paint-order:stroke fill markers"
             d="m 241.18848,218.42304 -0.38441,0.10301 0.005,0.38714 0.29174,0.12784 0.32754,-0.42018 z"
             sodipodi:nodetypes="cccccc" /><path
             id="path31893"
             style="opacity:1;fill:#000000;stroke:none;stroke-width:0.141143;stroke-linecap:round;stroke-linejoin:round;stroke-opacity:1;paint-order:stroke fill markers"
             d="m 240.76938,221.45969 -0.33259,-0.0742 -0.2226,0.22291 -0.14376,0.25922 0.15159,0.29992 0.42136,0.18464 0.36055,-0.23188 0.1125,-0.37498 z"
             sodipodi:nodetypes="ccccccccc" /><path
             id="path31895"
             style="opacity:1;fill:#000000;stroke:none;stroke-width:0.0934685;stroke-linecap:round;stroke-linejoin:round;stroke-opacity:1;paint-order:stroke fill markers"
             d="m 241.77407,220.43059 -0.22025,-0.0491 -0.14741,0.14761 -0.0952,0.17167 0.10039,0.19861 0.27904,0.12227 0.31326,-0.40187 z"
             sodipodi:nodetypes="cccccccc" /><path
             id="path31897"
             style="opacity:1;fill:#000000;stroke:none;stroke-width:0.0780676;stroke-linecap:round;stroke-linejoin:round;stroke-opacity:1;paint-order:stroke fill markers"
             d="m 242.68538,221.19799 -0.18396,-0.041 -0.12312,0.12329 -0.0795,0.14338 0.0839,0.16588 0.23306,0.10213 0.26165,-0.33566 z"
             sodipodi:nodetypes="cccccccc" /><path
             id="path31899"
             style="opacity:1;fill:#000000;stroke:none;stroke-width:0.0680357;stroke-linecap:round;stroke-linejoin:round;stroke-opacity:1;paint-order:stroke fill markers"
             d="m 243.86345,219.04103 -0.26762,0.0717 0.004,0.26952 0.20311,0.089 0.19156,-0.0891 0.0365,-0.2034 z"
             sodipodi:nodetypes="ccccccc" /><path
             id="path31901"
             style="opacity:1;fill:#000000;stroke:none;stroke-width:0.0680357;stroke-linecap:round;stroke-linejoin:round;stroke-opacity:1;paint-order:stroke fill markers"
             d="m 244.00982,218.40957 -0.23994,-0.13853 -0.18792,0.19326 0.0807,0.20655 0.19847,0.0724 0.16962,-0.11804 z"
             sodipodi:nodetypes="ccccccc" /><path
             id="path31903"
             style="opacity:1;fill:#000000;stroke:none;stroke-width:0.0642137;stroke-linecap:round;stroke-linejoin:round;stroke-opacity:1;paint-order:stroke fill markers"
             d="m 245.51629,219.11197 -0.15132,-0.0337 -0.10127,0.10141 -0.0654,0.11793 0.069,0.13645 0.18016,-0.0314 0.0495,-0.10446 z"
             sodipodi:nodetypes="cccccccc" /><path
             id="path31905"
             style="opacity:1;fill:#000000;stroke:none;stroke-width:0.0642137;stroke-linecap:round;stroke-linejoin:round;stroke-opacity:1;paint-order:stroke fill markers"
             d="m 244.83876,218.77701 -0.15132,-0.0337 -0.10127,0.10141 -0.0654,0.11794 0.069,0.13645 0.18016,-0.0314 0.0495,-0.10446 z"
             sodipodi:nodetypes="cccccccc" /><path
             id="path31907"
             style="opacity:1;fill:#000000;stroke:none;stroke-width:0.0642137;stroke-linecap:round;stroke-linejoin:round;stroke-opacity:1;paint-order:stroke fill markers"
             d="m 242.8633,217.94897 -0.15131,-0.0337 -0.10127,0.10141 -0.0654,0.11793 0.069,0.13645 0.18016,-0.0314 0.0495,-0.10446 z"
             sodipodi:nodetypes="cccccccc" /><path
             id="path31909"
             style="opacity:1;fill:#000000;stroke:none;stroke-width:0.0642137;stroke-linecap:round;stroke-linejoin:round;stroke-opacity:1;paint-order:stroke fill markers"
             d="m 244.8959,220.92848 -0.15132,-0.0337 -0.10127,0.10142 -0.0654,0.11793 0.069,0.13645 0.18016,-0.0314 0.0495,-0.10446 z"
             sodipodi:nodetypes="cccccccc" /><path
             id="path31911"
             style="opacity:1;fill:#000000;stroke:none;stroke-width:0.0642137;stroke-linecap:round;stroke-linejoin:round;stroke-opacity:1;paint-order:stroke fill markers"
             d="m 242.65923,222.20806 -0.15131,-0.0337 -0.10128,0.10141 -0.0654,0.11794 0.069,0.13645 0.18016,-0.0314 0.0495,-0.10445 z"
             sodipodi:nodetypes="cccccccc" /><path
             id="path31913"
             style="opacity:1;fill:#000000;stroke:none;stroke-width:0.0642137;stroke-linecap:round;stroke-linejoin:round;stroke-opacity:1;paint-order:stroke fill markers"
             d="m 241.27543,223.88147 -0.15132,-0.0337 -0.10127,0.10141 -0.0654,0.11794 0.069,0.13645 0.18016,-0.0314 0.0495,-0.10445 z"
             sodipodi:nodetypes="cccccccc" /><path
             id="path31915"
             style="opacity:1;fill:#000000;stroke:none;stroke-width:0.141143;stroke-linecap:round;stroke-linejoin:round;stroke-opacity:1;paint-order:stroke fill markers"
             d="m 238.72046,223.311 -0.33259,-0.0741 -0.2226,0.22291 -0.14376,0.25922 0.15159,0.29992 0.42136,0.18464 0.36055,-0.23188 0.1125,-0.37498 z"
             sodipodi:nodetypes="ccccccccc" /><path
             id="path31917"
             style="opacity:1;fill:#000000;stroke:none;stroke-width:0.141143;stroke-linecap:round;stroke-linejoin:round;stroke-opacity:1;paint-order:stroke fill markers"
             d="m 239.5286,222.24847 -0.33259,-0.0741 -0.2226,0.22291 -0.14376,0.25922 0.15159,0.29992 0.42136,0.18464 0.36055,-0.23189 0.1125,-0.37497 z"
             sodipodi:nodetypes="ccccccccc" /><path
             id="path31919"
             style="opacity:1;fill:#000000;stroke:none;stroke-width:0.141143;stroke-linecap:round;stroke-linejoin:round;stroke-opacity:1;paint-order:stroke fill markers"
             d="m 241.20438,219.30206 -0.33259,-0.0741 -0.2226,0.22291 -0.14377,0.25921 0.1516,0.29992 0.42136,0.18464 0.36055,-0.23188 0.1125,-0.37498 z"
             sodipodi:nodetypes="ccccccccc" /><path
             id="path31921"
             style="opacity:1;fill:#000000;stroke:none;stroke-width:0.141143;stroke-linecap:round;stroke-linejoin:round;stroke-opacity:1;paint-order:stroke fill markers"
             d="m 244.45326,222.34432 -0.33259,-0.0741 -0.2226,0.22291 -0.14376,0.25921 0.15159,0.29992 0.42136,0.18464 0.36055,-0.23188 0.1125,-0.37498 z"
             sodipodi:nodetypes="ccccccccc" /><path
             id="path31923"
             style="opacity:1;fill:#000000;stroke:none;stroke-width:0.0977258;stroke-linecap:round;stroke-linejoin:round;stroke-opacity:1;paint-order:stroke fill markers"
             d="m 242.77636,220.21891 -0.38441,0.103 0.005,0.38714 0.29175,0.12784 0.32753,-0.42018 z"
             sodipodi:nodetypes="cccccc" /><path
             id="path31925"
             style="opacity:1;fill:#000000;stroke:none;stroke-width:0.0680357;stroke-linecap:round;stroke-linejoin:round;stroke-opacity:1;paint-order:stroke fill markers"
             d="m 244.26859,219.66083 -0.26762,0.0717 0.004,0.26953 0.20311,0.089 0.19156,-0.0891 0.0365,-0.2034 z"
             sodipodi:nodetypes="ccccccc" /><path
             id="path31927"
             style="opacity:1;fill:#000000;stroke:none;stroke-width:0.0642137;stroke-linecap:round;stroke-linejoin:round;stroke-opacity:1;paint-order:stroke fill markers"
             d="m 243.16143,219.49936 -0.15132,-0.0337 -0.10127,0.10141 -0.0654,0.11793 0.069,0.13645 0.18016,-0.0314 0.0495,-0.10446 z"
             sodipodi:nodetypes="cccccccc" /><path
             id="path31929"
             style="opacity:1;fill:#000000;stroke:none;stroke-width:0.0642137;stroke-linecap:round;stroke-linejoin:round;stroke-opacity:1;paint-order:stroke fill markers"
             d="m 244.27249,221.24137 -0.15131,-0.0337 -0.10127,0.10142 -0.0654,0.11793 0.069,0.13645 0.18016,-0.0314 0.0495,-0.10446 z"
             sodipodi:nodetypes="cccccccc" /><path
             id="path31931"
             style="opacity:1;fill:#000000;stroke:none;stroke-width:0.0680357;stroke-linecap:round;stroke-linejoin:round;stroke-opacity:1;paint-order:stroke fill markers"
             d="m 240.65751,220.43704 h -0.27706 l -0.0661,0.26131 0.17316,0.13854 0.2081,-0.0365 0.0879,-0.18703 z"
             sodipodi:nodetypes="ccccccc" /><path
             id="path31933"
             style="opacity:1;fill:#000000;stroke:none;stroke-width:0.0642137;stroke-linecap:round;stroke-linejoin:round;stroke-opacity:1;paint-order:stroke fill markers"
             d="m 245.64672,219.81975 -0.11418,-0.10486 -0.13841,0.0372 -0.11561,0.0694 -0.008,0.15265 0.17174,0.0628 0.0951,-0.0657 z"
             sodipodi:nodetypes="cccccccc" /><path
             id="path31935"
             style="opacity:1;fill:#000000;stroke:none;stroke-width:0.0642137;stroke-linecap:round;stroke-linejoin:round;stroke-opacity:1;paint-order:stroke fill markers"
             d="m 243.64446,220.61552 -0.13743,-0.0717 -0.12407,0.0717 -0.0937,0.097 0.0313,0.14965 0.18215,0.0163 0.0749,-0.0881 z"
             sodipodi:nodetypes="cccccccc" /><path
             id="path31937"
             style="opacity:1;fill:#000000;stroke:none;stroke-width:0.0642137;stroke-linecap:round;stroke-linejoin:round;stroke-opacity:1;paint-order:stroke fill markers"
             d="m 245.81486,220.49384 -0.11418,-0.10485 -0.13841,0.0372 -0.1156,0.0694 -0.009,0.15265 0.17174,0.0628 0.0951,-0.0657 z"
             sodipodi:nodetypes="cccccccc" /><path
             id="path31939"
             style="opacity:1;fill:#000000;stroke:none;stroke-width:0.0642137;stroke-linecap:round;stroke-linejoin:round;stroke-opacity:1;paint-order:stroke fill markers"
             d="m 242.09932,222.49061 -0.13743,-0.0718 -0.12407,0.0718 -0.0937,0.097 0.0313,0.14965 0.18215,0.0163 0.0749,-0.0881 z"
             sodipodi:nodetypes="cccccccc" /><path
             id="path31941"
             style="opacity:1;fill:#000000;stroke:none;stroke-width:0.0934685;stroke-linecap:round;stroke-linejoin:round;stroke-opacity:1;paint-order:stroke fill markers"
             d="m 241.93569,217.96435 -0.22025,-0.0491 -0.14742,0.14761 -0.0952,0.17167 0.10039,0.19861 0.27904,0.12227 0.31326,-0.40188 z"
             sodipodi:nodetypes="cccccccc" /><path
             id="path31943"
             style="opacity:1;fill:#000000;stroke:none;stroke-width:0.0934685;stroke-linecap:round;stroke-linejoin:round;stroke-opacity:1;paint-order:stroke fill markers"
             d="m 242.99026,218.59736 -0.22025,-0.0491 -0.14742,0.14761 -0.0952,0.17167 0.10039,0.19861 0.27904,0.12227 0.31326,-0.40187 z"
             sodipodi:nodetypes="cccccccc" /><path
             id="path31945"
             style="opacity:1;fill:#000000;stroke:none;stroke-width:0.0934685;stroke-linecap:round;stroke-linejoin:round;stroke-opacity:1;paint-order:stroke fill markers"
             d="m 245.04019,221.67911 -0.22025,-0.0491 -0.14741,0.14762 -0.0952,0.17166 0.10039,0.19861 0.27903,0.12228 0.31327,-0.40188 z"
             sodipodi:nodetypes="cccccccc" /><path
             id="path31947"
             style="opacity:1;fill:#000000;stroke:none;stroke-width:0.0934685;stroke-linecap:round;stroke-linejoin:round;stroke-opacity:1;paint-order:stroke fill markers"
             d="m 243.47953,222.78736 -0.22025,-0.0491 -0.14742,0.14762 -0.0952,0.17166 0.10039,0.19861 0.27904,0.12227 0.31326,-0.40187 z"
             sodipodi:nodetypes="cccccccc" /><path
             id="path31949"
             style="opacity:1;fill:#000000;stroke:none;stroke-width:0.0934685;stroke-linecap:round;stroke-linejoin:round;stroke-opacity:1;paint-order:stroke fill markers"
             d="m 242.46676,223.36457 -0.22025,-0.0491 -0.14741,0.14762 -0.0952,0.17166 0.10039,0.19861 0.27904,0.12228 0.31326,-0.40188 z"
             sodipodi:nodetypes="cccccccc" /><path
             id="path31951"
             style="opacity:1;fill:#000000;stroke:none;stroke-width:0.0934685;stroke-linecap:round;stroke-linejoin:round;stroke-opacity:1;paint-order:stroke fill markers"
             d="m 241.45399,222.96588 -0.22025,-0.0491 -0.14741,0.14762 -0.0952,0.17166 0.10039,0.19861 0.27903,0.12227 0.31327,-0.40187 z"
             sodipodi:nodetypes="cccccccc" /><path
             id="path31953"
             style="opacity:1;fill:#000000;stroke:none;stroke-width:0.0642137;stroke-linecap:round;stroke-linejoin:round;stroke-opacity:1;paint-order:stroke fill markers"
             d="m 243.46686,221.28428 -0.15131,-0.0337 -0.10127,0.10141 -0.0654,0.11794 0.069,0.13645 0.18017,-0.0314 0.0495,-0.10445 z"
             sodipodi:nodetypes="cccccccc" /><path
             id="path31955"
             style="opacity:1;fill:#000000;stroke:none;stroke-width:0.0642137;stroke-linecap:round;stroke-linejoin:round;stroke-opacity:1;paint-order:stroke fill markers"
             d="m 239.13943,224.39471 -0.15131,-0.0337 -0.10127,0.10141 -0.0654,0.11793 0.069,0.13645 0.18016,-0.0314 0.0495,-0.10446 z"
             sodipodi:nodetypes="cccccccc" /><path
             id="path31957"
             style="opacity:1;fill:#000000;stroke:none;stroke-width:0.0642137;stroke-linecap:round;stroke-linejoin:round;stroke-opacity:1;paint-order:stroke fill markers"
             d="m 240.59343,222.38595 -0.15132,-0.0337 -0.10127,0.10141 -0.0654,0.11794 0.069,0.13645 0.18017,-0.0314 0.0495,-0.10445 z"
             sodipodi:nodetypes="cccccccc" /><path
             id="path31959"
             style="opacity:1;fill:#000000;stroke:none;stroke-width:0.0642137;stroke-linecap:round;stroke-linejoin:round;stroke-opacity:1;paint-order:stroke fill markers"
             d="m 239.85104,223.70358 -0.15131,-0.0337 -0.10128,0.10141 -0.0654,0.11794 0.069,0.13645 0.18016,-0.0314 0.0495,-0.10446 z"
             sodipodi:nodetypes="cccccccc" /><path
             id="path31961"
             style="opacity:1;fill:#000000;stroke:none;stroke-width:0.0642137;stroke-linecap:round;stroke-linejoin:round;stroke-opacity:1;paint-order:stroke fill markers"
             d="m 243.59583,219.9263 -0.11418,-0.10487 -0.13841,0.0372 -0.11562,0.0694 -0.008,0.15265 0.17174,0.0629 0.0951,-0.0657 z"
             sodipodi:nodetypes="cccccccc" /><path
             id="path31963"
             style="opacity:1;fill:#000000;stroke:none;stroke-width:0.0642137;stroke-linecap:round;stroke-linejoin:round;stroke-opacity:1;paint-order:stroke fill markers"
             d="m 238.69551,222.39476 -0.13743,-0.0717 -0.12407,0.0717 -0.0937,0.097 0.0313,0.14965 0.18215,0.0163 0.0749,-0.0881 z"
             sodipodi:nodetypes="cccccccc" /></g></g></g></g></svg>
