<?xml version="1.0" encoding="UTF-8" standalone="no"?>
<!-- Created with Inkscape (http://www.inkscape.org/) -->

<svg
   xmlns:dc="http://purl.org/dc/elements/1.1/"
   xmlns:cc="http://creativecommons.org/ns#"
   xmlns:rdf="http://www.w3.org/1999/02/22-rdf-syntax-ns#"
   xmlns:svg="http://www.w3.org/2000/svg"
   xmlns="http://www.w3.org/2000/svg"
   xmlns:sodipodi="http://sodipodi.sourceforge.net/DTD/sodipodi-0.dtd"
   xmlns:inkscape="http://www.inkscape.org/namespaces/inkscape"
   version="1.1"
   id="svg10"
   width="663.17249"
   height="585.88812"
   viewBox="0 0 663.17249 585.88812"
   sodipodi:docname="Saudi_Arabia_-_Road_Sign_-_Height restriction ahead.svg"
   inkscape:version="0.92.4 (5da689c313, 2019-01-14)">
  <metadata
     id="metadata16">
    <rdf:RDF>
      <cc:Work
         rdf:about="">
        <dc:format>image/svg+xml</dc:format>
        <dc:type
           rdf:resource="http://purl.org/dc/dcmitype/StillImage" />
        <dc:title></dc:title>
      </cc:Work>
    </rdf:RDF>
  </metadata>
  <defs
     id="defs14">
    <clipPath
       id="clipPath2832">
      <path
         inkscape:connector-curvature="0"
         id="path2834"
         d="M -0.24,595.138 H 317.24 V -0.138 H -0.24 Z" />
    </clipPath>
    <clipPath
       id="clipPath2840">
      <path
         inkscape:connector-curvature="0"
         id="path2842"
         d="M 0.03,595.32 H 317.49 V 0 H 0.03 Z" />
    </clipPath>
    <clipPath
       id="clipPath2858">
      <path
         inkscape:connector-curvature="0"
         id="path2860"
         d="M -0.24,595.138 H 317.24 V -0.138 H -0.24 Z" />
    </clipPath>
    <clipPath
       id="clipPath2864">
      <path
         inkscape:connector-curvature="0"
         id="path2866"
         d="M 0.03,595.32 H 317.49 V 0 H 0.03 Z" />
    </clipPath>
    <clipPath
       id="clipPath3306">
      <path
         inkscape:connector-curvature="0"
         id="path3308"
         d="m 199.238,472.977 v -29.74 h 29.744 v 29.74" />
    </clipPath>
    <clipPath
       id="clipPath3322">
      <path
         inkscape:connector-curvature="0"
         id="path3324"
         d="M -0.24,595.138 H 317.24 V -0.138 H -0.24 Z" />
    </clipPath>
    <clipPath
       id="clipPath3330">
      <path
         inkscape:connector-curvature="0"
         id="path3332"
         d="M 0.03,595.32 H 317.49 V 0 H 0.03 Z" />
    </clipPath>
    <clipPath
       id="clipPath3344">
      <path
         inkscape:connector-curvature="0"
         id="path3346"
         d="m 88.233,387.221 v -28.335 h 32.08 v 28.335" />
    </clipPath>
    <clipPath
       id="clipPath3462">
      <path
         inkscape:connector-curvature="0"
         id="path3464"
         d="M -0.24,595.138 H 317.24 V -0.138 H -0.24 Z" />
    </clipPath>
    <clipPath
       id="clipPath3470">
      <path
         inkscape:connector-curvature="0"
         id="path3472"
         d="M 0.03,595.32 H 317.49 V 0 H 0.03 Z" />
    </clipPath>
    <clipPath
       id="clipPath3490">
      <path
         inkscape:connector-curvature="0"
         id="path3492"
         d="M -0.24,595.138 H 317.24 V -0.138 H -0.24 Z" />
    </clipPath>
    <clipPath
       id="clipPath3496">
      <path
         inkscape:connector-curvature="0"
         id="path3498"
         d="M 0.03,595.32 H 317.49 V 0 H 0.03 Z" />
    </clipPath>
    <clipPath
       id="clipPath3520">
      <path
         inkscape:connector-curvature="0"
         id="path3522"
         d="m 254.788,326.215 v -28.309 h 28.326 v 28.309" />
    </clipPath>
    <clipPath
       id="clipPath3544">
      <path
         inkscape:connector-curvature="0"
         id="path3546"
         d="m 145.049,326.142 v -28.333 h 28.342 v 28.333" />
    </clipPath>
    <clipPath
       id="clipPath3682">
      <path
         inkscape:connector-curvature="0"
         id="path3684"
         d="M -0.24,595.138 H 317.24 V -0.138 H -0.24 Z" />
    </clipPath>
    <clipPath
       id="clipPath3690">
      <path
         inkscape:connector-curvature="0"
         id="path3692"
         d="M 0.03,595.32 H 317.49 V 0 H 0.03 Z" />
    </clipPath>
    <clipPath
       id="clipPath3980">
      <path
         inkscape:connector-curvature="0"
         id="path3982"
         d="M -0.24,595.138 H 317.24 V -0.138 H -0.24 Z" />
    </clipPath>
    <clipPath
       id="clipPath3988">
      <path
         inkscape:connector-curvature="0"
         id="path3990"
         d="M 0.03,595.32 H 317.49 V 0 H 0.03 Z" />
    </clipPath>
    <clipPath
       id="clipPath4010">
      <path
         inkscape:connector-curvature="0"
         id="path4012"
         d="M -0.24,595.138 H 317.24 V -0.138 H -0.24 Z" />
    </clipPath>
    <clipPath
       id="clipPath4016">
      <path
         inkscape:connector-curvature="0"
         id="path4018"
         d="M 0.03,595.32 H 317.49 V 0 H 0.03 Z" />
    </clipPath>
    <clipPath
       id="clipPath4062">
      <path
         inkscape:connector-curvature="0"
         id="path4064"
         d="m 200.163,177.773 v -28.284 h 28.283 v 28.284" />
    </clipPath>
    <clipPath
       id="clipPath4090">
      <path
         inkscape:connector-curvature="0"
         id="path4092"
         d="m 34.886,177.515 v -51.632 h 30.367 v 51.632" />
    </clipPath>
    <clipPath
       id="clipPath4106">
      <path
         inkscape:connector-curvature="0"
         id="path4108"
         d="m 34.886,177.515 v -51.632 h 30.367 v 51.632" />
    </clipPath>
    <clipPath
       id="clipPath4272">
      <path
         inkscape:connector-curvature="0"
         id="path4274"
         d="m 34.886,177.515 v -51.632 h 30.367 v 51.632" />
    </clipPath>
    <clipPath
       id="clipPath4304">
      <path
         inkscape:connector-curvature="0"
         id="path4306"
         d="m 254.653,176.442 v -48.167 h 28.317 v 48.167" />
    </clipPath>
    <clipPath
       id="clipPath4310">
      <path
         inkscape:connector-curvature="0"
         id="path4312"
         d="m 253.565,177.983 h 31.181 V 128.8 h -31.181 z" />
    </clipPath>
    <clipPath
       id="clipPath4316">
      <path
         inkscape:connector-curvature="0"
         id="path4318"
         d="M -0.24,595.138 H 317.24 V -0.138 H -0.24 Z" />
    </clipPath>
    <clipPath
       id="clipPath4322">
      <path
         inkscape:connector-curvature="0"
         id="path4324"
         d="M 0.03,595.32 H 317.49 V 0 H 0.03 Z" />
    </clipPath>
    <clipPath
       id="clipPath4456">
      <path
         inkscape:connector-curvature="0"
         id="path4458"
         d="M -0.24,595.138 H 317.24 V -0.138 H -0.24 Z" />
    </clipPath>
    <clipPath
       id="clipPath4464">
      <path
         inkscape:connector-curvature="0"
         id="path4466"
         d="M 0.03,595.32 H 317.49 V 0 H 0.03 Z" />
    </clipPath>
  </defs>
  <sodipodi:namedview
     pagecolor="#ffffff"
     bordercolor="#666666"
     borderopacity="1"
     objecttolerance="10"
     gridtolerance="10"
     guidetolerance="10"
     inkscape:pageopacity="0"
     inkscape:pageshadow="2"
     inkscape:window-width="1920"
     inkscape:window-height="1027"
     id="namedview12"
     showgrid="false"
     inkscape:zoom="0.4213178"
     inkscape:cx="170.55007"
     inkscape:cy="329.34475"
     inkscape:window-x="-8"
     inkscape:window-y="-8"
     inkscape:window-maximized="1"
     inkscape:current-layer="svg10" />
  <g
     id="g214"
     transform="matrix(-1.6227733,0,0,-1.6227733,-49.496368,555.56836)">
    <path
       sodipodi:nodetypes="scccscscccss"
       inkscape:connector-curvature="0"
       id="path3101"
       d="m -411.84604,-18.683932 c -9.82369,0 -18.82982,5.1737 -23.67103,13.6233568 -4.86689,8.4368068 -4.86689,18.8557212 0,27.3182272 l 176.923,306.512038 c 4.8926,8.4368 13.8428,13.5876 23.56376,13.5876 0.0357,0 0.0715,1.3e-4 0.10721,0 0.0357,1.3e-4 0.0715,0 0.10722,0 9.72096,0 18.67118,-5.1508 23.56376,-13.5876 L -34.151274,22.257652 c 4.866901,-8.462506 4.866901,-18.8814204 0,-27.3182272 -4.841213,-8.4496568 -13.847326,-13.6233568 -23.67103,-13.6233568 z"
       style="fill:#b50300;fill-opacity:1;fill-rule:evenodd;stroke:none;stroke-width:1.14421892;stroke-opacity:1" />
    <path
       sodipodi:nodetypes="cccc"
       d="M -69.305379,14.972753 H -395.98405 L -234.1431,300.58311 Z"
       id="path3121"
       style="fill:#ffffff;fill-opacity:1;fill-rule:evenodd;stroke:none;stroke-width:1.13712609;stroke-opacity:1"
       inkscape:connector-curvature="0" />
  </g>
  <path
     style="fill:#000000;fill-opacity:1;stroke-width:0.13654213"
     d="m 351.56801,370.08082 c 0.53607,-0.70245 0.56806,-1.81362 1.47882,-1.77459 0.91075,0.039 1.04611,1.2438 1.3494,1.58972 0.79589,0.90777 1.55497,2.38885 3.98291,4.26477 2.67042,2.06327 5.98576,3.63569 6.03609,3.68387 0.35113,0.33614 0.69816,0.75566 0.73514,1.23886 0.0378,0.49326 -0.53102,1.0895 -0.79004,1.16589 -4.12907,1.21769 -8.1701,4.56195 -10.10636,9.90059 0,0 -0.72175,0.42073 -1.11472,0.39278 -0.40899,-0.029 -1.09062,-0.56882 -1.09062,-0.56882 -2.97107,-6.78314 -8.96466,-9.25721 -9.69882,-9.67074 -0.73414,-0.41354 -1.21049,-0.72054 -1.20154,-1.23852 0.009,-0.51795 0.97972,-1.10911 0.97972,-1.10911 1.41006,-0.93954 3.57773,-2.09897 5.1421,-3.36267 2.43987,-1.97092 3.97128,-4.08402 4.29792,-4.51203 z"
     id="rect3724"
     inkscape:connector-curvature="0"
     sodipodi:nodetypes="szssssscaczzcss" />
  <path
     style="fill:#000000;fill-opacity:1;stroke-width:0.17526473"
     d="m 388.66308,377.38158 c -1.88541,-5.43188 -3.79444,-10.30264 -6.33156,-16.04531 -3.12781,-7.07963 -6.63525,-14.2004 -9.84634,-19.75153 -4.21483,-7.2863 -7.77152,-12.22335 -7.77152,-12.22335 0,0 -0.42462,-0.62047 -0.44656,-1.06449 -0.022,-0.444 0.26802,-1.12264 0.37997,-1.48036 0.63229,-2.02058 0.87502,-2.33918 1.94901,-5.62299 0.41674,-1.27422 1.04072,-2.92554 1.4806,-4.51038 0.47419,-1.70836 0.95338,-3.6855 1.7728,-3.92736 0.8091,-0.23882 2.58126,3.00347 3.9347,5.12366 1.35347,2.12018 5.66619,9.21047 8.12201,13.55337 2.45581,4.3429 6.77814,13.85044 6.77814,13.85044 0,0 0.90562,2.6683 1.29671,2.65069 0.39111,-0.0177 3.32775,-6.77379 3.32775,-6.77379 0,0 3.11984,-6.3144 4.83968,-9.38563 2.488,-4.44298 5.21535,-8.78483 7.91789,-13.06443 0.97067,-1.53709 3.66431,-6.40902 4.78457,-6.28764 0.9708,0.10518 1.34169,1.16115 2.01861,3.61562 0.42744,1.54981 1.67051,5.07068 1.97752,5.90155 0.7828,2.11849 1.70042,4.57008 1.70042,4.57008 0,0 0.52691,1.25119 0.13109,1.93317 -0.54421,0.93754 -2.51878,3.97906 -3.3484,5.18594 -0.94652,1.37698 -1.73731,2.67462 -2.33012,3.56995 -1.51822,2.29301 -2.65436,4.45877 -4.01635,6.78463 -1.3587,2.32023 -2.4541,4.87522 -3.90228,7.64028 -3.92547,7.49496 -7.2111,16.60262 -8.14807,19.01124 -1.44167,3.70599 -2.76191,8.46841 -3.40811,10.52033 -0.19296,0.61266 -0.6369,0.90008 -0.80292,0.90891 -0.33721,0.0179 -0.6897,-0.28089 -0.90956,-0.86247 -0.73204,-2.28614 -0.71363,-2.56386 -1.14968,-3.82013 z"
     id="path1959-8"
     inkscape:connector-curvature="0"
     sodipodi:nodetypes="assczsssszzczcasssscssssssssca" />
  <path
     sodipodi:nodetypes="cczzcszsczczccsccscczczzzzzzzzczzcczzc"
     inkscape:connector-curvature="0"
     id="path12282"
     d="m 301.86683,380.36213 c -1.5061,-7.01224 -1.88087,-9.75606 -3.49932,-16.87786 -4.01561,-14.6277 -6.78805,-21.42744 -9.85051,-27.68463 -3.06253,-6.25713 -3.96658,-7.89272 -3.97372,-8.08354 -0.006,-0.19084 0.129,-0.57858 0.129,-0.57858 0,0 2.3781,-5.11132 3.42172,-7.37177 0.76431,-1.65547 2.44719,-5.31732 3.10207,-6.64802 0.65493,-1.33065 0.5853,-1.46072 1.30009,-1.44878 0.43982,0.005 0.64662,0.0746 0.92833,0.70082 0.25149,0.56058 0.84817,1.622 1.97761,3.45596 1.12947,1.83396 3.18095,6.07647 3.18095,6.07647 0,0 2.66331,5.43599 3.04341,5.64875 0.38012,0.21272 6.62931,0.61836 8.35587,-0.32146 1.19075,-0.64805 2.41972,-1.99912 3.20878,-3.5274 0.13741,-0.26656 0.68185,-1.23516 0.90598,-2.44085 0.33426,-1.79878 0.34331,-3.9807 0.34331,-3.9807 l 2.06274,-2.01239 c 0,0 2.59805,-2.33525 3.28972,-1.85327 0.58665,0.40891 0.40464,3.90432 0.40464,3.90432 l 0.032,7.34164 c 0,0 1.58062,0.21486 2.93703,-0.21856 1.35632,-0.43342 2.2808,-1.11202 3.37498,-2.12062 1.25462,-1.15648 1.93139,-6.54012 2.25174,-7.04486 0.3204,-0.50487 3.69981,-3.47072 4.49304,-3.47792 0.79321,-0.005 0.87433,0.62651 0.92244,0.97309 0.0481,0.34652 -0.0169,0.94531 -0.0253,1.86914 -0.0169,0.92383 0.0481,3.44055 -0.46646,9.01904 -0.5134,5.57849 -4.71464,14.93201 -7.09601,16.86069 -2.38126,1.92875 -2.67788,2.06181 -3.92754,2.59012 -1.24968,0.52831 -3.88639,0.60684 -5.19844,0.21803 -1.31203,-0.38917 -1.58168,-0.51232 -1.58168,-0.51232 0,0 -0.83849,0.41583 -1.23724,0.6141 -0.39876,0.1983 -1.58899,0.82744 -3.26116,1.35687 -1.67217,0.52938 -2.82151,0.76294 -4.26506,1.03451 1.57877,5.3888 2.33939,14.46286 2.33071,15.77667 -0.33479,10.05753 -2.66496,13.97793 -4.16676,16.61641 -1.50183,2.63849 -2.6141,3.54008 -2.8466,3.56935 -0.23239,0.0267 -0.32785,-0.57554 -0.59745,-1.42218 z"
     style="fill:#000000;fill-opacity:1;stroke-width:0.17571053" />
  <path
     sodipodi:nodetypes="csssccczsscssszzzzzscszcccszczcc"
     inkscape:connector-curvature="0"
     id="path11421"
     d="m 237.66472,384.54715 c -0.64673,-10.18923 0.93836,-14.01789 3.59526,-18.89768 2.04462,-3.75521 7.77682,-5.793 11.86494,-5.77334 1.18667,0.004 2.4671,-0.0389 3.18521,-0.0556 3.11608,-0.072 2.64461,0.0113 3.11608,-0.072 0.47147,-0.0831 0.9364,-0.17572 1.03318,-0.2056 0.22888,-0.0708 -1.48142,-1.64924 -2.48276,-2.47951 -0.40836,-0.33861 -1.14735,-0.66618 -2.09981,-0.76583 -0.95246,-0.0998 -1.3037,-0.0596 -1.68509,0.1454 -0.68778,0.36969 -1.43935,2.36297 -1.1588,3.16894 l 0.0919,0.26427 c 0,0 -11.23156,4.65833 -10.71858,4.20189 0.76735,-0.68277 2.69437,-3.01126 2.84844,-3.37295 0.43325,-1.01708 1.29805,-2.42412 1.3657,-2.90588 0.36084,-2.56966 2.0255,-5.6176 3.15983,-8.03594 1.13433,-2.41832 3.98452,-4.9727 4.96539,-5.64295 0.98084,-0.67025 3.4325,-1.40717 4.89396,-1.38679 1.46145,0.0204 3.05334,0.81433 5.68059,2.47848 2.62725,1.66417 4.76825,4.83107 5.77832,5.91807 1.01005,1.087 4.57345,5.5122 6.95087,8.98569 0.7714,1.12706 0.79402,1.80838 -0.17015,3.42539 -1.26772,2.35521 -3.89884,8.2587 -4.35008,8.73628 0,0 -0.0833,0.19042 -0.31921,0.48455 -0.23595,0.29416 -0.61056,0.49957 -0.61056,0.49957 l -22.24724,0.0187 -3.7618,0.0609 0.51625,12.26312 c 0.51111,12.14138 -1.05373,19.45162 -1.42417,21.01421 -0.37041,1.5626 -0.87241,3.06812 -1.42121,4.13285 0,0 -0.48319,0.59496 -1.7364,0.55846 -1.25319,-0.0366 -1.66596,-1.78271 -1.66596,-1.78271 z"
     style="fill:#000000;fill-opacity:1;stroke-width:0.06737225" />
  <path
     sodipodi:nodetypes="cccccccccccc"
     id="path4037-7-9-5"
     style="fill:#000000;fill-opacity:1;fill-rule:evenodd;stroke:none;stroke-width:3.01864529"
     d="m 274.03972,251.778 54.77715,-61.28346 54.17054,63.05097 c 1.639,2.8687 0.98659,6.69363 -1.44907,8.5149 -1.62721,1.20662 -3.31335,0.93302 -5.2929,0.26924 l -24.63731,-6.46498 0.0523,20.57472 h -44.7651 l -0.0756,-20.57472 -25.88783,5.041 c -2.20531,0.63289 -3.83382,0.87003 -5.52223,-0.52037 -2.42254,-1.9881 -3.03331,-5.85757 -1.36863,-8.60747"
     inkscape:connector-curvature="0" />
  <path
     inkscape:connector-curvature="0"
     d="m 274.03972,438.47524 54.77715,61.28346 54.17054,-63.05097 c 1.639,-2.86871 0.98659,-6.69364 -1.44907,-8.51491 -1.62721,-1.20661 -3.31335,-0.93302 -5.2929,-0.26924 l -24.63731,6.46498 0.0523,-20.57471 h -44.7651 l -0.0756,20.57471 -25.88783,-5.04099 c -2.20531,-0.6329 -3.83382,-0.87004 -5.52223,0.52036 -2.42254,1.9881 -3.03331,5.85757 -1.36863,8.60748"
     style="fill:#000000;fill-opacity:1;fill-rule:evenodd;stroke:none;stroke-width:3.01864529"
     id="path8555"
     sodipodi:nodetypes="cccccccccccc" />
</svg>
