<?xml version="1.0" encoding="UTF-8" standalone="no"?>
<!-- Created with Inkscape (http://www.inkscape.org/) -->

<svg
   version="1.1"
   id="svg10"
   width="565.77686"
   height="500"
   viewBox="0 0 565.77686 500"
   sodipodi:docname="5588.svg"
   inkscape:version="1.4.2 (f4327f4, 2025-05-13)"
   xml:space="preserve"
   xmlns:inkscape="http://www.inkscape.org/namespaces/inkscape"
   xmlns:sodipodi="http://sodipodi.sourceforge.net/DTD/sodipodi-0.dtd"
   xmlns="http://www.w3.org/2000/svg"
   xmlns:svg="http://www.w3.org/2000/svg"
   xmlns:rdf="http://www.w3.org/1999/02/22-rdf-syntax-ns#"
   xmlns:cc="http://creativecommons.org/ns#"
   xmlns:dc="http://purl.org/dc/elements/1.1/"><metadata
     id="metadata16"><rdf:RDF><cc:Work
         rdf:about=""><dc:format>image/svg+xml</dc:format><dc:type
           rdf:resource="http://purl.org/dc/dcmitype/StillImage" /></cc:Work></rdf:RDF></metadata><defs
     id="defs14"><clipPath
       id="clipPath2832"><path
         inkscape:connector-curvature="0"
         id="path2834"
         d="M -0.24,595.138 H 317.24 V -0.138 H -0.24 Z" /></clipPath><clipPath
       id="clipPath2840"><path
         inkscape:connector-curvature="0"
         id="path2842"
         d="M 0.03,595.32 H 317.49 V 0 H 0.03 Z" /></clipPath><clipPath
       id="clipPath2858"><path
         inkscape:connector-curvature="0"
         id="path2860"
         d="M -0.24,595.138 H 317.24 V -0.138 H -0.24 Z" /></clipPath><clipPath
       id="clipPath2864"><path
         inkscape:connector-curvature="0"
         id="path2866"
         d="M 0.03,595.32 H 317.49 V 0 H 0.03 Z" /></clipPath><clipPath
       id="clipPath3306"><path
         inkscape:connector-curvature="0"
         id="path3308"
         d="m 199.238,472.977 v -29.74 h 29.744 v 29.74" /></clipPath><clipPath
       id="clipPath3322"><path
         inkscape:connector-curvature="0"
         id="path3324"
         d="M -0.24,595.138 H 317.24 V -0.138 H -0.24 Z" /></clipPath><clipPath
       id="clipPath3330"><path
         inkscape:connector-curvature="0"
         id="path3332"
         d="M 0.03,595.32 H 317.49 V 0 H 0.03 Z" /></clipPath><clipPath
       id="clipPath3344"><path
         inkscape:connector-curvature="0"
         id="path3346"
         d="m 88.233,387.221 v -28.335 h 32.08 v 28.335" /></clipPath><clipPath
       id="clipPath3462"><path
         inkscape:connector-curvature="0"
         id="path3464"
         d="M -0.24,595.138 H 317.24 V -0.138 H -0.24 Z" /></clipPath><clipPath
       id="clipPath3470"><path
         inkscape:connector-curvature="0"
         id="path3472"
         d="M 0.03,595.32 H 317.49 V 0 H 0.03 Z" /></clipPath><clipPath
       id="clipPath3490"><path
         inkscape:connector-curvature="0"
         id="path3492"
         d="M -0.24,595.138 H 317.24 V -0.138 H -0.24 Z" /></clipPath><clipPath
       id="clipPath3496"><path
         inkscape:connector-curvature="0"
         id="path3498"
         d="M 0.03,595.32 H 317.49 V 0 H 0.03 Z" /></clipPath><clipPath
       id="clipPath3520"><path
         inkscape:connector-curvature="0"
         id="path3522"
         d="m 254.788,326.215 v -28.309 h 28.326 v 28.309" /></clipPath><clipPath
       id="clipPath3544"><path
         inkscape:connector-curvature="0"
         id="path3546"
         d="m 145.049,326.142 v -28.333 h 28.342 v 28.333" /></clipPath><clipPath
       id="clipPath3682"><path
         inkscape:connector-curvature="0"
         id="path3684"
         d="M -0.24,595.138 H 317.24 V -0.138 H -0.24 Z" /></clipPath><clipPath
       id="clipPath3690"><path
         inkscape:connector-curvature="0"
         id="path3692"
         d="M 0.03,595.32 H 317.49 V 0 H 0.03 Z" /></clipPath><clipPath
       id="clipPath3980"><path
         inkscape:connector-curvature="0"
         id="path3982"
         d="M -0.24,595.138 H 317.24 V -0.138 H -0.24 Z" /></clipPath><clipPath
       id="clipPath3988"><path
         inkscape:connector-curvature="0"
         id="path3990"
         d="M 0.03,595.32 H 317.49 V 0 H 0.03 Z" /></clipPath><clipPath
       id="clipPath4010"><path
         inkscape:connector-curvature="0"
         id="path4012"
         d="M -0.24,595.138 H 317.24 V -0.138 H -0.24 Z" /></clipPath><clipPath
       id="clipPath4016"><path
         inkscape:connector-curvature="0"
         id="path4018"
         d="M 0.03,595.32 H 317.49 V 0 H 0.03 Z" /></clipPath><clipPath
       id="clipPath4062"><path
         inkscape:connector-curvature="0"
         id="path4064"
         d="m 200.163,177.773 v -28.284 h 28.283 v 28.284" /></clipPath><clipPath
       id="clipPath4090"><path
         inkscape:connector-curvature="0"
         id="path4092"
         d="m 34.886,177.515 v -51.632 h 30.367 v 51.632" /></clipPath><clipPath
       id="clipPath4106"><path
         inkscape:connector-curvature="0"
         id="path4108"
         d="m 34.886,177.515 v -51.632 h 30.367 v 51.632" /></clipPath><clipPath
       id="clipPath4272"><path
         inkscape:connector-curvature="0"
         id="path4274"
         d="m 34.886,177.515 v -51.632 h 30.367 v 51.632" /></clipPath><clipPath
       id="clipPath4304"><path
         inkscape:connector-curvature="0"
         id="path4306"
         d="m 254.653,176.442 v -48.167 h 28.317 v 48.167" /></clipPath><clipPath
       id="clipPath4310"><path
         inkscape:connector-curvature="0"
         id="path4312"
         d="m 253.565,177.983 h 31.181 V 128.8 h -31.181 z" /></clipPath><clipPath
       id="clipPath4316"><path
         inkscape:connector-curvature="0"
         id="path4318"
         d="M -0.24,595.138 H 317.24 V -0.138 H -0.24 Z" /></clipPath><clipPath
       id="clipPath4322"><path
         inkscape:connector-curvature="0"
         id="path4324"
         d="M 0.03,595.32 H 317.49 V 0 H 0.03 Z" /></clipPath><clipPath
       id="clipPath4456"><path
         inkscape:connector-curvature="0"
         id="path4458"
         d="M -0.24,595.138 H 317.24 V -0.138 H -0.24 Z" /></clipPath><clipPath
       id="clipPath4464"><path
         inkscape:connector-curvature="0"
         id="path4466"
         d="M 0.03,595.32 H 317.49 V 0 H 0.03 Z" /></clipPath></defs><sodipodi:namedview
     pagecolor="#ffffff"
     bordercolor="#666666"
     borderopacity="1"
     objecttolerance="10"
     gridtolerance="10"
     guidetolerance="10"
     inkscape:pageopacity="0"
     inkscape:pageshadow="2"
     inkscape:window-width="1920"
     inkscape:window-height="991"
     id="namedview12"
     showgrid="false"
     inkscape:zoom="1"
     inkscape:cx="385.5"
     inkscape:cy="370"
     inkscape:window-x="-9"
     inkscape:window-y="-9"
     inkscape:window-maximized="1"
     inkscape:current-layer="svg10"
     inkscape:showpageshadow="2"
     inkscape:pagecheckerboard="0"
     inkscape:deskcolor="#d1d1d1"
     showguides="true" /><g
     id="g21"
     transform="rotate(90,1544.0369,-63.515043)" /><g
     id="g15"
     transform="matrix(-1,0,0,1,565.77678,0)"><g
       id="g13"
       transform="matrix(-1,0,0,1,565.77678,0)"><g
         id="g10"
         transform="matrix(-0.85340535,0,0,0.85340535,1164.9573,-3.727616e-5)"><g
           inkscape:label="Layer 1"
           id="layer1"
           transform="matrix(7.3662226,0,0,7.3662226,-3.5768757,-1598.1969)"
           style="opacity:1"><path
             style="baseline-shift:baseline;display:inline;overflow:visible;opacity:1;vector-effect:none;fill:#b50300;fill-opacity:1;stroke-linejoin:round;enable-background:accumulate;stop-color:#000000;stop-opacity:1"
             d="m 140.80001,216.96289 a 5.9506449,5.9506449 0 0 0 -5.15234,2.97461 L 96.596872,287.57422 A 5.9506449,5.9506449 0 0 0 101.74922,296.5 h 78.10157 a 5.9506449,5.9506449 0 0 0 5.15234,-8.92578 L 145.95235,219.9375 a 5.9506449,5.9506449 0 0 0 -5.15234,-2.97461 z m 0,17.84766 28.74609,49.78906 h -57.49218 z"
             id="path814" /><path
             sodipodi:nodetypes="cccc"
             inkscape:connector-curvature="0"
             id="path818"
             d="m 177.12843,289.08839 -36.32842,-62.92267 -36.32842,62.92263 z"
             style="opacity:1;fill:#ffffff;fill-opacity:1;stroke:none;stroke-width:12.1503;stroke-linecap:butt;stroke-linejoin:round;stroke-miterlimit:4;stroke-dasharray:none;stroke-dashoffset:0;stroke-opacity:1" /></g><g
           id="g9"
           style="opacity:1;fill:#000000"
           transform="translate(702.00109)" /></g></g></g><g
     id="g16"
     transform="matrix(0.85344407,0,0,0.85344407,-453.68741,-79.551855)"><rect
       y="282.36493"
       x="803.26807"
       height="325.91043"
       width="119.82001"
       id="rect9565"
       style="fill:#000000;fill-opacity:1;fill-rule:nonzero;stroke:none;stroke-width:0;stroke-linecap:square;stroke-linejoin:miter;stroke-miterlimit:10;stroke-dasharray:none;stroke-opacity:1;paint-order:fill markers stroke" /><path
       id="path9567"
       style="fill:#ffe514;fill-opacity:1;fill-rule:nonzero;stroke:none;stroke-width:0;stroke-linecap:square;stroke-linejoin:miter;stroke-miterlimit:10;stroke-dasharray:none;stroke-opacity:1;paint-order:fill markers stroke"
       d="m 863.17849,402.18548 c -23.82275,-3.9e-4 -43.1353,19.31134 -43.13591,43.1341 -3.9e-4,23.82346 19.31244,43.1363 43.13591,43.13591 23.82348,3.9e-4 43.13631,-19.31245 43.13592,-43.13591 -6.1e-4,-23.82276 -19.31316,-43.13449 -43.13592,-43.1341 z"
       inkscape:connector-curvature="0"
       sodipodi:nodetypes="ccccc" /><path
       id="ellipse9569"
       style="fill:#1fa928;fill-opacity:1;fill-rule:nonzero;stroke:none;stroke-width:0;stroke-linecap:square;stroke-linejoin:miter;stroke-miterlimit:10;stroke-dasharray:none;stroke-opacity:1;paint-order:fill markers stroke"
       d="m 863.17849,498.04085 c -23.82347,-3.9e-4 -43.1363,19.31245 -43.13591,43.13591 6.1e-4,23.82276 19.31316,43.13449 43.13591,43.1341 23.82276,3.9e-4 43.13531,-19.31134 43.13592,-43.1341 3.9e-4,-23.82346 -19.31244,-43.1363 -43.13592,-43.13591 z"
       inkscape:connector-curvature="0"
       sodipodi:nodetypes="ccccc" /><path
       id="ellipse9574"
       style="fill:#b50300;fill-opacity:1;fill-rule:nonzero;stroke:none;stroke-width:0;stroke-linecap:square;stroke-linejoin:miter;stroke-miterlimit:10;stroke-dasharray:none;stroke-opacity:1;paint-order:fill markers stroke"
       d="m 863.17849,306.3283 c -23.82347,-3.9e-4 -43.1363,19.31245 -43.13591,43.13591 -3.9e-4,23.82347 19.31244,43.13631 43.13591,43.13592 23.82348,3.9e-4 43.13631,-19.31245 43.13592,-43.13592 3.9e-4,-23.82346 -19.31244,-43.1363 -43.13592,-43.13591 z"
       inkscape:connector-curvature="0"
       sodipodi:nodetypes="ccccc" /></g></svg>
