<?xml version="1.0" encoding="UTF-8" standalone="no"?>
<!-- Created with Inkscape (http://www.inkscape.org/) -->

<svg
   version="1.1"
   id="svg10"
   width="663.17249"
   height="585.88812"
   viewBox="0 0 663.17249 585.88812"
   sodipodi:docname="Turn_Right_(Saudi_Aarbia_traffic_sign)2.svg"
   inkscape:version="1.4.2 (f4327f4, 2025-05-13)"
   xml:space="preserve"
   xmlns:inkscape="http://www.inkscape.org/namespaces/inkscape"
   xmlns:sodipodi="http://sodipodi.sourceforge.net/DTD/sodipodi-0.dtd"
   xmlns="http://www.w3.org/2000/svg"
   xmlns:svg="http://www.w3.org/2000/svg"
   xmlns:rdf="http://www.w3.org/1999/02/22-rdf-syntax-ns#"
   xmlns:cc="http://creativecommons.org/ns#"
   xmlns:dc="http://purl.org/dc/elements/1.1/"><metadata
     id="metadata16"><rdf:RDF><cc:Work
         rdf:about=""><dc:format>image/svg+xml</dc:format><dc:type
           rdf:resource="http://purl.org/dc/dcmitype/StillImage" /></cc:Work></rdf:RDF></metadata><defs
     id="defs14"><clipPath
       id="clipPath2832"><path
         inkscape:connector-curvature="0"
         id="path2834"
         d="M -0.24,595.138 H 317.24 V -0.138 H -0.24 Z" /></clipPath><clipPath
       id="clipPath2840"><path
         inkscape:connector-curvature="0"
         id="path2842"
         d="M 0.03,595.32 H 317.49 V 0 H 0.03 Z" /></clipPath><clipPath
       id="clipPath2858"><path
         inkscape:connector-curvature="0"
         id="path2860"
         d="M -0.24,595.138 H 317.24 V -0.138 H -0.24 Z" /></clipPath><clipPath
       id="clipPath2864"><path
         inkscape:connector-curvature="0"
         id="path2866"
         d="M 0.03,595.32 H 317.49 V 0 H 0.03 Z" /></clipPath><clipPath
       id="clipPath3306"><path
         inkscape:connector-curvature="0"
         id="path3308"
         d="m 199.238,472.977 v -29.74 h 29.744 v 29.74" /></clipPath><clipPath
       id="clipPath3322"><path
         inkscape:connector-curvature="0"
         id="path3324"
         d="M -0.24,595.138 H 317.24 V -0.138 H -0.24 Z" /></clipPath><clipPath
       id="clipPath3330"><path
         inkscape:connector-curvature="0"
         id="path3332"
         d="M 0.03,595.32 H 317.49 V 0 H 0.03 Z" /></clipPath><clipPath
       id="clipPath3344"><path
         inkscape:connector-curvature="0"
         id="path3346"
         d="m 88.233,387.221 v -28.335 h 32.08 v 28.335" /></clipPath><clipPath
       id="clipPath3462"><path
         inkscape:connector-curvature="0"
         id="path3464"
         d="M -0.24,595.138 H 317.24 V -0.138 H -0.24 Z" /></clipPath><clipPath
       id="clipPath3470"><path
         inkscape:connector-curvature="0"
         id="path3472"
         d="M 0.03,595.32 H 317.49 V 0 H 0.03 Z" /></clipPath><clipPath
       id="clipPath3490"><path
         inkscape:connector-curvature="0"
         id="path3492"
         d="M -0.24,595.138 H 317.24 V -0.138 H -0.24 Z" /></clipPath><clipPath
       id="clipPath3496"><path
         inkscape:connector-curvature="0"
         id="path3498"
         d="M 0.03,595.32 H 317.49 V 0 H 0.03 Z" /></clipPath><clipPath
       id="clipPath3520"><path
         inkscape:connector-curvature="0"
         id="path3522"
         d="m 254.788,326.215 v -28.309 h 28.326 v 28.309" /></clipPath><clipPath
       id="clipPath3544"><path
         inkscape:connector-curvature="0"
         id="path3546"
         d="m 145.049,326.142 v -28.333 h 28.342 v 28.333" /></clipPath><clipPath
       id="clipPath3682"><path
         inkscape:connector-curvature="0"
         id="path3684"
         d="M -0.24,595.138 H 317.24 V -0.138 H -0.24 Z" /></clipPath><clipPath
       id="clipPath3690"><path
         inkscape:connector-curvature="0"
         id="path3692"
         d="M 0.03,595.32 H 317.49 V 0 H 0.03 Z" /></clipPath><clipPath
       id="clipPath3980"><path
         inkscape:connector-curvature="0"
         id="path3982"
         d="M -0.24,595.138 H 317.24 V -0.138 H -0.24 Z" /></clipPath><clipPath
       id="clipPath3988"><path
         inkscape:connector-curvature="0"
         id="path3990"
         d="M 0.03,595.32 H 317.49 V 0 H 0.03 Z" /></clipPath><clipPath
       id="clipPath4010"><path
         inkscape:connector-curvature="0"
         id="path4012"
         d="M -0.24,595.138 H 317.24 V -0.138 H -0.24 Z" /></clipPath><clipPath
       id="clipPath4016"><path
         inkscape:connector-curvature="0"
         id="path4018"
         d="M 0.03,595.32 H 317.49 V 0 H 0.03 Z" /></clipPath><clipPath
       id="clipPath4062"><path
         inkscape:connector-curvature="0"
         id="path4064"
         d="m 200.163,177.773 v -28.284 h 28.283 v 28.284" /></clipPath><clipPath
       id="clipPath4090"><path
         inkscape:connector-curvature="0"
         id="path4092"
         d="m 34.886,177.515 v -51.632 h 30.367 v 51.632" /></clipPath><clipPath
       id="clipPath4106"><path
         inkscape:connector-curvature="0"
         id="path4108"
         d="m 34.886,177.515 v -51.632 h 30.367 v 51.632" /></clipPath><clipPath
       id="clipPath4272"><path
         inkscape:connector-curvature="0"
         id="path4274"
         d="m 34.886,177.515 v -51.632 h 30.367 v 51.632" /></clipPath><clipPath
       id="clipPath4304"><path
         inkscape:connector-curvature="0"
         id="path4306"
         d="m 254.653,176.442 v -48.167 h 28.317 v 48.167" /></clipPath><clipPath
       id="clipPath4310"><path
         inkscape:connector-curvature="0"
         id="path4312"
         d="m 253.565,177.983 h 31.181 V 128.8 h -31.181 z" /></clipPath><clipPath
       id="clipPath4316"><path
         inkscape:connector-curvature="0"
         id="path4318"
         d="M -0.24,595.138 H 317.24 V -0.138 H -0.24 Z" /></clipPath><clipPath
       id="clipPath4322"><path
         inkscape:connector-curvature="0"
         id="path4324"
         d="M 0.03,595.32 H 317.49 V 0 H 0.03 Z" /></clipPath><clipPath
       id="clipPath4456"><path
         inkscape:connector-curvature="0"
         id="path4458"
         d="M -0.24,595.138 H 317.24 V -0.138 H -0.24 Z" /></clipPath><clipPath
       id="clipPath4464"><path
         inkscape:connector-curvature="0"
         id="path4466"
         d="M 0.03,595.32 H 317.49 V 0 H 0.03 Z" /></clipPath></defs><sodipodi:namedview
     pagecolor="#ffffff"
     bordercolor="#666666"
     borderopacity="1"
     objecttolerance="10"
     gridtolerance="10"
     guidetolerance="10"
     inkscape:pageopacity="0"
     inkscape:pageshadow="2"
     inkscape:window-width="1920"
     inkscape:window-height="991"
     id="namedview12"
     showgrid="false"
     inkscape:zoom="4.0000001"
     inkscape:cx="274.74999"
     inkscape:cy="341.74999"
     inkscape:window-x="-9"
     inkscape:window-y="-9"
     inkscape:window-maximized="1"
     inkscape:current-layer="svg10"
     inkscape:showpageshadow="2"
     inkscape:pagecheckerboard="0"
     inkscape:deskcolor="#d1d1d1"
     showguides="true"><sodipodi:guide
       position="330.46481,518.09801"
       orientation="0,-1"
       id="guide24"
       inkscape:locked="false" /><sodipodi:guide
       position="282.84271,54.617146"
       orientation="0,-1"
       id="guide1"
       inkscape:locked="false" /></sodipodi:namedview><g
     id="g214"
     transform="matrix(-1.6227733,0,0,-1.6227733,-49.496368,555.56836)"><path
       sodipodi:nodetypes="scccscscccss"
       inkscape:connector-curvature="0"
       id="path3101"
       d="m -411.84604,-18.683932 c -9.82369,0 -18.82982,5.1737 -23.67103,13.6233568 -4.86689,8.4368068 -4.86689,18.8557212 0,27.3182272 l 176.923,306.512038 c 4.8926,8.4368 13.8428,13.5876 23.56376,13.5876 0.0357,0 0.0715,1.3e-4 0.10721,0 0.0357,1.3e-4 0.0715,0 0.10722,0 9.72096,0 18.67118,-5.1508 23.56376,-13.5876 L -34.151274,22.257652 c 4.866901,-8.462506 4.866901,-18.8814204 0,-27.3182272 -4.841213,-8.4496568 -13.847326,-13.6233568 -23.67103,-13.6233568 z"
       style="fill:#b50300;fill-opacity:1;fill-rule:evenodd;stroke:none;stroke-width:1.14421892;stroke-opacity:1" /><path
       sodipodi:nodetypes="cccc"
       d="M -69.305379,14.972753 H -395.98405 L -234.1431,300.58311 Z"
       id="path3121"
       style="fill:#ffffff;fill-opacity:1;fill-rule:evenodd;stroke:none;stroke-width:1.13712609;stroke-opacity:1"
       inkscape:connector-curvature="0" /></g><g
     id="g21"
     transform="rotate(90,1895.0895,287.53767)" /><path
     style="baseline-shift:baseline;display:inline;overflow:visible;opacity:1;vector-effect:none;fill:#000000;fill-rule:evenodd;stroke-width:0.985787;stroke-linejoin:round;enable-background:accumulate;stop-color:#000000;stop-opacity:1"
     d="m 277.24414,275.94922 c -33.38335,0 -60.25781,26.87446 -60.25781,60.25781 V 350.5 v 81.5625 69.5918 h 61.41406 V 337.36523 l 133.33789,-0.002 31.54492,-30.70703 -31.54492,-30.70703 H 358.36719 311.5 Z"
     id="path24" /></svg>
