<?xml version="1.0" encoding="UTF-8" standalone="no"?>
<!-- Created with Inkscape (http://www.inkscape.org/) -->

<svg
   width="50.5mm"
   height="50.5mm"
   viewBox="0 0 50.5 50.5"
   version="1.1"
   id="svg17025"
   inkscape:version="1.2.2 (732a01da63, 2022-12-09)"
   sodipodi:docname="drawing12.svg"
   xmlns:inkscape="http://www.inkscape.org/namespaces/inkscape"
   xmlns:sodipodi="http://sodipodi.sourceforge.net/DTD/sodipodi-0.dtd"
   xmlns="http://www.w3.org/2000/svg"
   xmlns:svg="http://www.w3.org/2000/svg">
  <sodipodi:namedview
     id="namedview17027"
     pagecolor="#ffffff"
     bordercolor="#000000"
     borderopacity="0.25"
     inkscape:showpageshadow="2"
     inkscape:pageopacity="0.0"
     inkscape:pagecheckerboard="0"
     inkscape:deskcolor="#d1d1d1"
     inkscape:document-units="mm"
     showgrid="false"
     inkscape:zoom="2.025849"
     inkscape:cx="222.12909"
     inkscape:cy="156.23079"
     inkscape:window-width="1920"
     inkscape:window-height="991"
     inkscape:window-x="-9"
     inkscape:window-y="-9"
     inkscape:window-maximized="1"
     inkscape:current-layer="layer1" />
  <defs
     id="defs17022" />
  <g
     inkscape:label="Layer 1"
     inkscape:groupmode="layer"
     id="layer1"
     transform="translate(-32.868854,-37.671093)">
    <g
       id="g48782"
       transform="matrix(1.8972524,0,0,1.8972524,-463.56283,-333.23819)">
      <path
         inkscape:connector-curvature="0"
         id="path1779"
         d="m 269.50886,195.62989 -7.71887,7.71887 1e-5,10.91615 7.71886,7.71888 10.91614,-1e-5 7.71889,-7.71887 -10e-6,-10.91615 -7.71887,-7.71887 z"
         style="fill:#c50000;fill-opacity:1;stroke:none;stroke-width:0.0282162" />
      <path
         id="path1777"
         style="fill:#ffffff;fill-opacity:1;stroke:none;stroke-width:0.02784"
         d="m 269.58171,195.80561 -7.61587,7.61586 v 10.77061 l 7.61587,7.61587 h 10.77061 l 7.61586,-7.61587 v -10.77061 l -7.61586,-7.61586 z m 0.29082,0.7026 h 10.18846 l 7.2046,7.2046 v 10.18845 l -7.2046,7.20409 h -10.18846 l -7.20409,-7.20409 v -10.18845 z" />
      <path
         sodipodi:nodetypes="sccscccsccsccsccscccscccccsscccccsccccccsccacscsccccccccscccccsccscscssssccccccccccsaacccccccssscssccsccascssccscc"
         d="m 282.04752,202.02307 c -0.0613,0 -0.11369,0.0174 -0.15745,0.0524 l -0.50779,0.49027 c -0.07,0.0613 -0.11813,0.0874 -0.14001,0.0874 -0.0131,0 -0.0526,-0.0218 -0.12265,-0.07 l -0.42012,-0.4552 c -0.035,-0.035 -0.0699,-0.0569 -0.10493,-0.07 -0.035,-0.009 -0.07,-0.0174 -0.10503,-0.0174 -0.0481,0 -0.0964,0.0131 -0.14019,0.035 l -0.71766,0.68279 c -0.035,0.0481 -0.0525,0.0962 -0.0525,0.13999 0,0.0613 0.0437,0.12259 0.12248,0.19263 l 0.63025,0.59516 c 0.035,0.0481 0.0876,0.0701 0.15764,0.0701 0.07,0 0.12244,-0.0219 0.15745,-0.0701 l 0.50769,-0.49024 c 0.07,-0.0438 0.10944,-0.07 0.12257,-0.07 0.0219,0 0.0701,0.0307 0.1401,0.0876 l 0.47272,0.47259 c 0.0219,0.0263 0.0437,0.0438 0.07,0.0525 0.035,0.0131 0.0612,0.0176 0.0875,0.0176 0.07,0 0.12252,-0.022 0.15754,-0.0701 l 0.63026,-0.61281 c 0.0788,-0.0438 0.12687,-0.0962 0.14,-0.15743 0,-0.0569 -0.0262,-0.10941 -0.07,-0.15754 L 282.2576,202.128 c -0.0613,-0.07 -0.13128,-0.10495 -0.21005,-0.10495 z m -5.85832,1.8419 c -0.0864,0 -0.16192,0.0325 -0.21593,0.0865 l -0.64817,0.62643 c -0.0432,0.0324 -0.0647,0.0648 -0.0647,0.10799 -0.0162,0.0756 0.027,0.14039 0.12966,0.19439 l 0.62644,0.60499 c 0.0304,0.0293 0.0757,0.0432 0.15129,0.0432 0.0702,0 0.11878,-0.0109 0.1512,-0.0432 l 0.6048,-0.60499 c 0.054,-0.027 0.0919,-0.0485 0.1081,-0.0647 0.0108,-0.027 0.0215,-0.0541 0.0215,-0.0865 0.0108,-0.0432 0,-0.0918 -0.0433,-0.15119 l -0.7129,-0.69117 c -0.032,-0.031 -0.081,-0.0217 -0.10802,-0.0217 z m 6.19504,0.23095 c -0.10905,0 -0.20814,0.0195 -0.29736,0.0593 -0.0942,0.0397 -0.22406,0.11557 -0.31733,0.19838 -0.34909,0.31007 -0.5355,0.51183 -0.87753,1.09179 -0.33211,0.5552 -0.52439,1.02496 -0.52439,1.47107 0,0.35689 0.1998,0.74092 0.47738,1.00363 0.2875,0.25279 0.64038,0.40538 1.07658,0.40538 0.57996,0 0.8695,-0.25901 1.07658,-0.32741 l 0.18031,-0.004 c 0.007,0.12755 0.0122,0.40099 0.0122,0.40099 0.008,0.16451 -0.0178,0.30865 -0.17844,0.29729 h -5.54845 c 0.0788,-0.19137 0.1824,-0.28629 0.25025,-0.53346 0.0388,-0.16504 0.13803,-0.42089 0.14757,-0.68287 0.0124,-0.34044 0.0207,-0.40317 -0.11334,-0.70869 -0.22389,-0.45872 -0.45761,-0.62843 -0.8848,-0.62843 -0.46603,0 -0.85059,0.38474 -1.12014,0.63542 -0.23216,0.2318 -0.41485,0.43096 -0.6243,0.66232 -0.54037,0.597 -0.46925,0.62346 -0.89143,1.25664 l -6.19274,0.0387 c -0.34952,0 -0.66026,-0.14559 -0.9321,-0.4466 -0.26214,-0.31066 -0.22078,-0.64691 -0.22078,-1.02555 0,-0.15535 0.0367,-0.29313 0.0659,-0.44844 0.0243,-0.15536 0.0485,-0.28164 0.0776,-0.3884 0.0243,-0.10197 0.10288,-0.27811 0.10288,-0.31698 0,-0.0221 -0.0262,-0.0818 -0.0617,-0.0975 -0.0134,-0.006 -0.0334,-0.007 -0.0511,-0.006 -0.0177,0.002 -0.0331,0.005 -0.0374,0.007 -0.0429,0.0298 -0.21583,0.18856 -0.31163,0.29467 -0.0821,0.0909 -0.15558,0.18967 -0.22385,0.2914 -0.14082,0.2098 -0.28066,0.42341 -0.38131,0.65515 -0.15418,0.35502 -0.33477,0.80117 -0.33477,1.11187 0,0.65048 0.18446,1.1844 0.5631,1.6116 0.37379,0.41745 1.30832,0.62138 1.91997,0.62138 h 6.21337 c 0.23301,0 0.98172,0.002 0.98172,0.002 0.32792,-0.0643 0.36333,-0.19702 0.47402,-0.19617 0.14611,0.002 0.18889,0.18272 0.38029,0.19533 h 0.95187 0.7574 v 0 h 5.11919 c 0.45218,0 0.53663,0.027 0.62307,-0.37095 0.0314,-0.14451 0.0744,-0.41184 0.11259,-0.61757 0.10775,-0.58068 0.27639,-1.15274 0.3287,-1.741 0.0433,-0.48729 0.10544,-0.9372 -0.0135,-1.46756 -0.11896,-0.54031 -0.097,-0.49958 -0.3052,-1.00516 -0.20008,-0.42312 -0.43009,-0.64135 -0.70768,-0.91894 -0.13383,-0.14376 -0.26532,-0.22519 -0.38429,-0.27975 -0.11896,-0.0644 -0.238,-0.0989 -0.35696,-0.0989 z m -0.54417,1.77382 c 0.0832,0.002 0.16362,0.009 0.2317,0.0185 0.34048,0.0479 0.62059,0.32665 0.87389,0.54818 0.0324,0.0283 0.073,0.0762 0.0566,0.11601 -0.0393,0.0952 -0.10302,0.10295 -0.29186,0.10132 -0.18884,-0.002 -0.53766,0.0403 -0.78295,-0.0504 -0.25343,-0.0937 -0.69696,-0.22087 -0.64817,-0.48661 0.0372,-0.20283 0.31121,-0.25137 0.56077,-0.24691 z m -5.75459,1.61477 c 0.0483,0.002 0.096,0.009 0.14075,0.0245 0.1477,0.0499 0.28443,0.16243 0.35995,0.29885 0.089,0.16077 0.10851,0.33265 0.0732,0.5464 -0.0142,0.0861 -0.035,0.15587 -0.0697,0.22702 -0.0376,0.0771 -0.0708,0.1637 -0.14736,0.21089 -0.0466,0.0288 -0.11204,0.0549 -0.29139,0.006 -0.20752,-0.0565 -0.42605,-0.1941 -0.53213,-0.32858 -0.14171,-0.17967 -0.20813,-0.47869 -0.0982,-0.67934 0.0664,-0.12126 0.19658,-0.21614 0.32832,-0.26584 0.0736,-0.0278 0.15597,-0.0426 0.23655,-0.0399 z"
         style="fill:#ffffff;stroke-width:0.0477569"
         id="path24553-4" />
      <g
         aria-label="STOP"
         id="text3533"
         style="font-weight:bold;font-size:16.5842px;font-family:'DB King84';-inkscape-font-specification:'DB King84 Bold';fill:#ffffff;stroke:#000000;stroke-width:1.96392;stroke-linecap:round;stroke-linejoin:round;paint-order:stroke fill markers"
         transform="matrix(0.35277777,0,0,0.35277777,294.24839,130.11775)">
        <path
           d="m -66.148909,245.17187 q -0.01658,1.476 -1.160894,2.45446 -1.127726,0.97847 -3.167582,0.97847 -2.719809,0 -4.427982,-2.28862 l 1.65842,-1.12772 q 1.127726,1.47599 2.835898,1.50916 1.061389,0.0166 1.65842,-0.41461 0.613616,-0.43118 0.6302,-1.14431 0.04975,-0.59703 -0.480942,-0.97846 -0.530694,-0.38144 -2.155946,-0.76288 -2.272035,-0.53069 -3.051493,-1.31015 -0.762873,-0.77946 -0.779457,-1.82426 -0.03317,-1.21065 1.02822,-2.13936 1.077973,-0.9453 2.786146,-0.9453 2.703225,0.13267 4.14605,2.10619 l -1.575499,1.04481 q -0.912131,-1.06139 -2.570551,-1.19407 -0.895547,0 -1.359904,0.33169 -0.464358,0.33168 -0.43119,0.74629 -0.01658,0.46436 0.497526,0.76287 0.514111,0.29852 1.475994,0.48094 2.321788,0.43119 3.366593,1.40966 1.061389,0.96188 1.077973,2.3052 z"
           style="font-family:'Highway Gothic Wide';-inkscape-font-specification:'Highway Gothic Wide Bold';fill:#ffffff;stroke:none"
           id="path4241" />
        <path
           d="m -56.231558,239.25131 h -3.200751 v 9.15448 h -1.940351 v -9.15448 h -3.20075 v -1.95693 h 8.341852 z"
           style="font-family:'Highway Gothic Wide';-inkscape-font-specification:'Highway Gothic Wide Bold';fill:#ffffff;stroke:none"
           id="path4243" />
        <path
           d="m -45.219661,242.80033 q 0,2.60372 -1.260399,4.21239 -1.243815,1.59208 -3.333424,1.59208 -2.28862,0 -3.582188,-1.84084 -1.127725,-1.59209 -1.127725,-3.93046 0,-2.65347 1.260399,-4.17922 1.260399,-1.54233 3.449514,-1.54233 2.05644,0 3.31684,1.5755 1.276983,1.55892 1.276983,4.11288 z m -1.97352,0.0332 q 0,-1.75792 -0.696536,-2.75298 -0.679952,-0.99505 -1.923767,-0.99505 -1.2604,0 -1.97352,0.99505 -0.713121,0.99506 -0.713121,2.75298 0,1.77451 0.713121,2.78615 0.71312,0.99505 1.97352,0.99505 1.426241,0 2.089609,-1.24382 0.530694,-0.97846 0.530694,-2.53738 z"
           style="font-family:'Highway Gothic Wide';-inkscape-font-specification:'Highway Gothic Wide Bold';fill:#ffffff;stroke:none"
           id="path4245" />
        <path
           d="m -37.955794,244.04415 h -3.184166 v 4.36164 h -1.990104 v -11.11141 h 5.107933 q 1.094558,0 1.907183,0.46436 1.708173,0.99505 1.708173,2.9354 0,2.08961 -1.708173,3.00174 -0.812625,0.34827 -1.840846,0.34827 z m 1.558915,-3.35001 q 0,-0.64678 -0.431189,-1.02822 -0.431189,-0.38144 -1.160894,-0.38144 h -3.150998 v 2.76956 h 3.150998 q 0.729705,0 1.160894,-0.36485 0.431189,-0.38144 0.431189,-0.99505 z"
           style="font-family:'Highway Gothic Wide';-inkscape-font-specification:'Highway Gothic Wide Bold';fill:#ffffff;stroke:none"
           id="path4247" />
      </g>
    </g>
  </g>
</svg>
