<?xml version="1.0" encoding="UTF-8" standalone="no"?>
<!-- Created with Inkscape (http://www.inkscape.org/) -->

<svg
   width="47.49271mm"
   height="47.49271mm"
   viewBox="0 0 47.49271 47.49271"
   version="1.1"
   id="svg1"
   xml:space="preserve"
   inkscape:version="1.4.2 (f4327f4, 2025-05-13)"
   sodipodi:docname="SA_road_sign_-_Minimum_speed_limit_(35).svg"
   xmlns:inkscape="http://www.inkscape.org/namespaces/inkscape"
   xmlns:sodipodi="http://sodipodi.sourceforge.net/DTD/sodipodi-0.dtd"
   xmlns="http://www.w3.org/2000/svg"
   xmlns:svg="http://www.w3.org/2000/svg"><sodipodi:namedview
     id="namedview1"
     pagecolor="#ffffff"
     bordercolor="#000000"
     borderopacity="0.25"
     inkscape:showpageshadow="2"
     inkscape:pageopacity="0.0"
     inkscape:pagecheckerboard="0"
     inkscape:deskcolor="#d1d1d1"
     inkscape:document-units="mm"
     inkscape:zoom="1.4164562"
     inkscape:cx="-127.0777"
     inkscape:cy="258.74432"
     inkscape:window-width="1920"
     inkscape:window-height="991"
     inkscape:window-x="-9"
     inkscape:window-y="-9"
     inkscape:window-maximized="1"
     inkscape:current-layer="g1"
     showgrid="false"
     showguides="true" /><defs
     id="defs1" /><g
     inkscape:label="Layer 1"
     inkscape:groupmode="layer"
     id="layer1"
     transform="translate(-130.37344,-115.29219)"><g
       id="g9057"
       transform="matrix(2.1125124,0,0,2.1125124,-33.660916,25.665494)"><g
         id="g1"
         transform="translate(23.327131,2.0353439)"><g
           id="g49606"
           transform="matrix(0.9999912,0,0,0.9999912,-89.974672,-213.08891)"><circle
             style="fill:#042058;fill-opacity:1;stroke:none;stroke-width:1.45119;stroke-linecap:round;stroke-linejoin:round;paint-order:stroke fill markers"
             id="circle15635"
             cx="-155.53867"
             cy="264.7233"
             r="11.2095"
             transform="scale(-1,1)" /></g><path
           id="path4"
           style="baseline-shift:baseline;display:inline;overflow:visible;opacity:1;vector-effect:none;fill-rule:evenodd;stroke-width:0.90521;stroke-linecap:round;stroke-linejoin:round;paint-order:stroke fill markers;enable-background:accumulate;stop-color:#000000;fill:#ffffff"
           d="m 61.746557,44.667055 c -0.08704,9.95e-4 -0.177174,0.02312 -0.265278,0.07042 l -5.566607,3.662504 5.314173,4.02034 c 0.452272,0.282718 1.008394,-0.15202 0.862483,-0.674264 L 61.657319,50.18938 c 1.437293,0.630266 2.412857,1.88513 2.412957,3.336555 v 2.21e-4 5.652081 2.22e-4 h 2.984697 v -2.22e-4 -5.651638 -0.0011 c 4.99e-4,-1.451047 0.975958,-2.705533 2.412956,-3.335669 l -0.434008,1.556454 c -0.145912,0.522244 0.41021,0.956982 0.862482,0.674264 l 5.314173,-4.020119 -5.566607,-3.662725 c -0.0881,-0.0473 -0.178233,-0.0692 -0.265277,-0.0702 -0.377188,-0.0043 -0.697227,0.383979 -0.551147,0.799595 l 0.563105,1.604061 c -1.502383,0.415817 -2.860103,1.24912 -3.827915,2.397014 -0.96783,-1.148065 -2.325609,-1.9816 -3.828136,-2.397456 l 0.563105,-1.603841 c 0.14608,-0.415616 -0.173959,-0.804071 -0.551147,-0.799816 z" /></g></g></g></svg>
