<?xml version="1.0" encoding="UTF-8" standalone="no"?>
<!-- Created with Inkscape (http://www.inkscape.org/) -->

<svg
   version="1.1"
   id="svg5673"
   width="537.61328"
   height="806.41797"
   viewBox="0 0 537.61328 806.41797"
   sodipodi:docname="SA_road_sign_-_Park4.svg"
   inkscape:version="1.4.2 (f4327f4, 2025-05-13)"
   xml:space="preserve"
   xmlns:inkscape="http://www.inkscape.org/namespaces/inkscape"
   xmlns:sodipodi="http://sodipodi.sourceforge.net/DTD/sodipodi-0.dtd"
   xmlns="http://www.w3.org/2000/svg"
   xmlns:svg="http://www.w3.org/2000/svg"
   xmlns:rdf="http://www.w3.org/1999/02/22-rdf-syntax-ns#"
   xmlns:cc="http://creativecommons.org/ns#"
   xmlns:dc="http://purl.org/dc/elements/1.1/"><metadata
     id="metadata5679"><rdf:RDF><cc:Work
         rdf:about=""><dc:format>image/svg+xml</dc:format><dc:type
           rdf:resource="http://purl.org/dc/dcmitype/StillImage" /></cc:Work></rdf:RDF></metadata><defs
     id="defs5677" /><sodipodi:namedview
     pagecolor="#ffffff"
     bordercolor="#666666"
     borderopacity="1"
     objecttolerance="10"
     gridtolerance="10"
     guidetolerance="10"
     inkscape:pageopacity="0"
     inkscape:pageshadow="2"
     inkscape:window-width="1920"
     inkscape:window-height="991"
     id="namedview5675"
     showgrid="false"
     inkscape:zoom="1.3111111"
     inkscape:cx="305.08475"
     inkscape:cy="157.88136"
     inkscape:window-x="-9"
     inkscape:window-y="-9"
     inkscape:window-maximized="1"
     inkscape:current-layer="svg5673"
     inkscape:showpageshadow="2"
     inkscape:pagecheckerboard="0"
     inkscape:deskcolor="#d1d1d1" /><path
     id="rect47"
     style="opacity:1;fill:#042058;fill-rule:evenodd;stroke-width:0.896023;fill-opacity:1"
     d="M 37.751953,0 C 16.836912,0 0,16.836912 0,37.751953 V 768.66602 c 0,20.91504 16.836912,37.75195 37.751953,37.75195 H 499.85938 c 20.91504,0 37.7539,-16.83691 37.7539,-37.75195 V 37.751953 C 537.61328,16.836912 520.77442,0 499.85938,0 Z" /><rect
     style="opacity:1;fill:#ffffff;fill-rule:evenodd;stroke-width:0.558199"
     id="rect46"
     width="376.22281"
     height="447.22495"
     x="80.694931"
     y="86.751862" /><g
     id="g6338"
     transform="scale(1.0312102)" /><g
     id="g10"
     transform="matrix(-1,0,0,1,1851.4805,0)" /><path
     d="m 263.18229,335.72615 -114.38357,123.2303 c -8.32967,8.31823 -21.82859,8.31823 -30.15826,0 -8.35464,-8.31822 -8.35464,-21.82026 0,-30.1385 L 241.32873,312.70034 212.35248,282.39306 c -7.14728,3.8095 -15.30885,5.97947 -23.97648,5.97947 -17.0476,0 -37.23399,-13.26095 -51.3357,-36.57609 l -14.89934,-23.33927 c -18.11023,-29.75272 -16.10491,-38.60138 -16.10491,-42.60378 0,-8.34233 3.33222,-15.91312 8.76417,-21.41038 5.50547,-5.42494 13.74037,-8.72813 22.09518,-8.72813 4.00834,0 12.86922,-2.02531 42.66612,16.08191 l 23.35069,14.87637 c 23.37406,14.05659 36.65458,34.23733 36.65458,51.25957 0,8.65578 -2.68108,17.38388 -6.49634,24.52068 l 30.9077,28.83653 31.27082,-29.27052 c -8.33161,-14.63527 -8.6446,-31.58514 -0.40563,-39.80693 l 75.60412,-74.88817 c 1.58392,-1.54309 3.81508,-2.50752 6.22975,-2.50752 4.94909,0 8.95743,4.0024 8.95743,8.94511 0,2.53163 -1.23639,4.60516 -2.92075,6.2447 l -59.28098,59.19203 c -1.17829,1.2769 -1.62254,3.06206 -1.62254,4.91859 0,3.95417 3.21053,7.1368 7.14748,7.1368 1.48721,0 2.99407,-0.0193 4.1279,-0.79662 l 60.99457,-60.9039 c 1.58392,-1.51801 3.98513,-2.62806 6.35145,-2.62806 4.82916,0 8.76417,3.93006 8.76417,8.75221 0,2.36286 -0.86919,4.8945 -2.38952,6.4858 l -60.89786,60.80745 c -0.79196,1.13225 -0.83057,2.6281 -0.83057,4.12296 0,3.93006 3.21053,7.1368 7.14748,7.1368 1.87371,0 3.67019,-0.434 4.94891,-1.61446 l 59.28116,-59.21614 c 1.64184,-1.66267 3.71837,-2.89329 6.22976,-2.89329 4.94908,0 8.95724,4.00239 8.95724,8.9451 0,2.41107 -0.94642,4.60518 -2.51103,6.2206 l -74.97441,75.49093 c -8.23508,8.22177 -25.0641,8.00478 -39.72218,-0.31248 l -28.90256,30.74126 125.51426,117.10618 c 8.32966,8.31822 8.32966,21.79617 0,30.1385 -8.33161,8.31822 -21.85374,8.31822 -30.18341,0 L 263.17255,335.72712"
     style="fill:#000000;fill-opacity:1;fill-rule:nonzero;stroke:none;stroke-width:0.959216"
     id="path9177" /></svg>
