<?xml version="1.0" encoding="UTF-8" standalone="no"?>
<!-- Created with Inkscape (http://www.inkscape.org/) -->

<svg
   width="47.426121mm"
   height="41.891621mm"
   viewBox="0 0 47.426121 41.891621"
   version="1.1"
   id="svg1"
   xml:space="preserve"
   inkscape:version="1.4.2 (f4327f4, 2025-05-13)"
   sodipodi:docname="SA_road_sign_-_Crosswind.svg"
   xmlns:inkscape="http://www.inkscape.org/namespaces/inkscape"
   xmlns:sodipodi="http://sodipodi.sourceforge.net/DTD/sodipodi-0.dtd"
   xmlns="http://www.w3.org/2000/svg"
   xmlns:svg="http://www.w3.org/2000/svg"><sodipodi:namedview
     id="namedview1"
     pagecolor="#ffffff"
     bordercolor="#000000"
     borderopacity="0.25"
     inkscape:showpageshadow="2"
     inkscape:pageopacity="0.0"
     inkscape:pagecheckerboard="0"
     inkscape:deskcolor="#d1d1d1"
     inkscape:document-units="mm"
     inkscape:zoom="4.0063432"
     inkscape:cx="71.012389"
     inkscape:cy="81.495764"
     inkscape:window-width="1920"
     inkscape:window-height="991"
     inkscape:window-x="-9"
     inkscape:window-y="-9"
     inkscape:window-maximized="1"
     inkscape:current-layer="g2"
     showgrid="false"
     showguides="true" /><defs
     id="defs1" /><g
     inkscape:label="Layer 1"
     inkscape:groupmode="layer"
     id="layer1"
     transform="translate(-127.2733,-115.32548)"><g
       id="g9057"
       transform="matrix(2.1125124,0,0,2.1125124,-33.660916,25.665494)"><g
         id="g1"
         transform="translate(23.327131,2.0353439)"><path
           style="fill:#c50000;fill-opacity:1;stroke:none;stroke-width:0.0313115;stroke-dasharray:none;stroke-opacity:1"
           id="path7446-3"
           fill="#ec1d24"
           d="m 54.356591,60.221586 c -0.534546,0 -1.024599,-0.281539 -1.288025,-0.741266 -0.264822,-0.459118 -0.264822,-1.026003 0,-1.48648 l 9.722381,-16.831825 c 0.266235,-0.459074 0.753242,-0.73935 1.282197,-0.73935 0.0018,0 0.0035,-9e-6 0.0062,0 0.0018,-9e-6 0.0035,0 0.0062,0 0.528973,0 1.015962,0.280276 1.282197,0.73935 l 9.722452,16.831825 c 0.264795,0.460477 0.264795,1.027362 0,1.48648 -0.263427,0.459727 -0.75348,0.741266 -1.288043,0.741266 z"
           clip-rule="evenodd"
           fill-rule="evenodd" /><path
           id="path7448-9"
           fill="#ffffff"
           d="M 55.214376,58.240637 H 72.943621 L 64.078999,42.894824 Z"
           clip-rule="evenodd"
           fill-rule="evenodd"
           style="fill:#ffffff;fill-opacity:1;stroke-width:0.0622609" /><g
           id="g2"
           transform="matrix(0.10330273,0,0,0.10330273,11.316291,24.071054)"><g
             id="g3"
             transform="translate(-0.56206144)"><path
               id="path31020"
               style="fill:#000000;stroke:none;stroke-width:6.82562;stroke-linecap:round;stroke-linejoin:round;stroke-opacity:1;paint-order:stroke fill markers"
               d="m 511.80163,222.64347 -17.967,21.61609 v 23.59078 c 0.6704,0.26245 1.27878,0.52235 1.72735,0.76001 1.79851,0.9537 1.73514,1.12657 3.61371,1.12657 1.93354,0 1.51239,-0.0513 3.16312,-0.98961 h 0.004 l 0.009,-0.009 c 1.66207,-0.93413 4.95162,-2.63297 9.37004,-2.63297 4.4524,0 7.75902,1.81775 9.30822,2.78753 1.53607,0.96176 0.64058,0.83951 2.61532,0.83951 h 0.23406 c 0.009,-5.2e-4 0.0112,5e-4 0.0215,0 0.53063,-0.0341 1.1172,-0.10765 1.58154,-0.20347 l 0.009,-0.009 h 0.0112 c 0.44854,-0.0907 0.96323,-0.24194 1.3253,-0.37104 0.36247,-0.1291 1.01738,-0.60867 0.0187,0.0685 l -0.0795,0.0599 c 0.54524,-0.38726 1.59071,-1.09323 3.00409,-1.7538 v -23.26833 z m 0.93213,65.15748 c -0.21294,-0.004 -0.5225,0.004 -1.01606,0.004 -1.93355,0 -1.50902,0.0513 -3.16312,0.98963 -1.69994,0.96243 -4.98557,2.62851 -9.38331,2.62851 -2.03097,0 -3.81237,-0.35221 -5.33664,-0.81727 v 34.34802 l 17.88747,-18.09515 18.05097,18.09515 v -34.39665 c -0.60339,0.15633 -1.20022,0.29066 -1.78038,0.40606 -1.00545,0.20347 -2.02126,0.34281 -3.04381,0.42829 l -0.19876,0.0168 h -0.19004 -0.0112 c -0.4359,0.0341 -0.75889,0.009 -0.98077,0 -4.3858,-0.0256 -7.66475,-1.76663 -9.22425,-2.73016 l -0.0112,-0.009 -0.0112,-0.009 c -1.1813,-0.73947 -0.94249,-0.85146 -1.58157,-0.86146 z" /><path
               id="path47056"
               style="color:#000000;fill:#000000;stroke-width:9.65073;-inkscape-stroke:none;paint-order:stroke fill markers"
               d="m 486.04171,279.871 c -3.65202,0 -5.52662,1.43579 -6.86961,2.39001 -0.29463,0.20026 -1.6361,0.74354 -3.09685,1.03818 -0.74218,0.15316 -1.55506,0.25786 -2.33259,0.30482 h -0.22529 -0.44177 v 2.98198 c 0.0636,0.002 0.12089,0.009 0.18544,0.009 0.1885,0.0112 0.4006,0.0241 0.63613,0 0.0823,0 0.18699,-0.009 0.26962,-0.009 0.84822,-0.0709 1.68319,-0.1885 2.49601,-0.3534 1.70819,-0.34163 3.14844,-0.75397 4.23224,-1.51972 1.51969,-1.06025 2.15439,-1.85104 5.14667,-1.85104 2.75668,0 4.11146,0.76723 5.86677,1.70968 1.7553,0.93064 3.89795,2.02331 7.26721,2.02331 3.34572,0 5.40882,-1.09411 7.01099,-2.00122 1.60218,-0.90711 2.77874,-1.61248 5.53542,-1.61248 2.76847,0 3.71095,0.68329 5.15993,1.59039 1.44904,0.89529 3.4179,2.02331 6.76361,2.02331 0.18848,0.0112 0.40062,0.0241 0.63615,0 0.0823,0 0.18699,-0.009 0.26962,-0.009 0.84822,-0.0709 1.68759,-0.18848 2.50045,-0.35338 1.70817,-0.34165 3.144,-0.75397 4.2278,-1.51973 1.51973,-1.06026 2.15439,-1.85103 5.14667,-1.85103 2.75662,0 4.11146,0.76723 5.86677,1.70968 1.75535,0.93063 3.90237,2.0233 7.27165,2.0233 v -2.99081 c -2.75667,0 -4.11148,-0.75247 -5.86681,-1.68315 -1.75531,-0.93067 -3.90238,-2.04985 -7.27161,-2.04985 -3.65202,0 -5.5222,1.43579 -6.86519,2.39001 -0.29465,0.20025 -1.64045,0.74352 -3.10127,1.03817 -0.74216,0.15317 -1.55502,0.25786 -2.33255,0.30482 h -0.22106 -0.26057 c -2.75667,0 -3.72416,-0.67003 -5.17317,-1.57713 -1.44904,-0.90709 -3.39287,-2.04983 -6.75036,-2.04983 -3.35746,0 -5.39261,1.10739 -7.00655,2.0145 -1.60218,0.90711 -2.78319,1.61246 -5.53986,1.61246 -2.75666,0 -4.11144,-0.75247 -5.86676,-1.68315 -1.75533,-0.93067 -3.89794,-2.04985 -7.2672,-2.04985 z" /><path
               id="path47050"
               style="color:#000000;fill:#000000;stroke-width:9.65073;-inkscape-stroke:none;paint-order:stroke fill markers"
               d="m 486.04171,270.82345 c -3.65202,0 -5.52662,1.43579 -6.86961,2.39001 -0.29463,0.20025 -1.6361,0.74351 -3.09685,1.03817 -0.74218,0.15316 -1.55506,0.25786 -2.33259,0.30482 h -0.22529 -0.44177 v 2.98199 c 0.0636,0.002 0.12089,0.009 0.18544,0.009 0.1885,0.0112 0.4006,0.0241 0.63613,0 0.0823,0 0.18699,-0.009 0.26962,-0.009 0.84822,-0.0709 1.68319,-0.18851 2.49601,-0.35341 1.70819,-0.34163 3.14844,-0.75396 4.23224,-1.51972 1.51969,-1.06024 2.15439,-1.85104 5.14667,-1.85104 2.75668,0 4.11146,0.76723 5.86677,1.70968 1.7553,0.93064 3.89795,2.02331 7.26721,2.02331 3.34572,0 5.40882,-1.09412 7.01099,-2.00122 1.60218,-0.90711 2.77874,-1.6125 5.53542,-1.6125 2.76847,0 3.71095,0.68332 5.15993,1.59041 1.44904,0.89529 3.4179,2.02331 6.76361,2.02331 0.18848,0.0112 0.40062,0.0241 0.63615,0 0.0823,0 0.18699,-0.009 0.26962,-0.009 0.84822,-0.0709 1.68759,-0.18848 2.50045,-0.35338 1.70817,-0.34165 3.144,-0.75397 4.2278,-1.51972 1.51973,-1.06027 2.15439,-1.85104 5.14667,-1.85104 2.75662,0 4.11146,0.76723 5.86677,1.70968 1.75535,0.93064 3.90237,2.0233 7.27165,2.0233 v -2.99082 c -2.75667,0 -4.11148,-0.75246 -5.86681,-1.68314 -1.75531,-0.93067 -3.90238,-2.04985 -7.27161,-2.04985 -3.65202,0 -5.5222,1.43579 -6.86519,2.39001 -0.29465,0.20025 -1.64045,0.74352 -3.10127,1.03817 -0.74216,0.15317 -1.55502,0.25785 -2.33255,0.30481 h -0.22106 -0.26057 c -2.75667,0 -3.72416,-0.67004 -5.17317,-1.57711 -1.44904,-0.9071 -3.39287,-2.04984 -6.75036,-2.04984 -3.35746,0 -5.39261,1.10739 -7.00655,2.0145 -1.60218,0.9071 -2.78319,1.61245 -5.53986,1.61245 -2.75666,0 -4.11144,-0.75246 -5.86676,-1.68314 -1.75533,-0.93067 -3.89794,-2.04985 -7.2672,-2.04985 z" /></g></g></g></g></g></svg>
