<?xml version="1.0" encoding="UTF-8" standalone="no"?>
<!-- Created with Inkscape (http://www.inkscape.org/) -->

<svg
   width="47.49271mm"
   height="47.49271mm"
   viewBox="0 0 47.49271 47.49271"
   version="1.1"
   id="svg1"
   xml:space="preserve"
   inkscape:version="1.4.2 (f4327f4, 2025-05-13)"
   sodipodi:docname="555555.svg"
   xmlns:inkscape="http://www.inkscape.org/namespaces/inkscape"
   xmlns:sodipodi="http://sodipodi.sourceforge.net/DTD/sodipodi-0.dtd"
   xmlns="http://www.w3.org/2000/svg"
   xmlns:svg="http://www.w3.org/2000/svg"><sodipodi:namedview
     id="namedview1"
     pagecolor="#ffffff"
     bordercolor="#000000"
     borderopacity="0.25"
     inkscape:showpageshadow="2"
     inkscape:pageopacity="0.0"
     inkscape:pagecheckerboard="0"
     inkscape:deskcolor="#d1d1d1"
     inkscape:document-units="mm"
     inkscape:zoom="1.0015858"
     inkscape:cx="-120.30921"
     inkscape:cy="176.22055"
     inkscape:window-width="1920"
     inkscape:window-height="991"
     inkscape:window-x="-9"
     inkscape:window-y="-9"
     inkscape:window-maximized="1"
     inkscape:current-layer="g1" /><defs
     id="defs1" /><g
     inkscape:label="Layer 1"
     inkscape:groupmode="layer"
     id="layer1"
     transform="translate(-130.37344,-115.29219)"><g
       id="g9057"
       transform="matrix(2.1125124,0,0,2.1125124,-33.660916,25.665494)"><g
         id="g1"
         transform="translate(23.327131,2.0353439)"><g
           id="g6052"
           transform="matrix(0.9999912,0,0,0.9999912,-102.15129,-25.265162)"><circle
             style="opacity:1;fill:#042058;fill-opacity:1;stroke:none;stroke-width:9.26123;stroke-linecap:round;stroke-linejoin:round;stroke-dasharray:none;stroke-opacity:1;paint-order:stroke fill markers"
             id="circle16283-9"
             cx="167.71539"
             cy="76.897896"
             r="11.2095" /><circle
             style="opacity:1;fill:#ffffff;stroke:none;stroke-width:1.16353;stroke-linecap:round;stroke-linejoin:round;stroke-dasharray:none;stroke-opacity:1;paint-order:stroke fill markers"
             id="path3530"
             cx="164.4877"
             cy="68.894699"
             r="1.3453224" /><path
             id="circle3532"
             style="opacity:1;fill:#ffffff;stroke:none;stroke-width:0.757018;stroke-linecap:round;stroke-linejoin:round;stroke-dasharray:none;stroke-opacity:1;paint-order:stroke fill markers"
             d="m 171.38126,73.531547 c -0.48324,1.2e-4 -0.87495,0.391834 -0.87508,0.875076 -1.3e-4,0.483418 0.39166,0.875406 0.87508,0.875526 0.48359,1.26e-4 0.87565,-0.391933 0.87552,-0.875526 -1.1e-4,-0.483417 -0.3921,-0.875202 -0.87552,-0.875076 z m -1.12529,2.029221 0.0181,0.0012 c -0.0489,-0.0051 -0.0982,0.0052 -0.14111,0.02931 0,0 -0.27513,0.145252 -0.44678,0.297101 -0.20014,0.177058 -0.35399,0.396752 -0.44363,0.518011 l -0.81015,-0.288985 c -0.2715,-0.09616 -0.44924,0.28194 -0.20198,0.42965 l 0.96976,0.577522 c 0.077,0.04605 0.17332,0.04501 0.24931,-0.0028 0,0 0.23973,-0.149851 0.47743,-0.268701 0.0832,-0.04162 0.14876,-0.06517 0.2146,-0.08971 0.0739,0.409961 0.13149,0.8849 0.12804,1.199228 -0.003,0.318646 -0.10524,0.850313 -0.20828,1.286241 -0.10305,0.435935 -0.20469,0.782206 -0.20469,0.782206 -0.0482,0.163864 0.0864,0.323814 0.25608,0.304316 l 0.0545,-0.0063 0.24345,3.102667 -0.39448,0.670848 c -0.123,0.208987 0.10806,0.446879 0.32054,0.330015 l 0.60773,-0.333623 c 0.0716,-0.03941 0.11805,-0.11273 0.12308,-0.194308 l 0.10839,-3.647734 0.43758,1.443584 -0.29711,1.148738 c -0.005,0.02136 -0.008,0.04335 -0.007,0.06537 0,0 0.002,0.07652 0.0118,0.169062 0.01,0.09254 0.0181,0.195824 0.0739,0.314688 0.071,0.151203 0.18038,0.263583 0.27682,0.362473 0.0964,0.09889 0.18168,0.173122 0.18168,0.173122 0.16586,0.144465 0.42224,0.0065 0.39313,-0.211442 0,0 -0.0373,-0.330597 -0.11541,-0.553631 -0.0625,-0.178584 -0.15534,-0.323335 -0.20423,-0.404399 l 0.35255,-1.060375 c 0.009,-0.02616 0.0128,-0.0536 0.0122,-0.08115 l -0.0401,-1.531046 0.073,-0.0085 c 0.14537,-0.01644 0.24182,-0.158665 0.20333,-0.299807 0,0 -0.33039,-1.216543 -0.4053,-1.790729 -0.0398,-0.305242 -0.0551,-0.781716 -0.0654,-1.202835 0.0418,-0.008 0.069,-0.03685 0.10567,-0.03261 0.0406,0.0047 0.0764,0.03715 0.10577,0.06192 0.0689,0.05806 0.14461,0.146992 0.1853,0.246609 0.23125,0.566245 0.34083,1.647362 0.34083,1.647362 0.0259,0.29873 0.46665,0.286625 0.47609,-0.01308 0,0 -3.1e-4,-0.02927 -3.1e-4,-0.0302 v -0.0012 c 8.7e-4,-0.02699 0.0134,-0.393484 -0.0216,-0.866062 -0.0363,-0.489622 -0.1058,-1.057757 -0.35075,-1.455756 -0.14429,-0.234421 -0.38578,-0.386085 -0.59691,-0.513053 -0.21112,-0.126971 -0.39674,-0.211892 -0.39674,-0.211892 -0.0296,-0.01388 -0.0616,-0.02154 -0.0942,-0.02256 z"
             sodipodi:nodetypes="ssssscccscccccscsscscccccccccccssccsccccccscassccscsssccc" /><path
             id="path3534"
             style="color:#000000;opacity:1;fill:#ffffff;fill-rule:evenodd;stroke-width:0.307772;stroke-linecap:round;-inkscape-stroke:none"
             d="m 162.74816,70.153867 c -0.1522,-0.04301 -0.30336,0.07131 -0.30341,0.229475 l 0.002,-0.0311 c -0.24817,1.099944 -0.55586,2.146046 -0.7281,3.217632 -0.20248,1.327483 -0.11362,3.778023 -0.11362,3.778023 0.008,0.250434 0.21753,0.447254 0.46798,0.439566 0.25067,-0.0076 0.4477,-0.217299 0.44001,-0.46797 0,0 -0.0655,-2.503825 0.10369,-3.613017 0.0261,-0.170617 0.0767,-0.391899 0.13841,-0.62937 l 0.31695,4.518302 0.0414,4.12742 c 1.4e-4,0.02025 0.003,0.0404 0.008,0.05996 l 0.68797,2.529201 -0.58563,0.965244 c -0.13529,0.2226 0.13319,0.469959 0.34399,0.316938 l 1.13701,-0.823679 c 0.0674,-0.04858 0.10455,-0.128663 0.0983,-0.211445 l -0.19792,-2.542727 0.21143,-3.968729 0.79846,1.384979 -0.6154,3.902904 c -0.017,0.107447 0.0409,0.212773 0.14066,0.256075 l 1.02882,0.446782 c 0.21728,0.0947 0.42473,-0.151129 0.29484,-0.349402 l -0.50494,-0.774087 0.90799,-3.240173 c 0.0112,-0.03956 0.012,-0.08133 0.002,-0.121277 0,0 -0.76594,-3.125768 -0.91745,-4.670683 -0.0353,-0.359207 -0.0313,-0.857093 -0.0212,-1.261896 l 1.49543,2.440839 c 0.13105,0.21352 0.4103,0.280506 0.62396,0.149678 0.21388,-0.131074 0.28092,-0.411078 0.14968,-0.624863 l -1.29004,-2.224017 c 0,0 -0.29953,-0.701154 -0.43264,-1.058234 -0.20104,-0.539291 -0.55225,-1.635942 -0.55225,-1.635942 -0.0279,-0.110711 -0.13035,-0.186128 -0.24436,-0.179883 0,0 -0.99522,0.04919 -1.43005,0.0012 -0.4714,-0.05189 -1.50265,-0.335871 -1.50265,-0.335871 z"
             sodipodi:nodetypes="cccccccscccccccccccccccccccscccccaccscc" /></g></g></g></g></svg>
