<?xml version="1.0" encoding="UTF-8" standalone="no"?>
<!-- Created with Inkscape (http://www.inkscape.org/) -->

<svg
   width="47.49271mm"
   height="47.49271mm"
   viewBox="0 0 47.49271 47.49271"
   version="1.1"
   id="svg1"
   xml:space="preserve"
   inkscape:version="1.4.2 (f4327f4, 2025-05-13)"
   sodipodi:docname="SA_road_sign_-_Mandatory_traffic_direction_in_the_roundabout.svg"
   xmlns:inkscape="http://www.inkscape.org/namespaces/inkscape"
   xmlns:sodipodi="http://sodipodi.sourceforge.net/DTD/sodipodi-0.dtd"
   xmlns="http://www.w3.org/2000/svg"
   xmlns:svg="http://www.w3.org/2000/svg"><sodipodi:namedview
     id="namedview1"
     pagecolor="#ffffff"
     bordercolor="#000000"
     borderopacity="0.25"
     inkscape:showpageshadow="2"
     inkscape:pageopacity="0.0"
     inkscape:pagecheckerboard="0"
     inkscape:deskcolor="#d1d1d1"
     inkscape:document-units="mm"
     inkscape:zoom="1.4142136"
     inkscape:cx="42.426407"
     inkscape:cy="224.85996"
     inkscape:window-width="1920"
     inkscape:window-height="991"
     inkscape:window-x="-9"
     inkscape:window-y="-9"
     inkscape:window-maximized="1"
     inkscape:current-layer="g1"
     showgrid="false"
     showguides="true" /><defs
     id="defs1" /><g
     inkscape:label="Layer 1"
     inkscape:groupmode="layer"
     id="layer1"
     transform="translate(-130.37344,-115.29219)"><g
       id="g9057"
       transform="matrix(2.1125124,0,0,2.1125124,-33.660916,25.665494)"><g
         id="g1"
         transform="translate(23.327131,2.0353439)"><g
           id="g12"
           transform="matrix(-1,0,0,1,131.12525,0)"><g
             id="g10"
             transform="rotate(-135,65.562625,51.632057)"><g
               id="g8"
               transform="matrix(-1,0,0,1,131.12525,0)"><g
                 id="g49606"
                 transform="matrix(0.9999912,0,0,0.9999912,-89.974672,-213.08891)"><circle
                   style="fill:#042058;fill-opacity:1;stroke:none;stroke-width:1.45119;stroke-linecap:round;stroke-linejoin:round;paint-order:stroke fill markers"
                   id="circle15635"
                   cx="-155.53867"
                   cy="264.7233"
                   r="11.2095"
                   transform="scale(-1,1)" /></g></g></g></g><g
           id="g13"
           transform="matrix(2.1124937,0,0,2.1124937,-60.401267,-107.60929)"
           style="fill:#ffffff"><path
             id="rect6964"
             style="fill:#ffffff;stroke:none;stroke-width:0.218536;stroke-linecap:round;stroke-linejoin:round;stroke-dasharray:none;stroke-opacity:1;paint-order:stroke fill markers"
             d="m 59.36461,71.251824 a 0.44814925,0.44814925 0 0 0 -0.448145,0.448145 0.44814925,0.44814925 0 0 0 0.448145,0.448145 0.44814925,0.44814925 0 0 0 0.448144,-0.448145 0.44814925,0.44814925 0 0 0 -0.448144,-0.448145 z m 0.449611,1.005391 c -0.0079,-1.15e-4 -0.01567,8.04e-4 -0.02324,0.0029 l -0.428334,0.121331 c -0.0338,0.0097 -0.05723,0.04023 -0.05797,0.07534 0,0 -0.04502,0.242192 -0.09271,0.3547 -0.05814,0.137142 -0.232145,0.381608 -0.232145,0.381608 v -4.73e-4 c 0,0 -0.0028,0.0036 -0.0033,0.0042 l -0.06042,0.06654 c -0.0077,0.0085 -0.01344,0.01844 -0.0169,0.02935 -0.12666,0.152007 -0.396159,0.450584 -0.746334,0.69032 -0.0033,0.0024 -0.007,0.0049 -0.01051,0.0073 l -0.934944,-0.125979 -0.05088,-0.01688 -0.415614,1.071438 0.03839,0.01101 c 0,0 0.0586,0.03364 0.139431,0.08488 -0.07684,0.07543 -0.152203,0.147846 -0.225542,0.210618 -0.118556,0.101474 -0.233258,0.180763 -0.345158,0.223584 -0.111895,0.04282 -0.219511,0.05111 -0.336353,0.0115 -0.02196,-0.0075 -0.04653,-0.03273 -0.06752,-0.07608 -0.0053,-0.01084 -0.01004,-0.02259 -0.01467,-0.03498 0.322388,-0.141111 0.69423,-0.46429 0.69423,-0.46429 l 0.01174,0.0034 0.417076,-1.075597 -1.278387,-0.419769 c 0,0 -0.0195,0.114846 9.46e-4,0.166342 0.0257,0.06471 0.142366,0.152888 0.142366,0.152888 0,0 -0.124747,0.307362 -0.268102,0.649713 -0.159351,0.380522 -0.328808,0.808825 -0.105921,1.006614 0.06599,0.05856 0.168145,0.05613 0.283761,0.02006 0.0056,0.0149 0.01174,0.02924 0.0186,0.0433 0.02783,0.05736 0.06798,0.110288 0.130872,0.131607 0.141401,0.04793 0.28015,0.03715 0.410474,-0.01272 0.130328,-0.04987 0.253698,-0.136955 0.377205,-0.242663 0.08186,-0.07007 0.164557,-0.149729 0.248045,-0.231901 0.168449,0.113464 0.379894,0.274395 0.466246,0.420992 0.122655,0.208234 0.126717,0.713804 0.126717,0.713804 0,0 -0.149387,0.665736 -0.273731,0.981907 -0.07539,0.1917 -0.214669,0.462823 -0.339288,0.693011 -0.135289,0.249903 -0.17207,0.279969 -0.134054,0.422949 0.01936,0.07278 0.09168,0.162754 0.166342,0.152888 0.443387,-0.05859 0.716985,-1.134062 0.716985,-1.134062 l 0.669525,-1.065323 c 0,0 0.281793,0.599205 0.478478,0.862777 0.303416,0.406605 1.065812,1.086605 1.065812,1.086605 0,0 0.243941,-0.06264 0.05944,-0.400933 -0.124652,-0.228566 -0.670239,-0.712556 -0.759058,-0.8936 -0.251421,-0.512508 -0.24468,-0.636715 -0.185911,-0.636258 0.39711,0.0031 0.797993,-0.01079 1.091743,-0.06042 0.231198,-0.03906 0.663409,-0.233613 0.663409,-0.233613 l -0.109103,1.251969 -0.451079,0.738265 c 0,0 -0.07205,0.219655 -0.0069,0.291833 0.05698,0.06308 0.254161,0.02006 0.254161,0.02006 l 0.7889,-1.345903 0.05895,-0.514927 0.131853,-0.215755 0.901429,0.924422 c 0,0 0.0054,0.61293 0.157779,0.862043 0.144652,0.236313 0.648488,0.460132 0.648488,0.460132 0,0 0.04526,-0.163329 -0.02447,-0.365708 -0.08604,-0.249637 -0.282057,-0.520017 -0.324126,-0.737532 -0.05062,-0.261799 -0.06238,-0.797708 -0.06238,-0.797708 0,0 -0.246147,-0.236074 -0.326568,-0.383565 -0.0482,-0.08842 -0.08733,-0.289387 -0.08733,-0.289387 0,0 0.240282,0.228994 0.369867,0.33244 0.07396,0.05904 0.151233,0.213381 0.2319,0.163896 0.0876,-0.05373 0.01557,-0.133367 -0.0445,-0.305042 -0.04293,-0.122526 -0.08659,-0.278227 -0.110324,-0.452304 -0.05008,-0.367522 0.02864,-0.830397 -0.157291,-1.044041 -0.323269,-0.371423 -1.386264,-0.510524 -1.386264,-0.510524 l -1.014442,0.05577 -0.03058,-0.0012 c -0.03191,-0.30584 -0.07593,-0.681703 -0.122556,-0.933962 -0.05607,-0.303398 -0.220159,-0.875497 -0.220159,-0.875497 -0.0089,-0.03108 -0.0356,-0.0538 -0.06776,-0.05749 l -4.73e-4,2.44e-4 c -0.0028,-2.95e-4 -0.0052,-4.51e-4 -0.0078,-4.73e-4 z M 59.221505,73.5926 c 0.0079,-6.16e-4 0.01562,7.2e-5 0.02154,0.0037 v 2.45e-4 c 0.03247,0.02515 0.02689,0.05277 0.02395,0.08072 -0.0048,0.04347 -0.100411,0.150752 -0.165362,0.21282 -0.07602,0.07264 -0.257589,0.181998 -0.257589,0.181998 l -0.203526,-0.0071 -0.23899,-0.02862 c 0.404054,-0.259188 0.683059,-0.406923 0.757344,-0.430288 0.0081,-0.0022 0.01813,-0.0049 0.02888,-0.0066 0.0069,-0.0011 0.02059,-0.0058 0.03375,-0.0068 z" /></g></g></g></g></svg>
