<?xml version="1.0" encoding="UTF-8" standalone="no"?>
<!-- Created with Inkscape (http://www.inkscape.org/) -->

<svg
   width="47.426121mm"
   height="41.891621mm"
   viewBox="0 0 47.426121 41.891621"
   version="1.1"
   id="svg1"
   xml:space="preserve"
   inkscape:version="1.4.2 (f4327f4, 2025-05-13)"
   sodipodi:docname="SA_road_sign_-_Minimum_speed_limit_(35).svg"
   xmlns:inkscape="http://www.inkscape.org/namespaces/inkscape"
   xmlns:sodipodi="http://sodipodi.sourceforge.net/DTD/sodipodi-0.dtd"
   xmlns="http://www.w3.org/2000/svg"
   xmlns:svg="http://www.w3.org/2000/svg"><sodipodi:namedview
     id="namedview1"
     pagecolor="#ffffff"
     bordercolor="#000000"
     borderopacity="0.25"
     inkscape:showpageshadow="2"
     inkscape:pageopacity="0.0"
     inkscape:pagecheckerboard="0"
     inkscape:deskcolor="#d1d1d1"
     inkscape:document-units="mm"
     inkscape:zoom="2"
     inkscape:cx="81"
     inkscape:cy="153.75"
     inkscape:window-width="1920"
     inkscape:window-height="991"
     inkscape:window-x="-9"
     inkscape:window-y="-9"
     inkscape:window-maximized="1"
     inkscape:current-layer="g1"
     showgrid="false"
     showguides="true" /><defs
     id="defs1" /><g
     inkscape:label="Layer 1"
     inkscape:groupmode="layer"
     id="layer1"
     transform="translate(-127.2733,-115.32548)"><g
       id="g9057"
       transform="matrix(2.1125124,0,0,2.1125124,-33.660916,25.665494)"><g
         id="g1"
         transform="translate(23.327131,2.0353439)"><g
           id="g48862"
           transform="matrix(0.88312229,0,0,0.88312229,-152.19546,-140.88205)"><path
             style="opacity:1;fill:#c50000;fill-opacity:1;stroke:none;stroke-width:0.035455;stroke-dasharray:none;stroke-opacity:1"
             id="path7446-3"
             fill="#ec1d24"
             d="m 233.88837,227.71864 c -0.60528,0 -1.16019,-0.31879 -1.45847,-0.83936 -0.29987,-0.51987 -0.29987,-1.16177 0,-1.68319 l 11.00897,-19.05923 c 0.30147,-0.51982 0.85292,-0.83719 1.45188,-0.83719 0.002,0 0.004,-1e-5 0.007,0 0.002,-1e-5 0.004,0 0.007,0 0.59897,0 1.1504,0.31737 1.45187,0.83719 l 11.00905,19.05923 c 0.29984,0.52142 0.29984,1.16332 0,1.68319 -0.29828,0.52057 -0.85319,0.83936 -1.45849,0.83936 z"
             clip-rule="evenodd"
             fill-rule="evenodd" /><path
             id="path7448-9"
             fill="#ffffff"
             d="m 234.8597,225.47578 h 20.07564 l -10.03782,-17.37677 z"
             clip-rule="evenodd"
             fill-rule="evenodd"
             style="opacity:1;fill:#ffffff;fill-opacity:1;stroke-width:0.0705009" /></g><path
           id="path14"
           style="fill:#000000;fill-opacity:1;fill-rule:evenodd;stroke:none;stroke-width:0.0102262;stroke-linecap:round;stroke-linejoin:round;stroke-dasharray:none;stroke-opacity:1;paint-order:stroke fill markers"
           d="m 61.595791,48.154031 c -0.104038,-0.005 -0.210858,0.04767 -0.26133,0.160796 l -1.005481,2.921324 3.08775,-0.102482 c 0.245963,-0.02996 0.326944,-0.346453 0.125577,-0.490833 l -0.378896,-0.271939 c 0.294465,-0.0944 0.603305,-0.143191 0.915845,-0.143187 0.765974,9e-6 1.502935,0.293001 2.059824,0.818921 l 1.150833,-1.218602 c -0.925342,-0.873856 -2.1669,-1.332778 -3.438138,-1.270853 -0.621693,0.03026 -1.22883,0.184207 -1.786658,0.450417 l -0.224595,-0.668517 c -0.03942,-0.117439 -0.140692,-0.18006 -0.244731,-0.185045 z m 5.922037,2.744722 -1.455177,2.725381 c -0.09703,0.227994 0.136577,0.456342 0.362297,0.354142 l 0.617348,-0.279228 c -0.188519,1.189184 -1.07975,2.170381 -2.282326,2.450555 l 0.380267,1.632428 c 2.011843,-0.4687 3.464597,-2.196147 3.604132,-4.23216 l 0.526557,0.106452 c 0.24283,0.04916 0.419505,-0.225548 0.274032,-0.426096 z m -7.925567,1.012339 c -0.541741,1.84608 0.105804,3.805495 1.570939,4.972847 l -0.36872,0.417869 c -0.16399,0.185715 -0.01438,0.476054 0.232029,0.450345 l 3.032684,-0.589851 -1.632645,-2.622899 c -0.148932,-0.198027 -0.463522,-0.109889 -0.487874,0.136691 l -0.05875,0.592305 c -0.507103,-0.546644 -0.800801,-1.272327 -0.800805,-2.040626 0,-0.285932 0.04088,-0.570395 0.121391,-0.844757 z" /></g></g></g></svg>
