<?xml version="1.0" encoding="UTF-8" standalone="no"?>
<!-- Created with Inkscape (http://www.inkscape.org/) -->

<svg
   width="47.49271mm"
   height="47.49271mm"
   viewBox="0 0 47.49271 47.49271"
   version="1.1"
   id="svg1"
   xml:space="preserve"
   inkscape:version="1.4.2 (f4327f4, 2025-05-13)"
   sodipodi:docname="555555.svg"
   xmlns:inkscape="http://www.inkscape.org/namespaces/inkscape"
   xmlns:sodipodi="http://sodipodi.sourceforge.net/DTD/sodipodi-0.dtd"
   xmlns="http://www.w3.org/2000/svg"
   xmlns:svg="http://www.w3.org/2000/svg"><sodipodi:namedview
     id="namedview1"
     pagecolor="#ffffff"
     bordercolor="#000000"
     borderopacity="0.25"
     inkscape:showpageshadow="2"
     inkscape:pageopacity="0.0"
     inkscape:pagecheckerboard="0"
     inkscape:deskcolor="#d1d1d1"
     inkscape:document-units="mm"
     inkscape:zoom="1.4164562"
     inkscape:cx="-3.8829297"
     inkscape:cy="47.654138"
     inkscape:window-width="1920"
     inkscape:window-height="991"
     inkscape:window-x="-9"
     inkscape:window-y="-9"
     inkscape:window-maximized="1"
     inkscape:current-layer="g1" /><defs
     id="defs1" /><g
     inkscape:label="Layer 1"
     inkscape:groupmode="layer"
     id="layer1"
     transform="translate(-130.37344,-115.29219)"><g
       id="g9057"
       transform="matrix(2.1125124,0,0,2.1125124,-33.660916,25.665494)"><g
         id="g1"
         transform="translate(23.327131,2.0353439)"><g
           id="g49606"
           transform="matrix(0.9999912,0,0,0.9999912,-89.974672,-213.08891)"><circle
             style="fill:#042058;fill-opacity:1;stroke:none;stroke-width:1.45119;stroke-linecap:round;stroke-linejoin:round;paint-order:stroke fill markers"
             id="circle15635"
             cx="-155.53867"
             cy="264.7233"
             r="11.2095"
             transform="scale(-1,1)" /><path
             sodipodi:nodetypes="zzzzzssszzzzzczszszzzszzzssszs"
             inkscape:connector-curvature="0"
             id="path15020-6-6"
             d="m 159.21437,270.10051 c -0.55279,-0.0721 -0.85525,-0.17221 -1.2011,-0.42546 -0.34585,-0.25323 -0.44862,-0.49943 -0.65632,-0.95637 -0.20771,-0.45696 -0.0903,-1.42245 0.0189,-2.05393 0.10905,-0.63147 0.18934,-0.99857 0.27174,-1.30844 0.0825,-0.30985 0.0581,-0.34225 0.18349,-0.76918 0.32109,-1.0932 0.68231,-2.0399 1.06149,-2.78551 0.26842,-0.52785 0.54587,-0.97507 0.82441,-1.21277 0.65098,-0.55558 1.8344,-0.29029 2.31794,0.23762 0.48358,0.52789 0.87119,0.99599 1.18212,1.68336 0.31096,0.68736 0.40624,1.43026 0.52801,2.03011 0.12175,0.59983 0.0945,1.36672 0.0868,1.98544 -0.008,0.61872 -0.0563,1.39444 -0.23468,1.95218 -0.17841,0.55772 -0.65055,0.92212 -1.17642,1.19165 -0.54661,0.28015 -2.65349,0.50343 -3.20628,0.4313 z m 2.06658,-2.79321 c 0.3194,-0.0601 0.42722,-0.10277 0.62474,-0.15307 0.19755,-0.0504 0.22521,-0.0538 0.37172,-0.11114 0.078,-0.0306 0.0594,-0.22526 0.0511,-0.42308 -0.008,-0.19783 -0.20888,-1.0414 -0.30558,-1.32219 -0.0967,-0.28082 -0.21501,-0.59426 -0.35451,-0.86097 -0.1395,-0.26673 -0.27743,-0.47802 -0.42313,-0.6842 -0.1656,-0.23432 -0.35352,-0.38558 -0.49755,-0.41695 -0.14404,-0.0313 -0.45853,-0.0702 -0.74127,0.16378 -0.28275,0.23403 -0.55429,0.81196 -0.72909,1.32724 -0.17479,0.51524 -0.21729,0.73713 -0.30545,1.08209 -0.0549,0.21441 -0.1097,0.56493 -0.082,0.84145 0.0169,0.16833 0.0758,0.29564 0.15115,0.38751 0.19922,0.24277 0.39886,0.32023 0.87816,0.30181 0.47932,-0.0185 0.76361,-0.0198 1.36162,-0.13223 z"
             style="fill:#ffffff;fill-opacity:1;stroke-width:0.018896" /><path
             style="fill:#ffffff;fill-opacity:1;stroke-width:0.0300965"
             d="m 150.20463,270.95816 c -0.25783,-1.2011 -0.32214,-1.67105 -0.59939,-2.89089 -0.68772,-2.50547 -1.16258,-3.67017 -1.68716,-4.74193 -0.52461,-1.07173 -0.6793,-1.35188 -0.68067,-1.38456 0,-0.0327 0.022,-0.099 0.022,-0.099 0,0 0.40736,-0.8755 0.58601,-1.26267 0.13097,-0.28354 0.41933,-0.91075 0.53134,-1.13868 0.11219,-0.22793 0.10042,-0.25021 0.22275,-0.24814 0.0754,0 0.11092,0.0126 0.15895,0.12003 0.0432,0.0959 0.14528,0.27784 0.33881,0.59195 0.19336,0.31413 0.54483,1.04079 0.54483,1.04079 0,0 0.45612,0.9311 0.52125,0.96753 0.0651,0.0365 1.13556,0.10589 1.4312,-0.055 0.204,-0.11106 0.41459,-0.34242 0.54975,-0.60419 0.0233,-0.0457 0.11667,-0.21157 0.15506,-0.41805 0.0572,-0.30812 0.0589,-0.68186 0.0589,-0.68186 l 0.35334,-0.34469 c 0,0 0.44495,-0.39995 0.56342,-0.31742 0.10056,0.07 0.0692,0.66876 0.0692,0.66876 l 0.006,1.25749 c 0,0 0.27083,0.0368 0.50302,-0.0375 0.23233,-0.0743 0.39078,-0.19048 0.57807,-0.36323 0.21499,-0.19808 0.3309,-1.1202 0.38574,-1.20666 0.055,-0.0865 0.63376,-0.59448 0.76959,-0.59571 0.13575,0 0.14982,0.10729 0.15795,0.16669 0.008,0.0593 -0.004,0.16191 -0.006,0.32015 -0.004,0.15822 0.008,0.58928 -0.0799,1.5448 -0.0879,0.9555 -0.80741,2.55758 -1.21542,2.88796 -0.40783,0.33035 -0.4586,0.35314 -0.67275,0.44364 -0.21394,0.0904 -0.66566,0.10392 -0.89039,0.0375 -0.22462,-0.0666 -0.27083,-0.0876 -0.27083,-0.0876 0,0 -0.14358,0.0713 -0.21193,0.10518 -0.0683,0.034 -0.27216,0.14173 -0.55851,0.23243 -0.28651,0.0906 -0.48343,0.1307 -0.73061,0.1772 0.27046,0.92299 0.40075,2.47724 0.39921,2.70226 -0.0573,1.72268 -0.45641,2.39417 -0.71374,2.8461 -0.25717,0.45193 -0.44765,0.60638 -0.48749,0.61138 -0.0398,0.004 -0.0561,-0.0986 -0.10236,-0.24362 z"
             id="path15643-3"
             inkscape:connector-curvature="0"
             sodipodi:nodetypes="cczzcszsczczccsccscczczzzzzzzzczzcczzc" /></g></g></g></g></svg>
