<?xml version="1.0" encoding="UTF-8" standalone="no"?>
<!-- Created with Inkscape (http://www.inkscape.org/) -->

<svg
   xmlns:dc="http://purl.org/dc/elements/1.1/"
   xmlns:cc="http://creativecommons.org/ns#"
   xmlns:rdf="http://www.w3.org/1999/02/22-rdf-syntax-ns#"
   xmlns:svg="http://www.w3.org/2000/svg"
   xmlns="http://www.w3.org/2000/svg"
   xmlns:sodipodi="http://sodipodi.sourceforge.net/DTD/sodipodi-0.dtd"
   xmlns:inkscape="http://www.inkscape.org/namespaces/inkscape"
   version="1.1"
   id="svg10"
   width="663.17249"
   height="585.88812"
   viewBox="0 0 663.17249 585.88812"
   sodipodi:docname="Saudi_Arabia_-_Road_Sign_-_Electrified overhead cable ahead.svg"
   inkscape:version="0.92.4 (5da689c313, 2019-01-14)">
  <metadata
     id="metadata16">
    <rdf:RDF>
      <cc:Work
         rdf:about="">
        <dc:format>image/svg+xml</dc:format>
        <dc:type
           rdf:resource="http://purl.org/dc/dcmitype/StillImage" />
        <dc:title />
      </cc:Work>
    </rdf:RDF>
  </metadata>
  <defs
     id="defs14">
    <clipPath
       id="clipPath2832">
      <path
         inkscape:connector-curvature="0"
         id="path2834"
         d="M -0.24,595.138 H 317.24 V -0.138 H -0.24 Z" />
    </clipPath>
    <clipPath
       id="clipPath2840">
      <path
         inkscape:connector-curvature="0"
         id="path2842"
         d="M 0.03,595.32 H 317.49 V 0 H 0.03 Z" />
    </clipPath>
    <clipPath
       id="clipPath2858">
      <path
         inkscape:connector-curvature="0"
         id="path2860"
         d="M -0.24,595.138 H 317.24 V -0.138 H -0.24 Z" />
    </clipPath>
    <clipPath
       id="clipPath2864">
      <path
         inkscape:connector-curvature="0"
         id="path2866"
         d="M 0.03,595.32 H 317.49 V 0 H 0.03 Z" />
    </clipPath>
    <clipPath
       id="clipPath3306">
      <path
         inkscape:connector-curvature="0"
         id="path3308"
         d="m 199.238,472.977 v -29.74 h 29.744 v 29.74" />
    </clipPath>
    <clipPath
       id="clipPath3322">
      <path
         inkscape:connector-curvature="0"
         id="path3324"
         d="M -0.24,595.138 H 317.24 V -0.138 H -0.24 Z" />
    </clipPath>
    <clipPath
       id="clipPath3330">
      <path
         inkscape:connector-curvature="0"
         id="path3332"
         d="M 0.03,595.32 H 317.49 V 0 H 0.03 Z" />
    </clipPath>
    <clipPath
       id="clipPath3344">
      <path
         inkscape:connector-curvature="0"
         id="path3346"
         d="m 88.233,387.221 v -28.335 h 32.08 v 28.335" />
    </clipPath>
    <clipPath
       id="clipPath3462">
      <path
         inkscape:connector-curvature="0"
         id="path3464"
         d="M -0.24,595.138 H 317.24 V -0.138 H -0.24 Z" />
    </clipPath>
    <clipPath
       id="clipPath3470">
      <path
         inkscape:connector-curvature="0"
         id="path3472"
         d="M 0.03,595.32 H 317.49 V 0 H 0.03 Z" />
    </clipPath>
    <clipPath
       id="clipPath3490">
      <path
         inkscape:connector-curvature="0"
         id="path3492"
         d="M -0.24,595.138 H 317.24 V -0.138 H -0.24 Z" />
    </clipPath>
    <clipPath
       id="clipPath3496">
      <path
         inkscape:connector-curvature="0"
         id="path3498"
         d="M 0.03,595.32 H 317.49 V 0 H 0.03 Z" />
    </clipPath>
    <clipPath
       id="clipPath3520">
      <path
         inkscape:connector-curvature="0"
         id="path3522"
         d="m 254.788,326.215 v -28.309 h 28.326 v 28.309" />
    </clipPath>
    <clipPath
       id="clipPath3544">
      <path
         inkscape:connector-curvature="0"
         id="path3546"
         d="m 145.049,326.142 v -28.333 h 28.342 v 28.333" />
    </clipPath>
    <clipPath
       id="clipPath3682">
      <path
         inkscape:connector-curvature="0"
         id="path3684"
         d="M -0.24,595.138 H 317.24 V -0.138 H -0.24 Z" />
    </clipPath>
    <clipPath
       id="clipPath3690">
      <path
         inkscape:connector-curvature="0"
         id="path3692"
         d="M 0.03,595.32 H 317.49 V 0 H 0.03 Z" />
    </clipPath>
    <clipPath
       id="clipPath3980">
      <path
         inkscape:connector-curvature="0"
         id="path3982"
         d="M -0.24,595.138 H 317.24 V -0.138 H -0.24 Z" />
    </clipPath>
    <clipPath
       id="clipPath3988">
      <path
         inkscape:connector-curvature="0"
         id="path3990"
         d="M 0.03,595.32 H 317.49 V 0 H 0.03 Z" />
    </clipPath>
    <clipPath
       id="clipPath4010">
      <path
         inkscape:connector-curvature="0"
         id="path4012"
         d="M -0.24,595.138 H 317.24 V -0.138 H -0.24 Z" />
    </clipPath>
    <clipPath
       id="clipPath4016">
      <path
         inkscape:connector-curvature="0"
         id="path4018"
         d="M 0.03,595.32 H 317.49 V 0 H 0.03 Z" />
    </clipPath>
    <clipPath
       id="clipPath4062">
      <path
         inkscape:connector-curvature="0"
         id="path4064"
         d="m 200.163,177.773 v -28.284 h 28.283 v 28.284" />
    </clipPath>
    <clipPath
       id="clipPath4090">
      <path
         inkscape:connector-curvature="0"
         id="path4092"
         d="m 34.886,177.515 v -51.632 h 30.367 v 51.632" />
    </clipPath>
    <clipPath
       id="clipPath4106">
      <path
         inkscape:connector-curvature="0"
         id="path4108"
         d="m 34.886,177.515 v -51.632 h 30.367 v 51.632" />
    </clipPath>
    <clipPath
       id="clipPath4272">
      <path
         inkscape:connector-curvature="0"
         id="path4274"
         d="m 34.886,177.515 v -51.632 h 30.367 v 51.632" />
    </clipPath>
    <clipPath
       id="clipPath4304">
      <path
         inkscape:connector-curvature="0"
         id="path4306"
         d="m 254.653,176.442 v -48.167 h 28.317 v 48.167" />
    </clipPath>
    <clipPath
       id="clipPath4310">
      <path
         inkscape:connector-curvature="0"
         id="path4312"
         d="m 253.565,177.983 h 31.181 V 128.8 h -31.181 z" />
    </clipPath>
    <clipPath
       id="clipPath4316">
      <path
         inkscape:connector-curvature="0"
         id="path4318"
         d="M -0.24,595.138 H 317.24 V -0.138 H -0.24 Z" />
    </clipPath>
    <clipPath
       id="clipPath4322">
      <path
         inkscape:connector-curvature="0"
         id="path4324"
         d="M 0.03,595.32 H 317.49 V 0 H 0.03 Z" />
    </clipPath>
    <clipPath
       id="clipPath4456">
      <path
         inkscape:connector-curvature="0"
         id="path4458"
         d="M -0.24,595.138 H 317.24 V -0.138 H -0.24 Z" />
    </clipPath>
    <clipPath
       id="clipPath4464">
      <path
         inkscape:connector-curvature="0"
         id="path4466"
         d="M 0.03,595.32 H 317.49 V 0 H 0.03 Z" />
    </clipPath>
  </defs>
  <sodipodi:namedview
     pagecolor="#ffffff"
     bordercolor="#666666"
     borderopacity="1"
     objecttolerance="10"
     gridtolerance="10"
     guidetolerance="10"
     inkscape:pageopacity="0"
     inkscape:pageshadow="2"
     inkscape:window-width="1920"
     inkscape:window-height="1027"
     id="namedview12"
     showgrid="false"
     inkscape:zoom="0.59583334"
     inkscape:cx="447.99409"
     inkscape:cy="520.91197"
     inkscape:window-x="-8"
     inkscape:window-y="-8"
     inkscape:window-maximized="1"
     inkscape:current-layer="g214" />
  <g
     id="g214"
     transform="matrix(-1.6227733,0,0,-1.6227733,-49.496368,555.56836)">
    <path
       sodipodi:nodetypes="scccscscccss"
       inkscape:connector-curvature="0"
       id="path3101"
       d="m -411.84604,-18.683932 c -9.82369,0 -18.82982,5.1737 -23.67103,13.6233568 -4.86689,8.4368068 -4.86689,18.8557212 0,27.3182272 l 176.923,306.512038 c 4.8926,8.4368 13.8428,13.5876 23.56376,13.5876 0.0357,0 0.0715,1.3e-4 0.10721,0 0.0357,1.3e-4 0.0715,0 0.10722,0 9.72096,0 18.67118,-5.1508 23.56376,-13.5876 L -34.151274,22.257652 c 4.866901,-8.462506 4.866901,-18.8814204 0,-27.3182272 -4.841213,-8.4496568 -13.847326,-13.6233568 -23.67103,-13.6233568 z"
       style="fill:#b50300;fill-opacity:1;fill-rule:evenodd;stroke:none;stroke-width:1.14421892;stroke-opacity:1" />
    <path
       sodipodi:nodetypes="cccc"
       d="M -69.305379,14.972753 H -395.98405 L -234.1431,300.58311 Z"
       id="path3121"
       style="fill:#ffffff;fill-opacity:1;fill-rule:evenodd;stroke:none;stroke-width:1.13712609;stroke-opacity:1"
       inkscape:connector-curvature="0" />
    <path
       id="rect3733"
       style="fill:#000000;fill-opacity:1;stroke-width:0.26954445"
       d="m -226.27683,226.69525 53.20557,-154.965064 -76.02541,32.087514 13.43644,-36.50198 -7.9843,-7.23052 -15.9682,-2.437553 -30.07992,85.584843 70.97536,-27.01893 -48.26301,92.16501 27.63653,-7.59555 z"
       inkscape:connector-curvature="0"
       sodipodi:nodetypes="ccccccccccc" />
    <path
       sodipodi:nodetypes="cccccccccccc"
       id="path4037"
       style="fill:#000000;fill-opacity:1;fill-rule:evenodd;stroke:none;stroke-width:1.5743835"
       d="m -277.89835,50.651854 43.14341,-22.086411 19.50834,45.788571 c 0.37472,1.605716 -0.62778,3.219051 -2.23009,3.592285 -1.06869,0.244708 -1.91425,-0.192861 -2.8481,-0.861893 l -15.33544,-9.768686 -17.75914,42.05241 -19.04369,-6.93892 12.85033,-44.781563 -16.20625,-1.574936 c -1.27613,-0.12302 -2.17892,-0.318222 -2.83376,-1.262781 -0.94082,-1.351971 -0.59926,-3.220416 0.75439,-4.158076"
       inkscape:connector-curvature="0" />
  </g>
</svg>
