<?xml version="1.0" encoding="UTF-8" standalone="no"?>
<!-- Created with Inkscape (http://www.inkscape.org/) -->

<svg
   xmlns:dc="http://purl.org/dc/elements/1.1/"
   xmlns:cc="http://creativecommons.org/ns#"
   xmlns:rdf="http://www.w3.org/1999/02/22-rdf-syntax-ns#"
   xmlns:svg="http://www.w3.org/2000/svg"
   xmlns="http://www.w3.org/2000/svg"
   xmlns:sodipodi="http://sodipodi.sourceforge.net/DTD/sodipodi-0.dtd"
   xmlns:inkscape="http://www.inkscape.org/namespaces/inkscape"
   version="1.1"
   id="svg61"
   width="671.51532"
   height="671.51447"
   viewBox="0 0 671.51532 671.51447"
   sodipodi:docname="Saudi_Arabia_-_Road_Sign_-_Obstacles ahead.svg"
   inkscape:version="0.92.4 (5da689c313, 2019-01-14)">
  <metadata
     id="metadata67">
    <rdf:RDF>
      <cc:Work
         rdf:about="">
        <dc:format>image/svg+xml</dc:format>
        <dc:type
           rdf:resource="http://purl.org/dc/dcmitype/StillImage" />
        <dc:title></dc:title>
      </cc:Work>
    </rdf:RDF>
  </metadata>
  <defs
     id="defs65" />
  <sodipodi:namedview
     pagecolor="#ffffff"
     bordercolor="#666666"
     borderopacity="1"
     objecttolerance="10"
     gridtolerance="10"
     guidetolerance="10"
     inkscape:pageopacity="0"
     inkscape:pageshadow="2"
     inkscape:window-width="1920"
     inkscape:window-height="1027"
     id="namedview63"
     showgrid="false"
     inkscape:zoom="0.42131779"
     inkscape:cx="97.839619"
     inkscape:cy="368.08806"
     inkscape:window-x="-8"
     inkscape:window-y="-8"
     inkscape:window-maximized="1"
     inkscape:current-layer="svg61" />
  <path
     id="rect815"
     style="opacity:1;fill:#f5a512;fill-opacity:1;fill-rule:nonzero;stroke:none;stroke-width:0;stroke-linecap:square;stroke-linejoin:miter;stroke-miterlimit:10;stroke-dasharray:none;stroke-opacity:1;paint-order:fill markers stroke"
     d="m 335.7567,0 c -7.54727,0 -15.09385,2.89072 -20.87696,8.67383 L 8.674662,314.87891 c -11.566216,11.56621 -11.566216,30.18964 0,41.75586 L 314.87974,662.83982 c 11.56622,11.5662 30.18965,11.5662 41.75586,0 L 662.84068,356.63477 c 11.56622,-11.56622 11.56622,-30.18965 0,-41.75586 L 356.6356,8.67383 C 350.8525,2.89072 343.30397,0 335.7567,0 Z"
     inkscape:connector-curvature="0"
     sodipodi:nodetypes="ssssssssss" />
  <path
     id="path71"
     d="m 338.20735,99.02692 c -25.07183,-0.001 -45.39688,20.32378 -45.39563,45.39562 7.9e-4,25.07038 20.32523,45.39318 45.39563,45.39193 25.06895,-7.7e-4 45.39114,-20.32299 45.39193,-45.39193 10e-4,-25.07038 -20.32155,-45.39484 -45.39193,-45.39562 z"
     inkscape:connector-curvature="0"
     sodipodi:nodetypes="ccccc"
     style="fill:#ffb700;fill-opacity:1;stroke:#000000;stroke-width:1.88887095;stroke-opacity:1" />
  <path
     style="fill:#ffb700;fill-opacity:1;stroke:#000000;stroke-width:1.88887095;stroke-opacity:1"
     sodipodi:nodetypes="ccccc"
     inkscape:connector-curvature="0"
     d="m 337.0206,294.84111 c -25.07183,-0.001 -45.39688,20.32378 -45.39563,45.39562 7.9e-4,25.07038 20.32523,45.39318 45.39563,45.39193 25.06895,-7.7e-4 45.39114,-20.32299 45.39193,-45.39193 10e-4,-25.07038 -20.32155,-45.39484 -45.39193,-45.39562 z"
     id="path4593" />
  <path
     id="path4595"
     d="m 334.05372,488.87517 c -25.07183,-0.001 -45.39688,20.32378 -45.39563,45.39562 7.9e-4,25.07038 20.32523,45.39318 45.39563,45.39193 25.06895,-7.7e-4 45.39114,-20.32299 45.39193,-45.39193 10e-4,-25.07038 -20.32155,-45.39484 -45.39193,-45.39562 z"
     inkscape:connector-curvature="0"
     sodipodi:nodetypes="ccccc"
     style="fill:#ffb700;fill-opacity:1;stroke:#000000;stroke-width:1.88887095;stroke-opacity:1" />
  <path
     style="fill:#ffb700;fill-opacity:1;stroke:#000000;stroke-width:1.88887095;stroke-opacity:1"
     sodipodi:nodetypes="ccccc"
     inkscape:connector-curvature="0"
     d="m 531.64803,293.65436 c -25.07183,-10e-4 -45.39688,20.32378 -45.39563,45.39562 7.9e-4,25.07038 20.32523,45.39318 45.39563,45.39193 25.06895,-7.7e-4 45.39114,-20.32299 45.39193,-45.39193 0.001,-25.07038 -20.32155,-45.39484 -45.39193,-45.39562 z"
     id="path4597" />
  <path
     id="path4599"
     d="m 137.64615,294.24774 c -25.07183,-0.001 -45.396884,20.32378 -45.395634,45.39562 7.9e-4,25.07038 20.325234,45.39318 45.395634,45.39193 25.06895,-7.7e-4 45.39114,-20.32299 45.39193,-45.39193 0.001,-25.07038 -20.32155,-45.39484 -45.39193,-45.39562 z"
     inkscape:connector-curvature="0"
     sodipodi:nodetypes="ccccc"
     style="fill:#ffb700;fill-opacity:1;stroke:#000000;stroke-width:1.88887095;stroke-opacity:1" />
  <path
     style="fill:#ffb700;fill-opacity:1;stroke:#000000;stroke-width:1.88887095;stroke-opacity:1"
     sodipodi:nodetypes="ccccc"
     inkscape:connector-curvature="0"
     d="m 237.92675,390.96808 c -25.07183,-10e-4 -45.39688,20.32378 -45.39563,45.39562 7.9e-4,25.07038 20.32523,45.39318 45.39563,45.39193 25.06895,-7.7e-4 45.39114,-20.32299 45.39193,-45.39193 0.001,-25.07038 -20.32155,-45.39484 -45.39193,-45.39562 z"
     id="path4601" />
  <path
     id="path4603"
     d="m 436.11444,198.71415 c -25.07183,-10e-4 -45.39688,20.32378 -45.39563,45.39562 7.9e-4,25.07038 20.32523,45.39318 45.39563,45.39193 25.06895,-7.7e-4 45.39114,-20.32299 45.39193,-45.39193 10e-4,-25.07038 -20.32155,-45.39484 -45.39193,-45.39562 z"
     inkscape:connector-curvature="0"
     sodipodi:nodetypes="ccccc"
     style="fill:#ffb700;fill-opacity:1;stroke:#000000;stroke-width:1.88887095;stroke-opacity:1" />
  <path
     style="fill:#ffb700;fill-opacity:1;stroke:#000000;stroke-width:1.88887095;stroke-opacity:1"
     sodipodi:nodetypes="ccccc"
     inkscape:connector-curvature="0"
     d="m 239.1135,193.37376 c -25.07183,-0.001 -45.39688,20.32378 -45.39563,45.39562 7.9e-4,25.07038 20.32523,45.39318 45.39563,45.39193 25.06895,-7.7e-4 45.39114,-20.32299 45.39193,-45.39193 0.001,-25.07038 -20.32155,-45.39484 -45.39193,-45.39562 z"
     id="path4605" />
  <path
     id="path4607"
     d="m 437.08683,390.3747 c -25.07183,-0.001 -45.39688,20.32378 -45.39563,45.39562 7.9e-4,25.07038 20.32523,45.39318 45.39563,45.39193 25.06895,-7.7e-4 45.39114,-20.32299 45.39193,-45.39193 10e-4,-25.07038 -20.32155,-45.39484 -45.39193,-45.39562 z"
     inkscape:connector-curvature="0"
     sodipodi:nodetypes="ccccc"
     style="fill:#ffb700;fill-opacity:1;stroke:#000000;stroke-width:1.88887095;stroke-opacity:1" />
</svg>
