<?xml version="1.0" encoding="UTF-8" standalone="no"?>
<!-- Created with Inkscape (http://www.inkscape.org/) -->

<svg
   version="1.1"
   id="svg5673"
   width="537.61328"
   height="806.41797"
   viewBox="0 0 537.61328 806.41797"
   sodipodi:docname="SA_road_sign_-_Park5.svg"
   inkscape:version="1.4.2 (f4327f4, 2025-05-13)"
   xml:space="preserve"
   xmlns:inkscape="http://www.inkscape.org/namespaces/inkscape"
   xmlns:sodipodi="http://sodipodi.sourceforge.net/DTD/sodipodi-0.dtd"
   xmlns="http://www.w3.org/2000/svg"
   xmlns:svg="http://www.w3.org/2000/svg"
   xmlns:rdf="http://www.w3.org/1999/02/22-rdf-syntax-ns#"
   xmlns:cc="http://creativecommons.org/ns#"
   xmlns:dc="http://purl.org/dc/elements/1.1/"><metadata
     id="metadata5679"><rdf:RDF><cc:Work
         rdf:about=""><dc:format>image/svg+xml</dc:format><dc:type
           rdf:resource="http://purl.org/dc/dcmitype/StillImage" /></cc:Work></rdf:RDF></metadata><defs
     id="defs5677" /><sodipodi:namedview
     pagecolor="#ffffff"
     bordercolor="#666666"
     borderopacity="1"
     objecttolerance="10"
     gridtolerance="10"
     guidetolerance="10"
     inkscape:pageopacity="0"
     inkscape:pageshadow="2"
     inkscape:window-width="1920"
     inkscape:window-height="991"
     id="namedview5675"
     showgrid="false"
     inkscape:zoom="0.92709556"
     inkscape:cx="337.61352"
     inkscape:cy="424.98316"
     inkscape:window-x="-9"
     inkscape:window-y="-9"
     inkscape:window-maximized="1"
     inkscape:current-layer="svg5673"
     inkscape:showpageshadow="2"
     inkscape:pagecheckerboard="0"
     inkscape:deskcolor="#d1d1d1"
     showguides="false" /><path
     id="rect47"
     style="opacity:1;fill:#042058;fill-rule:evenodd;stroke-width:0.896023;fill-opacity:1"
     d="M 37.751953,0 C 16.836912,0 0,16.836912 0,37.751953 V 768.66602 c 0,20.91504 16.836912,37.75195 37.751953,37.75195 H 499.85938 c 20.91504,0 37.7539,-16.83691 37.7539,-37.75195 V 37.751953 C 537.61328,16.836912 520.77442,0 499.85938,0 Z" /><rect
     style="opacity:1;fill:#ffffff;fill-rule:evenodd;stroke-width:0.558199"
     id="rect46"
     width="376.22281"
     height="447.22495"
     x="80.694931"
     y="86.751862" /><g
     id="g6338"
     transform="scale(1.0312102)" /><g
     id="g10"
     transform="matrix(-1,0,0,1,1851.4805,0)" /><path
     class="st1"
     d="m 340.57802,468.45112 v -169.7438 h 5.672 c 0.22598,22.54555 -2.6424,124.57823 2.65709,143.96072 3.37939,12.31117 15.10311,22.20303 27.6596,22.20303 14.90148,0 27.20519,-12.22917 27.20519,-27.22001 0,-29.81773 -23.29778,-59.48677 -23.29778,-98.75001 0,-34.38042 0,-73.54714 0,-117.12005 -0.36625,-6.97451 -4.02645,-13.68061 -9.62403,-17.89381 l -30.19752,-24.77134 v -21.52594 c -0.0735,-6.89251 -5.79839,-12.72778 -12.70547,-12.72778 l -111.67172,0.0739 c 0,0 0,0.0886 -0.0612,0.0886 -6.94436,0 -12.72751,5.58972 -12.72751,12.54181 l -0.0912,0.0245 V 468.45127 H 131.4336 v 24.42182 H 406.17907 V 468.45123 Z M 321.77144,234.34999 c 0,4.48854 -3.66932,8.16549 -8.15807,8.16549 h -83.42438 c -4.48808,0 -8.16542,-3.67695 -8.16542,-8.16549 v -63.70704 c 0,-4.48812 3.67734,-8.16544 8.16542,-8.16544 h 83.42438 c 4.48875,0 8.15807,3.67732 8.15807,8.16544 z m 18.59352,-36.15942 5.89485,4.55522 v 32.37073 l 19.84397,-0.0305 c 0.29918,36.82949 0.58612,73.64403 0.88529,110.45826 0.0612,36.66586 21.09497,69.07385 21.72747,90.1754 0.20762,7.01175 -5.73118,12.73561 -12.74329,12.73561 -3.58755,0 -8.38827,-1.8312 -11.41052,-6.84775 -8.53726,-14.18706 -3.75857,-133.06377 -3.89285,-151.45614 0,-5.70152 -4.64441,-10.34618 -10.2345,-10.36114 l -10.07042,-0.38709 z"
     id="path4-2"
     style="fill:#000000;stroke-width:6.10545" /></svg>
