<?xml version="1.0" encoding="UTF-8" standalone="no"?>
<svg xmlns="http://www.w3.org/2000/svg" width="691.60553" height="691.60547">
  <g transform="translate(-583.2428111 -1771.56221459) scale(1.15075805)">
    <path stroke="#000" d="M544.83335 1539.9741c-20.775 0-37.49978 16.7247-37.49978 37.4997v525.0004c0 20.7749 16.72478 37.4998 37.49978 37.4998h525.00035c20.775 0 37.4998-16.7249 37.4998-37.4998v-525.0004c0-20.775-16.7248-37.4997-37.4998-37.4997z"/>
    <path fill="#fff" d="M544.33363 1549.8487c-15.58125 0-28.12483 12.5453-28.12483 28.1266v524.9986c0 15.5813 12.54358 28.1248 28.12483 28.1248H1069.334c15.5813 0 28.1248-12.5435 28.1248-28.1248v-524.9986c0-15.5813-12.5435-28.1266-28.1248-28.1266z"/>
  </g>
  <circle cx="342.53485" cy="346.44147" r="255.94008"/>
  <circle cx="341.89584" cy="347.67502" r="206.44644" fill="#fff" fill-opacity=".98994978"/>
  <circle cx="343.78342" cy="347.77908" r="64.20797"/>
</svg>