<?xml version="1.0" encoding="UTF-8" standalone="no"?>
<!-- Created with Inkscape (http://www.inkscape.org/) -->

<svg
   width="47.49271mm"
   height="47.49271mm"
   viewBox="0 0 47.49271 47.49271"
   version="1.1"
   id="svg1"
   xml:space="preserve"
   inkscape:version="1.4.2 (f4327f4, 2025-05-13)"
   sodipodi:docname="SA_road_sign_-_Mandatory_traffic_direction_in_the_roundabout.svg"
   xmlns:inkscape="http://www.inkscape.org/namespaces/inkscape"
   xmlns:sodipodi="http://sodipodi.sourceforge.net/DTD/sodipodi-0.dtd"
   xmlns="http://www.w3.org/2000/svg"
   xmlns:svg="http://www.w3.org/2000/svg"><sodipodi:namedview
     id="namedview1"
     pagecolor="#ffffff"
     bordercolor="#000000"
     borderopacity="0.25"
     inkscape:showpageshadow="2"
     inkscape:pageopacity="0.0"
     inkscape:pagecheckerboard="0"
     inkscape:deskcolor="#d1d1d1"
     inkscape:document-units="mm"
     inkscape:zoom="2.0031716"
     inkscape:cx="82.868587"
     inkscape:cy="13.478626"
     inkscape:window-width="1920"
     inkscape:window-height="991"
     inkscape:window-x="-9"
     inkscape:window-y="-9"
     inkscape:window-maximized="1"
     inkscape:current-layer="g1"
     showgrid="false"
     showguides="true" /><defs
     id="defs1" /><g
     inkscape:label="Layer 1"
     inkscape:groupmode="layer"
     id="layer1"
     transform="translate(-130.37344,-115.29219)"><g
       id="g9057"
       transform="matrix(2.1125124,0,0,2.1125124,-33.660916,25.665494)"><g
         id="g1"
         transform="translate(23.327131,2.0353439)"><g
           id="g49606"
           transform="matrix(0.9999912,0,0,0.9999912,-89.974672,-213.08891)"><circle
             style="fill:#042058;fill-opacity:1;stroke:none;stroke-width:1.45119;stroke-linecap:round;stroke-linejoin:round;paint-order:stroke fill markers"
             id="circle15635"
             cx="-155.53867"
             cy="264.7233"
             r="11.2095"
             transform="scale(-1,1)" /></g><g
           id="g2"
           style="fill:#ffffff"
           transform="matrix(2.1124937,0,0,2.1124937,-76.805287,-25.324598)"><path
             id="path3679"
             style="fill:#ffffff;stroke:none;stroke-width:0.298506;stroke-linecap:round;stroke-linejoin:round;stroke-dasharray:none;stroke-opacity:1;paint-order:stroke fill markers"
             d="m 66.111328,33.454381 c -0.129646,4.7e-5 -0.210185,0.141017 -0.144326,0.252693 0,0 0.06375,0.108109 0.125003,0.219424 0.03063,0.05566 0.0605,0.112461 0.08024,0.153378 0.0019,0.0042 0.0019,0.0052 0.0043,0.0091 -0.143337,0.356978 -0.416736,1.030138 -0.597852,1.410483 a 1.758283,1.758283 0 0 0 -0.717227,-0.156557 1.758283,1.758283 0 0 0 -1.758333,1.758089 1.758283,1.758283 0 0 0 1.758333,1.758334 1.758283,1.758283 0 0 0 1.758333,-1.758334 1.758283,1.758283 0 0 0 -0.748048,-1.437636 c 0.0028,-0.0059 0.0068,-0.01331 0.0096,-0.01908 0.05395,-0.113279 0.114783,-0.250075 0.177841,-0.395307 l 1.215765,1.698157 a 0.38110335,0.38110335 0 0 0 -0.02324,0.202302 0.38110335,0.38110335 0 0 0 0.364978,0.319719 l 0.05577,0.345894 h -0.141391 v 0.173925 h 0.441782 V 37.81504 h -0.155577 l -0.05944,-0.368644 a 0.38110335,0.38110335 0 0 0 0.219426,-0.206704 h 0.539387 a 1.758283,1.758283 0 0 0 1.750015,1.619634 1.758283,1.758283 0 0 0 1.758338,-1.758334 1.758283,1.758283 0 0 0 -1.758338,-1.758089 1.758283,1.758283 0 0 0 -0.861798,0.228476 l -0.403131,-0.598832 v -2.45e-4 -0.475542 l 0.420991,0.01394 c 0.0328,0.0011 0.06332,-0.01609 0.07926,-0.04477 l 0.131361,-0.238261 c 0.03228,-0.05827 -0.0099,-0.129623 -0.07657,-0.129405 h -1.457696 c -0.09899,-5.68e-4 -0.122356,0.137915 -0.02864,0.169767 l 0.623783,0.215266 c 0.0082,0.0027 0.01699,0.0042 0.0257,0.0044 h 0.0028 v 0.127936 h -2.397283 c 0.07222,-0.176102 0.139119,-0.341221 0.18567,-0.457441 0.02854,-0.07117 0.01174,-0.09082 0.0078,-0.108856 -0.0038,-0.01803 -0.0082,-0.0302 -0.01273,-0.04232 -0.009,-0.02425 -0.01969,-0.04704 -0.03205,-0.07265 -0.02116,-0.04381 -0.04855,-0.09449 -0.07583,-0.144571 h 0.771778 v -0.335131 z m 0.101765,1.437636 h 2.400218 l 0.0142,0.02079 -0.856662,1.823403 a 0.38110335,0.38110335 0 0 0 -0.13234,-0.02813 l -0.05749,-0.35739 h 0.14335 v -0.17417 h -0.441786 v 0.17417 h 0.153622 l 0.04478,0.276665 z m 2.55653,0.2319 0.405825,0.602501 a 1.758283,1.758283 0 0 0 -0.659253,1.236313 h -0.529602 a 0.38110335,0.38110335 0 0 0 -0.04208,-0.08244 z m -3.90855,0.738021 a 1.2391239,1.2391239 0 0 1 0.483126,0.0998 c -0.137159,0.261156 -0.289655,0.540704 -0.408026,0.755389 a 0.39127626,0.39127626 0 0 0 -0.07485,-0.0073 0.39127626,0.39127626 0 0 0 -0.391392,0.391393 0.39127626,0.39127626 0 0 0 0.391392,0.391149 0.39127626,0.39127626 0 0 0 0.39115,-0.391149 0.39127626,0.39127626 0 0 0 -0.04478,-0.181998 c 0.12024,-0.217005 0.273844,-0.497436 0.424906,-0.784743 a 1.2391239,1.2391239 0 0 1 0.467959,0.966496 1.2391239,1.2391239 0 0 1 -1.239495,1.239494 1.2391239,1.2391239 0 0 1 -1.239004,-1.239494 1.2391239,1.2391239 0 0 1 1.239004,-1.239004 z m 5.405142,0 a 1.2391239,1.2391239 0 0 1 1.239491,1.239004 1.2391239,1.2391239 0 0 1 -1.239491,1.239493 1.2391239,1.2391239 0 0 1 -1.229219,-1.100793 h 0.863754 a 0.39127626,0.39127626 0 0 0 0.365707,0.252693 0.39127626,0.39127626 0 0 0 0.39115,-0.391148 0.39127626,0.39127626 0 0 0 -0.39115,-0.391394 0.39127626,0.39127626 0 0 0 -0.08855,0.01003 l -0.4819,-0.715515 a 1.2391239,1.2391239 0 0 1 0.570212,-0.14237 z m -0.801136,0.295012 0.482885,0.717228 a 0.39127626,0.39127626 0 0 0 -0.04746,0.08855 h -0.863508 a 1.2391239,1.2391239 0 0 1 0.428083,-0.805781 z" /></g></g></g></g></svg>
